<svg width="20" height="20" viewBox="0 0 20 20" fill="none" xmlns="http://www.w3.org/2000/svg">
<g clip-path="url(#clip0_505_1592)">
<path d="M0.555623 12.7952H2.77771C3.08451 12.7952 3.33333 13.0438 3.33333 13.3506V18.9062C3.33333 19.213 3.08451 19.4618 2.77771 19.4618H0.555623C0.24882 19.4618 0 19.213 0 18.9062V13.3506C0 13.0438 0.24882 12.7952 0.555623 12.7952Z" fill="black"/>
<path d="M6.11108 8.35059H8.33337C8.64018 8.35059 8.889 8.59941 8.889 8.90621V18.9062C8.889 19.213 8.64018 19.4618 8.33337 19.4618H6.11108C5.80428 19.4618 5.55566 19.213 5.55566 18.9062V8.90621C5.55566 8.59941 5.80428 8.35059 6.11108 8.35059Z" fill="black"/>
<path d="M11.6667 10.5729H13.889C14.1958 10.5729 14.4444 10.8217 14.4444 11.1285V18.9062C14.4444 19.213 14.1958 19.4618 13.889 19.4618H11.6667C11.3599 19.4618 11.1111 19.213 11.1111 18.9062V11.1285C11.1111 10.8217 11.3599 10.5729 11.6667 10.5729Z" fill="black"/>
<path d="M17.2224 7.23962H19.4445C19.7513 7.23962 20.0001 7.48844 20.0001 7.79525V18.9063C20.0001 19.2131 19.7513 19.4619 19.4445 19.4619H17.2224C16.9156 19.4619 16.6667 19.2131 16.6667 18.9063V7.79525C16.6667 7.48844 16.9156 7.23962 17.2224 7.23962Z" fill="black"/>
<path d="M18.3333 0.572876C17.4133 0.573893 16.6677 1.31954 16.6667 2.23954C16.6689 2.42102 16.701 2.60087 16.7619 2.77177L13.9807 4.42501C13.6157 4.03784 13.0865 3.85026 12.5592 3.92086C12.0317 3.99146 11.5706 4.31169 11.3202 4.78125L8.86719 3.56624C8.87919 3.49483 8.88631 3.42281 8.88896 3.35059C8.89018 2.67594 8.4847 2.06722 7.86173 1.80823C7.23877 1.54944 6.5212 1.69165 6.04411 2.16854C5.56681 2.64543 5.42419 3.36279 5.68278 3.98596L2.50081 6.36064C2.24854 6.21029 1.96045 6.13013 1.66667 6.1285C0.746256 6.1285 0 6.87455 0 7.79517C0 8.71558 0.746256 9.46183 1.66667 9.46183C2.58708 9.46183 3.33333 8.71558 3.33333 7.79517C3.33191 7.59456 3.29407 7.3962 3.22164 7.20923L6.43534 4.81075C7.06401 5.1613 7.8481 5.05855 8.36507 4.55766L11.1546 5.93929C11.3405 6.76754 12.12 7.32336 12.9637 7.22937C13.8074 7.13538 14.4454 6.42188 14.4444 5.57288C14.4444 5.53056 14.435 5.49068 14.432 5.44918L17.4569 3.65088C17.7191 3.81669 18.0229 3.90519 18.3333 3.90621C19.2537 3.90621 20 3.15995 20 2.23954C20 1.31913 19.2537 0.572876 18.3333 0.572876Z" fill="black"/>
</g>
<defs>
<clipPath id="clip0_505_1592">
<rect width="20" height="20" fill="white"/>
</clipPath>
</defs>
</svg>
