<svg width="20" height="20" viewBox="0 0 20 20" fill="none" xmlns="http://www.w3.org/2000/svg">
<path d="M7.93745 1H2.31245C1.58873 1 1 1.58873 1 2.31245V5.68745C1 6.41132 1.58873 7.00005 2.31245 7.00005H7.93745C8.66132 7.00005 9.25005 6.41132 9.25005 5.68745V2.31245C9.25005 1.58873 8.66132 1 7.93745 1Z" fill="black"/>
<path d="M7.93745 8.5H2.31245C1.58873 8.5 1 9.08873 1 9.81259V17.6876C1 18.4113 1.58873 19 2.31245 19H7.93745C8.66132 19 9.25005 18.4113 9.25005 17.6876V9.81259C9.25005 9.08873 8.66132 8.5 7.93745 8.5Z" fill="black"/>
<path d="M17.6876 13H12.0626C11.3387 13 10.75 13.5887 10.75 14.3126V17.6876C10.75 18.4113 11.3387 19 12.0626 19H17.6876C18.4113 19 19 18.4113 19 17.6876V14.3126C19 13.5887 18.4113 13 17.6876 13Z" fill="black"/>
<path d="M17.6876 1H12.0626C11.3387 1 10.75 1.58873 10.75 2.31245V10.1875C10.75 10.9113 11.3387 11.5 12.0626 11.5H17.6876C18.4113 11.5 19 10.9113 19 10.1875V2.31245C19 1.58873 18.4113 1 17.6876 1Z" fill="black"/>
</svg>
