<svg width="20" height="20" viewBox="0 0 20 20" fill="none" xmlns="http://www.w3.org/2000/svg">
<path d="M6.54395 16.4088L4.91805 13.796L3.44719 14.2067C2.02246 14.6069 1.0293 15.9206 1.0293 17.3977V19.5809C1.0293 19.8114 1.21785 20 1.44836 20H8.0232L8.33957 17.119C7.67918 17.3019 6.93641 17.0416 6.54395 16.4088Z" fill="black"/>
<path d="M16.5527 14.2046L15.084 13.7939L13.4581 16.4109C13.0575 17.0541 12.2883 17.3034 11.6604 17.117L11.9768 20H18.5516C18.782 20 18.9706 19.8115 18.9706 19.581V17.3978C18.9707 15.9206 17.9775 14.6069 16.5527 14.2046Z" fill="black"/>
<path d="M11.6388 16.2002C12.0068 16.4523 12.5107 16.3463 12.7458 15.9677L14.0121 13.9288L12.2923 12.8653L10.0023 15.0783H9.99898L9.7866 15.2234L9.99824 15.0784L7.70855 12.8652L5.98828 13.9287L7.25496 15.9676C7.49 16.3463 7.99359 16.4522 8.36152 16.2002L8.57785 16.0519L9.22793 16.702L8.89898 19.694H11.1011L10.7721 16.7041L11.4236 16.0526L11.6388 16.2002Z" fill="black"/>
<path d="M4.92006 3.63625C5.14846 3.39531 5.47322 3.24863 5.82729 3.24863H14.1684C14.5224 3.24863 14.8472 3.39527 15.0777 3.63832C15.0847 3.6148 15.3826 3.15629 15.1804 2.59074C14.8751 1.73168 14.1935 1.85746 10.4996 0.103711C10.1833 -0.0345703 9.8208 -0.0345703 9.5044 0.103711C5.75381 1.88355 5.12604 1.73723 4.82158 2.58863C4.6151 3.16605 4.91268 3.61066 4.92006 3.63625Z" fill="black"/>
<path d="M14.1684 4.08679H5.8273C5.63457 4.08679 5.46691 4.21667 5.42082 4.40527C5.29242 4.9221 5.27832 5.27046 5.27832 5.72738C5.27832 6.02074 5.39473 6.30605 5.65273 6.52296C5.75164 9.94097 6.87918 11.0154 8.40664 12.3128C8.73855 12.5965 9.16188 12.7527 9.59867 12.7527H10.4074C10.8443 12.7527 11.2676 12.5964 11.5991 12.313C13.0914 11.0413 14.2378 10.0097 14.3485 6.5214C14.5758 6.32839 14.7236 6.04152 14.7236 5.71269C14.7236 5.34394 14.7236 4.9982 14.5748 4.40316C14.5288 4.21667 14.3612 4.08679 14.1684 4.08679ZM11.0551 11.6756C10.8748 11.8297 10.6448 11.9146 10.4075 11.9146H9.59871C9.36137 11.9146 9.13137 11.8298 8.9502 11.6748C7.74813 10.6546 6.65133 9.83484 6.50016 6.77078H6.53543L7.51809 7.7241C7.94551 8.13894 8.50914 8.36734 9.10629 8.36734H10.8977C11.4927 8.36734 12.0563 8.13894 12.4837 7.72621L13.4706 6.77078H13.5003C13.3478 9.70343 12.3832 10.5446 11.0551 11.6756Z" fill="black"/>
</svg>
