<svg width="180" height="104" viewBox="0 0 180 104" fill="none" xmlns="http://www.w3.org/2000/svg">
<rect x="0.5" y="0.5" width="179" height="102.592" rx="10.5" fill="#2D927E" fill-opacity="0.05" stroke="#2D927E" stroke-dasharray="4 4"/>
<g opacity="0.5">
<g clip-path="url(#clip0_67_1512)">
<path d="M81.8535 47.2524C79.5855 47.2524 77.5681 45.8002 76.8356 43.6383L76.786 43.4754C76.6133 42.9029 76.5409 42.4215 76.5409 41.9398V32.2805L73.104 43.753C72.662 45.4404 73.6693 47.1899 75.3593 47.656L97.2658 53.5227C97.5393 53.5936 97.8127 53.6275 98.0819 53.6275C99.4928 53.6275 100.782 52.6911 101.143 51.311L102.42 47.2524H81.8535Z" fill="black"/>
<path d="M85.7495 32.3772C87.3122 32.3772 88.5827 31.1064 88.5827 29.5437C88.5827 27.981 87.3122 26.7102 85.7495 26.7102C84.1868 26.7102 82.916 27.981 82.916 29.5437C82.916 31.1064 84.1868 32.3772 85.7495 32.3772Z" fill="black"/>
<path d="M103.458 22.46H82.2076C80.2555 22.46 78.6659 24.0496 78.6659 26.0019V41.5854C78.6659 43.5377 80.2555 45.1274 82.2076 45.1274H103.458C105.41 45.1274 107 43.5377 107 41.5854V26.0019C107 24.0496 105.41 22.46 103.458 22.46ZM82.2076 25.2935H103.458C103.849 25.2935 104.167 25.6107 104.167 26.0019V36.059L99.6913 30.837C99.2165 30.2803 98.5294 29.9827 97.7914 29.9659C97.0575 29.97 96.369 30.2958 95.8987 30.8598L90.637 37.1753L88.9228 35.4653C87.9539 34.4964 86.377 34.4964 85.4094 35.4653L81.4994 39.374V26.0019C81.4994 25.6107 81.8166 25.2935 82.2076 25.2935Z" fill="black"/>
</g>
<path d="M19.8302 79.974C20.1742 79.974 20.4822 79.916 20.7542 79.8C21.0262 79.684 21.2562 79.522 21.4442 79.314C21.6322 79.102 21.7762 78.852 21.8762 78.564C21.9762 78.272 22.0262 77.95 22.0262 77.598V72.384H23.2982V77.598C23.2982 78.102 23.2182 78.568 23.0582 78.996C22.8982 79.424 22.6682 79.794 22.3682 80.106C22.0682 80.418 21.7042 80.662 21.2762 80.838C20.8482 81.014 20.3662 81.102 19.8302 81.102C19.2942 81.102 18.8122 81.014 18.3842 80.838C17.9562 80.662 17.5922 80.418 17.2922 80.106C16.9922 79.794 16.7622 79.424 16.6022 78.996C16.4422 78.568 16.3622 78.102 16.3622 77.598V72.384H17.6402V77.592C17.6402 77.944 17.6882 78.266 17.7842 78.558C17.8842 78.85 18.0282 79.102 18.2162 79.314C18.4042 79.522 18.6342 79.684 18.9062 79.8C19.1782 79.916 19.4862 79.974 19.8302 79.974ZM26.0604 79.5C26.2524 79.752 26.4584 79.928 26.6784 80.028C26.9024 80.128 27.1524 80.178 27.4284 80.178C27.9644 80.178 28.3784 79.986 28.6704 79.602C28.9664 79.214 29.1144 78.65 29.1144 77.91C29.1144 77.522 29.0804 77.192 29.0124 76.92C28.9484 76.644 28.8524 76.42 28.7244 76.248C28.6004 76.072 28.4464 75.944 28.2624 75.864C28.0784 75.78 27.8704 75.738 27.6384 75.738C27.2984 75.738 27.0024 75.814 26.7504 75.966C26.5024 76.118 26.2724 76.334 26.0604 76.614V79.5ZM26.0004 75.816C26.1284 75.664 26.2644 75.526 26.4084 75.402C26.5564 75.274 26.7144 75.166 26.8824 75.078C27.0504 74.986 27.2284 74.916 27.4164 74.868C27.6084 74.816 27.8124 74.79 28.0284 74.79C28.3764 74.79 28.6904 74.858 28.9704 74.994C29.2544 75.13 29.4964 75.33 29.6964 75.594C29.8964 75.858 30.0504 76.184 30.1584 76.572C30.2704 76.96 30.3264 77.406 30.3264 77.91C30.3264 78.362 30.2644 78.782 30.1404 79.17C30.0204 79.554 29.8464 79.888 29.6184 80.172C29.3944 80.456 29.1184 80.68 28.7904 80.844C28.4664 81.004 28.1004 81.084 27.6924 81.084C27.3284 81.084 27.0164 81.024 26.7564 80.904C26.4964 80.784 26.2644 80.616 26.0604 80.4V83.046H24.8904V74.904H25.5924C25.7564 74.904 25.8584 74.982 25.8984 75.138L26.0004 75.816ZM32.8404 72.144V81H31.6644V72.144H32.8404ZM37.1095 74.808C37.5575 74.808 37.9615 74.882 38.3215 75.03C38.6855 75.174 38.9935 75.384 39.2455 75.66C39.5015 75.932 39.6975 76.262 39.8335 76.65C39.9695 77.034 40.0375 77.466 40.0375 77.946C40.0375 78.426 39.9695 78.86 39.8335 79.248C39.6975 79.636 39.5015 79.966 39.2455 80.238C38.9935 80.51 38.6855 80.72 38.3215 80.868C37.9615 81.012 37.5575 81.084 37.1095 81.084C36.6575 81.084 36.2495 81.012 35.8855 80.868C35.5255 80.72 35.2175 80.51 34.9615 80.238C34.7055 79.966 34.5075 79.636 34.3675 79.248C34.2315 78.86 34.1635 78.426 34.1635 77.946C34.1635 77.466 34.2315 77.034 34.3675 76.65C34.5075 76.262 34.7055 75.932 34.9615 75.66C35.2175 75.384 35.5255 75.174 35.8855 75.03C36.2495 74.882 36.6575 74.808 37.1095 74.808ZM37.1095 80.172C37.6855 80.172 38.1155 79.978 38.3995 79.59C38.6835 79.202 38.8255 78.656 38.8255 77.952C38.8255 77.248 38.6835 76.702 38.3995 76.314C38.1155 75.922 37.6855 75.726 37.1095 75.726C36.5255 75.726 36.0895 75.922 35.8015 76.314C35.5175 76.702 35.3755 77.248 35.3755 77.952C35.3755 78.656 35.5175 79.202 35.8015 79.59C36.0895 79.978 36.5255 80.172 37.1095 80.172ZM44.6195 78.294C44.1435 78.31 43.7395 78.348 43.4075 78.408C43.0755 78.464 42.8055 78.54 42.5975 78.636C42.3895 78.732 42.2395 78.846 42.1475 78.978C42.0555 79.106 42.0095 79.25 42.0095 79.41C42.0095 79.562 42.0335 79.694 42.0815 79.806C42.1335 79.914 42.2015 80.004 42.2855 80.076C42.3735 80.144 42.4755 80.194 42.5915 80.226C42.7075 80.258 42.8335 80.274 42.9695 80.274C43.1495 80.274 43.3135 80.256 43.4615 80.22C43.6135 80.184 43.7555 80.134 43.8875 80.07C44.0195 80.002 44.1455 79.92 44.2655 79.824C44.3855 79.728 44.5035 79.618 44.6195 79.494V78.294ZM41.1875 75.756C41.5275 75.432 41.8955 75.19 42.2915 75.03C42.6915 74.87 43.1295 74.79 43.6055 74.79C43.9535 74.79 44.2615 74.848 44.5295 74.964C44.7975 75.076 45.0235 75.234 45.2075 75.438C45.3915 75.642 45.5295 75.886 45.6215 76.17C45.7175 76.454 45.7655 76.768 45.7655 77.112V81H45.2435C45.1275 81 45.0395 80.982 44.9795 80.946C44.9195 80.906 44.8715 80.834 44.8355 80.73L44.7095 80.196C44.5535 80.34 44.3995 80.468 44.2475 80.58C44.0955 80.688 43.9355 80.782 43.7675 80.862C43.6035 80.938 43.4275 80.996 43.2395 81.036C43.0515 81.076 42.8435 81.096 42.6155 81.096C42.3755 81.096 42.1495 81.064 41.9375 81C41.7295 80.932 41.5475 80.83 41.3915 80.694C41.2355 80.558 41.1115 80.388 41.0195 80.184C40.9315 79.98 40.8875 79.742 40.8875 79.47C40.8875 79.23 40.9515 79 41.0795 78.78C41.2115 78.556 41.4235 78.356 41.7155 78.18C42.0115 78.004 42.3955 77.86 42.8675 77.748C43.3435 77.636 43.9275 77.572 44.6195 77.556V77.112C44.6195 76.652 44.5215 76.308 44.3255 76.08C44.1295 75.852 43.8415 75.738 43.4615 75.738C43.2055 75.738 42.9895 75.77 42.8135 75.834C42.6415 75.898 42.4915 75.97 42.3635 76.05C42.2395 76.126 42.1295 76.196 42.0335 76.26C41.9415 76.324 41.8455 76.356 41.7455 76.356C41.6655 76.356 41.5955 76.334 41.5355 76.29C41.4795 76.246 41.4335 76.194 41.3975 76.134L41.1875 75.756ZM51.2618 76.38C51.0698 76.128 50.8618 75.952 50.6378 75.852C50.4178 75.752 50.1698 75.702 49.8938 75.702C49.3578 75.702 48.9418 75.896 48.6458 76.284C48.3538 76.668 48.2078 77.23 48.2078 77.97C48.2078 78.358 48.2398 78.69 48.3038 78.966C48.3718 79.238 48.4678 79.462 48.5918 79.638C48.7198 79.81 48.8758 79.938 49.0598 80.022C49.2438 80.102 49.4518 80.142 49.6838 80.142C50.0238 80.142 50.3178 80.066 50.5658 79.914C50.8138 79.762 51.0458 79.548 51.2618 79.272V76.38ZM52.4378 72.144V81H51.7298C51.5658 81 51.4638 80.922 51.4238 80.766L51.3218 80.064C51.0618 80.372 50.7658 80.62 50.4338 80.808C50.1058 80.992 49.7258 81.084 49.2938 81.084C48.9458 81.084 48.6298 81.016 48.3458 80.88C48.0658 80.744 47.8258 80.546 47.6258 80.286C47.4258 80.022 47.2718 79.696 47.1638 79.308C47.0558 78.92 47.0018 78.474 47.0018 77.97C47.0018 77.518 47.0618 77.098 47.1818 76.71C47.3018 76.322 47.4758 75.986 47.7038 75.702C47.9318 75.418 48.2078 75.196 48.5318 75.036C48.8558 74.872 49.2218 74.79 49.6298 74.79C49.9978 74.79 50.3098 74.85 50.5658 74.97C50.8258 75.09 51.0578 75.26 51.2618 75.48V72.144H52.4378ZM59.7032 74.808C60.1512 74.808 60.5552 74.882 60.9152 75.03C61.2792 75.174 61.5872 75.384 61.8392 75.66C62.0952 75.932 62.2912 76.262 62.4272 76.65C62.5632 77.034 62.6312 77.466 62.6312 77.946C62.6312 78.426 62.5632 78.86 62.4272 79.248C62.2912 79.636 62.0952 79.966 61.8392 80.238C61.5872 80.51 61.2792 80.72 60.9152 80.868C60.5552 81.012 60.1512 81.084 59.7032 81.084C59.2512 81.084 58.8432 81.012 58.4792 80.868C58.1192 80.72 57.8112 80.51 57.5552 80.238C57.2992 79.966 57.1012 79.636 56.9612 79.248C56.8252 78.86 56.7572 78.426 56.7572 77.946C56.7572 77.466 56.8252 77.034 56.9612 76.65C57.1012 76.262 57.2992 75.932 57.5552 75.66C57.8112 75.384 58.1192 75.174 58.4792 75.03C58.8432 74.882 59.2512 74.808 59.7032 74.808ZM59.7032 80.172C60.2792 80.172 60.7092 79.978 60.9932 79.59C61.2772 79.202 61.4192 78.656 61.4192 77.952C61.4192 77.248 61.2772 76.702 60.9932 76.314C60.7092 75.922 60.2792 75.726 59.7032 75.726C59.1192 75.726 58.6832 75.922 58.3952 76.314C58.1112 76.702 57.9692 77.248 57.9692 77.952C57.9692 78.656 58.1112 79.202 58.3952 79.59C58.6832 79.978 59.1192 80.172 59.7032 80.172ZM65.0412 76.074C65.2372 75.674 65.4732 75.36 65.7492 75.132C66.0252 74.904 66.3572 74.79 66.7452 74.79C66.8772 74.79 67.0012 74.806 67.1172 74.838C67.2372 74.866 67.3412 74.91 67.4292 74.97L67.3512 75.852C67.3232 75.96 67.2572 76.014 67.1532 76.014C67.0972 76.014 67.0132 76.004 66.9012 75.984C66.7892 75.96 66.6692 75.948 66.5412 75.948C66.3532 75.948 66.1872 75.976 66.0432 76.032C65.8992 76.084 65.7692 76.164 65.6532 76.272C65.5412 76.376 65.4412 76.506 65.3532 76.662C65.2652 76.814 65.1832 76.988 65.1072 77.184V81H63.9372V74.904H64.6092C64.7372 74.904 64.8232 74.928 64.8672 74.976C64.9152 75.02 64.9492 75.1 64.9692 75.216L65.0412 76.074ZM75.0391 76.38C74.8471 76.128 74.6391 75.952 74.4151 75.852C74.1951 75.752 73.9471 75.702 73.6711 75.702C73.1351 75.702 72.7191 75.896 72.4231 76.284C72.1311 76.668 71.9851 77.23 71.9851 77.97C71.9851 78.358 72.0171 78.69 72.0811 78.966C72.1491 79.238 72.2451 79.462 72.3691 79.638C72.4971 79.81 72.6531 79.938 72.8371 80.022C73.0211 80.102 73.2291 80.142 73.4611 80.142C73.8011 80.142 74.0951 80.066 74.3431 79.914C74.5911 79.762 74.8231 79.548 75.0391 79.272V76.38ZM76.2151 72.144V81H75.5071C75.3431 81 75.2411 80.922 75.2011 80.766L75.0991 80.064C74.8391 80.372 74.5431 80.62 74.2111 80.808C73.8831 80.992 73.5031 81.084 73.0711 81.084C72.7231 81.084 72.4071 81.016 72.1231 80.88C71.8431 80.744 71.6031 80.546 71.4031 80.286C71.2031 80.022 71.0491 79.696 70.9411 79.308C70.8331 78.92 70.7791 78.474 70.7791 77.97C70.7791 77.518 70.8391 77.098 70.9591 76.71C71.0791 76.322 71.2531 75.986 71.4811 75.702C71.7091 75.418 71.9851 75.196 72.3091 75.036C72.6331 74.872 72.9991 74.79 73.4071 74.79C73.7751 74.79 74.0871 74.85 74.3431 74.97C74.6031 75.09 74.8351 75.26 75.0391 75.48V72.144H76.2151ZM78.9514 76.074C79.1474 75.674 79.3834 75.36 79.6594 75.132C79.9354 74.904 80.2674 74.79 80.6554 74.79C80.7874 74.79 80.9114 74.806 81.0274 74.838C81.1474 74.866 81.2514 74.91 81.3394 74.97L81.2614 75.852C81.2334 75.96 81.1674 76.014 81.0634 76.014C81.0074 76.014 80.9234 76.004 80.8114 75.984C80.6994 75.96 80.5794 75.948 80.4514 75.948C80.2634 75.948 80.0974 75.976 79.9534 76.032C79.8094 76.084 79.6794 76.164 79.5634 76.272C79.4514 76.376 79.3514 76.506 79.2634 76.662C79.1754 76.814 79.0934 76.988 79.0174 77.184V81H77.8474V74.904H78.5194C78.6474 74.904 78.7334 74.928 78.7774 74.976C78.8254 75.02 78.8594 75.1 78.8794 75.216L78.9514 76.074ZM85.4242 78.294C84.9482 78.31 84.5442 78.348 84.2122 78.408C83.8802 78.464 83.6102 78.54 83.4022 78.636C83.1942 78.732 83.0442 78.846 82.9522 78.978C82.8602 79.106 82.8142 79.25 82.8142 79.41C82.8142 79.562 82.8382 79.694 82.8862 79.806C82.9382 79.914 83.0062 80.004 83.0902 80.076C83.1782 80.144 83.2802 80.194 83.3962 80.226C83.5122 80.258 83.6382 80.274 83.7742 80.274C83.9542 80.274 84.1182 80.256 84.2662 80.22C84.4182 80.184 84.5602 80.134 84.6922 80.07C84.8242 80.002 84.9502 79.92 85.0702 79.824C85.1902 79.728 85.3082 79.618 85.4242 79.494V78.294ZM81.9922 75.756C82.3322 75.432 82.7002 75.19 83.0962 75.03C83.4962 74.87 83.9342 74.79 84.4102 74.79C84.7582 74.79 85.0662 74.848 85.3342 74.964C85.6022 75.076 85.8282 75.234 86.0122 75.438C86.1962 75.642 86.3342 75.886 86.4262 76.17C86.5222 76.454 86.5702 76.768 86.5702 77.112V81H86.0482C85.9322 81 85.8442 80.982 85.7842 80.946C85.7242 80.906 85.6762 80.834 85.6402 80.73L85.5142 80.196C85.3582 80.34 85.2042 80.468 85.0522 80.58C84.9002 80.688 84.7402 80.782 84.5722 80.862C84.4082 80.938 84.2322 80.996 84.0442 81.036C83.8562 81.076 83.6482 81.096 83.4202 81.096C83.1802 81.096 82.9542 81.064 82.7422 81C82.5342 80.932 82.3522 80.83 82.1962 80.694C82.0402 80.558 81.9162 80.388 81.8242 80.184C81.7362 79.98 81.6922 79.742 81.6922 79.47C81.6922 79.23 81.7562 79 81.8842 78.78C82.0162 78.556 82.2282 78.356 82.5202 78.18C82.8162 78.004 83.2002 77.86 83.6722 77.748C84.1482 77.636 84.7322 77.572 85.4242 77.556V77.112C85.4242 76.652 85.3262 76.308 85.1302 76.08C84.9342 75.852 84.6462 75.738 84.2662 75.738C84.0102 75.738 83.7942 75.77 83.6182 75.834C83.4462 75.898 83.2962 75.97 83.1682 76.05C83.0442 76.126 82.9342 76.196 82.8382 76.26C82.7462 76.324 82.6502 76.356 82.5502 76.356C82.4702 76.356 82.4002 76.334 82.3402 76.29C82.2842 76.246 82.2382 76.194 82.2022 76.134L81.9922 75.756ZM90.2785 77.958C90.4865 77.958 90.6685 77.93 90.8245 77.874C90.9845 77.818 91.1165 77.74 91.2205 77.64C91.3285 77.536 91.4085 77.412 91.4605 77.268C91.5165 77.124 91.5445 76.966 91.5445 76.794C91.5445 76.442 91.4365 76.162 91.2205 75.954C91.0085 75.742 90.6945 75.636 90.2785 75.636C89.8665 75.636 89.5525 75.742 89.3365 75.954C89.1245 76.162 89.0185 76.442 89.0185 76.794C89.0185 76.966 89.0445 77.124 89.0965 77.268C89.1525 77.408 89.2325 77.53 89.3365 77.634C89.4445 77.734 89.5765 77.814 89.7325 77.874C89.8925 77.93 90.0745 77.958 90.2785 77.958ZM92.1445 81.318C92.1445 81.174 92.1045 81.06 92.0245 80.976C91.9445 80.888 91.8345 80.82 91.6945 80.772C91.5585 80.72 91.3985 80.684 91.2145 80.664C91.0305 80.64 90.8365 80.622 90.6325 80.61C90.4325 80.598 90.2265 80.588 90.0145 80.58C89.8025 80.568 89.5985 80.548 89.4025 80.52C89.1945 80.624 89.0225 80.75 88.8865 80.898C88.7545 81.046 88.6885 81.22 88.6885 81.42C88.6885 81.548 88.7205 81.668 88.7845 81.78C88.8525 81.892 88.9545 81.988 89.0905 82.068C89.2305 82.152 89.4045 82.216 89.6125 82.26C89.8245 82.308 90.0765 82.332 90.3685 82.332C90.6565 82.332 90.9105 82.306 91.1305 82.254C91.3505 82.206 91.5345 82.136 91.6825 82.044C91.8345 81.956 91.9485 81.85 92.0245 81.726C92.1045 81.602 92.1445 81.466 92.1445 81.318ZM93.3325 75.132V75.57C93.3325 75.714 93.2425 75.804 93.0625 75.84L92.4085 75.936C92.4645 76.06 92.5085 76.192 92.5405 76.332C92.5725 76.468 92.5885 76.612 92.5885 76.764C92.5885 77.064 92.5305 77.336 92.4145 77.58C92.2985 77.82 92.1385 78.026 91.9345 78.198C91.7305 78.37 91.4865 78.502 91.2025 78.594C90.9225 78.686 90.6145 78.732 90.2785 78.732C90.0025 78.732 89.7445 78.702 89.5045 78.642C89.3845 78.714 89.2925 78.794 89.2285 78.882C89.1685 78.966 89.1385 79.05 89.1385 79.134C89.1385 79.274 89.1965 79.378 89.3125 79.446C89.4325 79.514 89.5865 79.564 89.7745 79.596C89.9665 79.624 90.1845 79.642 90.4285 79.65C90.6765 79.658 90.9265 79.672 91.1785 79.692C91.4345 79.708 91.6845 79.74 91.9285 79.788C92.1765 79.832 92.3945 79.906 92.5825 80.01C92.7745 80.11 92.9285 80.25 93.0445 80.43C93.1645 80.606 93.2245 80.836 93.2245 81.12C93.2245 81.384 93.1585 81.64 93.0265 81.888C92.8985 82.136 92.7105 82.356 92.4625 82.548C92.2145 82.74 91.9125 82.894 91.5565 83.01C91.2005 83.126 90.7965 83.184 90.3445 83.184C89.8925 83.184 89.4985 83.14 89.1625 83.052C88.8305 82.964 88.5525 82.846 88.3285 82.698C88.1085 82.55 87.9425 82.378 87.8305 82.182C87.7225 81.986 87.6685 81.782 87.6685 81.57C87.6685 81.274 87.7605 81.024 87.9445 80.82C88.1285 80.612 88.3825 80.45 88.7065 80.334C88.5305 80.254 88.3905 80.146 88.2865 80.01C88.1825 79.87 88.1305 79.686 88.1305 79.458C88.1305 79.37 88.1465 79.28 88.1785 79.188C88.2105 79.092 88.2585 78.998 88.3225 78.906C88.3905 78.81 88.4725 78.72 88.5685 78.636C88.6685 78.552 88.7825 78.476 88.9105 78.408C88.6105 78.24 88.3745 78.018 88.2025 77.742C88.0305 77.462 87.9445 77.136 87.9445 76.764C87.9445 76.464 88.0025 76.194 88.1185 75.954C88.2345 75.714 88.3945 75.508 88.5985 75.336C88.8065 75.164 89.0525 75.032 89.3365 74.94C89.6245 74.848 89.9385 74.802 90.2785 74.802C90.8065 74.802 91.2605 74.912 91.6405 75.132H93.3325ZM100.717 78.294C100.241 78.31 99.8371 78.348 99.5051 78.408C99.1731 78.464 98.9031 78.54 98.6951 78.636C98.4871 78.732 98.3371 78.846 98.2451 78.978C98.1531 79.106 98.1071 79.25 98.1071 79.41C98.1071 79.562 98.1311 79.694 98.1791 79.806C98.2311 79.914 98.2991 80.004 98.3831 80.076C98.4711 80.144 98.5731 80.194 98.6891 80.226C98.8051 80.258 98.9311 80.274 99.0671 80.274C99.2471 80.274 99.4111 80.256 99.5591 80.22C99.7111 80.184 99.8531 80.134 99.9851 80.07C100.117 80.002 100.243 79.92 100.363 79.824C100.483 79.728 100.601 79.618 100.717 79.494V78.294ZM97.2851 75.756C97.6251 75.432 97.9931 75.19 98.3891 75.03C98.7891 74.87 99.2271 74.79 99.7031 74.79C100.051 74.79 100.359 74.848 100.627 74.964C100.895 75.076 101.121 75.234 101.305 75.438C101.489 75.642 101.627 75.886 101.719 76.17C101.815 76.454 101.863 76.768 101.863 77.112V81H101.341C101.225 81 101.137 80.982 101.077 80.946C101.017 80.906 100.969 80.834 100.933 80.73L100.807 80.196C100.651 80.34 100.497 80.468 100.345 80.58C100.193 80.688 100.033 80.782 99.8651 80.862C99.7011 80.938 99.5251 80.996 99.3371 81.036C99.1491 81.076 98.9411 81.096 98.7131 81.096C98.4731 81.096 98.2471 81.064 98.0351 81C97.8271 80.932 97.6451 80.83 97.4891 80.694C97.3331 80.558 97.2091 80.388 97.1171 80.184C97.0291 79.98 96.9851 79.742 96.9851 79.47C96.9851 79.23 97.0491 79 97.1771 78.78C97.3091 78.556 97.5211 78.356 97.8131 78.18C98.1091 78.004 98.4931 77.86 98.9651 77.748C99.4411 77.636 100.025 77.572 100.717 77.556V77.112C100.717 76.652 100.619 76.308 100.423 76.08C100.227 75.852 99.9391 75.738 99.5591 75.738C99.3031 75.738 99.0871 75.77 98.9111 75.834C98.7391 75.898 98.5891 75.97 98.4611 76.05C98.3371 76.126 98.2271 76.196 98.1311 76.26C98.0391 76.324 97.9431 76.356 97.8431 76.356C97.7631 76.356 97.6931 76.334 97.6331 76.29C97.5771 76.246 97.5311 76.194 97.4951 76.134L97.2851 75.756ZM107.635 79.5C107.827 79.752 108.033 79.928 108.253 80.028C108.477 80.128 108.727 80.178 109.003 80.178C109.539 80.178 109.953 79.986 110.245 79.602C110.541 79.214 110.689 78.65 110.689 77.91C110.689 77.522 110.655 77.192 110.587 76.92C110.523 76.644 110.427 76.42 110.299 76.248C110.175 76.072 110.021 75.944 109.837 75.864C109.653 75.78 109.445 75.738 109.213 75.738C108.873 75.738 108.577 75.814 108.325 75.966C108.077 76.118 107.847 76.334 107.635 76.614V79.5ZM107.575 75.816C107.703 75.664 107.839 75.526 107.983 75.402C108.131 75.274 108.289 75.166 108.457 75.078C108.625 74.986 108.803 74.916 108.991 74.868C109.183 74.816 109.387 74.79 109.603 74.79C109.951 74.79 110.265 74.858 110.545 74.994C110.829 75.13 111.071 75.33 111.271 75.594C111.471 75.858 111.625 76.184 111.733 76.572C111.845 76.96 111.901 77.406 111.901 77.91C111.901 78.362 111.839 78.782 111.715 79.17C111.595 79.554 111.421 79.888 111.193 80.172C110.969 80.456 110.693 80.68 110.365 80.844C110.041 81.004 109.675 81.084 109.267 81.084C108.903 81.084 108.591 81.024 108.331 80.904C108.071 80.784 107.839 80.616 107.635 80.4V83.046H106.465V74.904H107.167C107.331 74.904 107.433 74.982 107.473 75.138L107.575 75.816ZM114.385 75.678C114.641 75.418 114.923 75.208 115.231 75.048C115.543 74.888 115.901 74.808 116.305 74.808C116.641 74.808 116.935 74.864 117.187 74.976C117.443 75.088 117.657 75.246 117.829 75.45C118.001 75.65 118.131 75.892 118.219 76.176C118.307 76.46 118.351 76.774 118.351 77.118V81H117.175V77.118C117.175 76.682 117.075 76.344 116.875 76.104C116.675 75.86 116.369 75.738 115.957 75.738C115.657 75.738 115.375 75.81 115.111 75.954C114.851 76.094 114.609 76.286 114.385 76.53V81H113.215V72.144H114.385V75.678ZM122.527 74.808C122.975 74.808 123.379 74.882 123.739 75.03C124.103 75.174 124.411 75.384 124.663 75.66C124.919 75.932 125.115 76.262 125.251 76.65C125.387 77.034 125.455 77.466 125.455 77.946C125.455 78.426 125.387 78.86 125.251 79.248C125.115 79.636 124.919 79.966 124.663 80.238C124.411 80.51 124.103 80.72 123.739 80.868C123.379 81.012 122.975 81.084 122.527 81.084C122.075 81.084 121.667 81.012 121.303 80.868C120.943 80.72 120.635 80.51 120.379 80.238C120.123 79.966 119.925 79.636 119.785 79.248C119.649 78.86 119.581 78.426 119.581 77.946C119.581 77.466 119.649 77.034 119.785 76.65C119.925 76.262 120.123 75.932 120.379 75.66C120.635 75.384 120.943 75.174 121.303 75.03C121.667 74.882 122.075 74.808 122.527 74.808ZM122.527 80.172C123.103 80.172 123.533 79.978 123.817 79.59C124.101 79.202 124.243 78.656 124.243 77.952C124.243 77.248 124.101 76.702 123.817 76.314C123.533 75.922 123.103 75.726 122.527 75.726C121.943 75.726 121.507 75.922 121.219 76.314C120.935 76.702 120.793 77.248 120.793 77.952C120.793 78.656 120.935 79.202 121.219 79.59C121.507 79.978 121.943 80.172 122.527 80.172ZM128.552 81.096C128.06 81.096 127.68 80.958 127.412 80.682C127.148 80.406 127.016 80.012 127.016 79.5V75.852H126.308C126.24 75.852 126.182 75.832 126.134 75.792C126.09 75.748 126.068 75.684 126.068 75.6V75.126L127.058 74.988L127.322 73.17C127.338 73.102 127.368 73.05 127.412 73.014C127.46 72.974 127.52 72.954 127.592 72.954H128.186V75H129.914V75.852H128.186V79.422C128.186 79.662 128.244 79.842 128.36 79.962C128.48 80.078 128.632 80.136 128.816 80.136C128.924 80.136 129.016 80.122 129.092 80.094C129.172 80.066 129.24 80.036 129.296 80.004C129.352 79.968 129.4 79.936 129.44 79.908C129.48 79.88 129.516 79.866 129.548 79.866C129.588 79.866 129.618 79.876 129.638 79.896C129.662 79.912 129.686 79.94 129.71 79.98L130.058 80.544C129.866 80.72 129.638 80.856 129.374 80.952C129.11 81.048 128.836 81.096 128.552 81.096ZM133.555 74.808C134.003 74.808 134.407 74.882 134.767 75.03C135.131 75.174 135.439 75.384 135.691 75.66C135.947 75.932 136.143 76.262 136.279 76.65C136.415 77.034 136.483 77.466 136.483 77.946C136.483 78.426 136.415 78.86 136.279 79.248C136.143 79.636 135.947 79.966 135.691 80.238C135.439 80.51 135.131 80.72 134.767 80.868C134.407 81.012 134.003 81.084 133.555 81.084C133.103 81.084 132.695 81.012 132.331 80.868C131.971 80.72 131.663 80.51 131.407 80.238C131.151 79.966 130.953 79.636 130.813 79.248C130.677 78.86 130.609 78.426 130.609 77.946C130.609 77.466 130.677 77.034 130.813 76.65C130.953 76.262 131.151 75.932 131.407 75.66C131.663 75.384 131.971 75.174 132.331 75.03C132.695 74.882 133.103 74.808 133.555 74.808ZM133.555 80.172C134.131 80.172 134.561 79.978 134.845 79.59C135.129 79.202 135.271 78.656 135.271 77.952C135.271 77.248 135.129 76.702 134.845 76.314C134.561 75.922 134.131 75.726 133.555 75.726C132.971 75.726 132.535 75.922 132.247 76.314C131.963 76.702 131.821 77.248 131.821 77.952C131.821 78.656 131.963 79.202 132.247 79.59C132.535 79.978 132.971 80.172 133.555 80.172ZM141.994 75.678C142.25 75.418 142.532 75.208 142.84 75.048C143.152 74.888 143.51 74.808 143.914 74.808C144.25 74.808 144.544 74.864 144.796 74.976C145.052 75.088 145.266 75.246 145.438 75.45C145.61 75.65 145.74 75.892 145.828 76.176C145.916 76.46 145.96 76.774 145.96 77.118V81H144.784V77.118C144.784 76.682 144.684 76.344 144.484 76.104C144.284 75.86 143.978 75.738 143.566 75.738C143.266 75.738 142.984 75.81 142.72 75.954C142.46 76.094 142.218 76.286 141.994 76.53V81H140.824V72.144H141.994V75.678ZM151.577 77.274C151.577 77.042 151.543 76.828 151.475 76.632C151.411 76.436 151.315 76.266 151.187 76.122C151.059 75.978 150.903 75.866 150.719 75.786C150.535 75.706 150.323 75.666 150.083 75.666C149.591 75.666 149.203 75.808 148.919 76.092C148.639 76.376 148.461 76.77 148.385 77.274H151.577ZM152.543 80.13C152.399 80.298 152.233 80.444 152.045 80.568C151.857 80.688 151.657 80.786 151.445 80.862C151.233 80.938 151.013 80.994 150.785 81.03C150.561 81.066 150.339 81.084 150.119 81.084C149.699 81.084 149.309 81.014 148.949 80.874C148.593 80.73 148.283 80.522 148.019 80.25C147.759 79.974 147.555 79.634 147.407 79.23C147.263 78.822 147.191 78.354 147.191 77.826C147.191 77.402 147.257 77.008 147.389 76.644C147.521 76.276 147.709 75.956 147.953 75.684C148.201 75.412 148.503 75.198 148.859 75.042C149.215 74.886 149.615 74.808 150.059 74.808C150.431 74.808 150.773 74.87 151.085 74.994C151.401 75.114 151.673 75.29 151.901 75.522C152.129 75.754 152.307 76.04 152.435 76.38C152.567 76.72 152.633 77.108 152.633 77.544C152.633 77.724 152.613 77.846 152.573 77.91C152.533 77.97 152.459 78 152.351 78H148.355C148.367 78.364 148.419 78.682 148.511 78.954C148.603 79.222 148.729 79.446 148.889 79.626C149.053 79.806 149.247 79.94 149.471 80.028C149.695 80.116 149.945 80.16 150.221 80.16C150.481 80.16 150.705 80.13 150.893 80.07C151.085 80.01 151.249 79.946 151.385 79.878C151.525 79.806 151.641 79.74 151.733 79.68C151.829 79.62 151.913 79.59 151.985 79.59C152.081 79.59 152.155 79.626 152.207 79.698L152.543 80.13ZM154.994 76.074C155.19 75.674 155.426 75.36 155.702 75.132C155.978 74.904 156.31 74.79 156.698 74.79C156.83 74.79 156.954 74.806 157.07 74.838C157.19 74.866 157.294 74.91 157.382 74.97L157.304 75.852C157.276 75.96 157.21 76.014 157.106 76.014C157.05 76.014 156.966 76.004 156.854 75.984C156.742 75.96 156.622 75.948 156.494 75.948C156.306 75.948 156.14 75.976 155.996 76.032C155.852 76.084 155.722 76.164 155.606 76.272C155.494 76.376 155.394 76.506 155.306 76.662C155.218 76.814 155.136 76.988 155.06 77.184V81H153.89V74.904H154.562C154.69 74.904 154.776 74.928 154.82 74.976C154.868 75.02 154.902 75.1 154.922 75.216L154.994 76.074ZM162.1 77.274C162.1 77.042 162.066 76.828 161.998 76.632C161.934 76.436 161.838 76.266 161.71 76.122C161.582 75.978 161.426 75.866 161.242 75.786C161.058 75.706 160.846 75.666 160.606 75.666C160.114 75.666 159.726 75.808 159.442 76.092C159.162 76.376 158.984 76.77 158.908 77.274H162.1ZM163.066 80.13C162.922 80.298 162.756 80.444 162.568 80.568C162.38 80.688 162.18 80.786 161.968 80.862C161.756 80.938 161.536 80.994 161.308 81.03C161.084 81.066 160.862 81.084 160.642 81.084C160.222 81.084 159.832 81.014 159.472 80.874C159.116 80.73 158.806 80.522 158.542 80.25C158.282 79.974 158.078 79.634 157.93 79.23C157.786 78.822 157.714 78.354 157.714 77.826C157.714 77.402 157.78 77.008 157.912 76.644C158.044 76.276 158.232 75.956 158.476 75.684C158.724 75.412 159.026 75.198 159.382 75.042C159.738 74.886 160.138 74.808 160.582 74.808C160.954 74.808 161.296 74.87 161.608 74.994C161.924 75.114 162.196 75.29 162.424 75.522C162.652 75.754 162.83 76.04 162.958 76.38C163.09 76.72 163.156 77.108 163.156 77.544C163.156 77.724 163.136 77.846 163.096 77.91C163.056 77.97 162.982 78 162.874 78H158.878C158.89 78.364 158.942 78.682 159.034 78.954C159.126 79.222 159.252 79.446 159.412 79.626C159.576 79.806 159.77 79.94 159.994 80.028C160.218 80.116 160.468 80.16 160.744 80.16C161.004 80.16 161.228 80.13 161.416 80.07C161.608 80.01 161.772 79.946 161.908 79.878C162.048 79.806 162.164 79.74 162.256 79.68C162.352 79.62 162.436 79.59 162.508 79.59C162.604 79.59 162.678 79.626 162.73 79.698L163.066 80.13Z" fill="black"/>
</g>
<defs>
<clipPath id="clip0_67_1512">
<rect width="34" height="34" fill="white" transform="translate(73 21)"/>
</clipPath>
</defs>
</svg>
