<svg width="160" height="160" viewBox="0 0 160 160" fill="none" xmlns="http://www.w3.org/2000/svg">
<circle cx="80" cy="80" r="79.5" fill="#2D927E" fill-opacity="0.05" stroke="#2D927E" stroke-dasharray="4 4"/>
<g opacity="0.5">
<g clip-path="url(#clip0_135_2628)">
<path d="M71.3951 70.3412C68.8603 70.3412 66.6055 68.7182 65.7868 66.3019L65.7314 66.1199C65.5383 65.48 65.4575 64.9419 65.4575 64.4035V53.6079L61.6162 66.4301C61.1222 68.316 62.248 70.2713 64.1368 70.7923L88.6206 77.3492C88.9262 77.4284 89.2318 77.4663 89.5327 77.4663C91.1096 77.4663 92.5506 76.4197 92.9544 74.8773L94.3809 70.3412H71.3951Z" fill="black"/>
<path d="M75.7495 53.7155C77.496 53.7155 78.916 52.2952 78.916 50.5487C78.916 48.8022 77.496 47.3818 75.7495 47.3818C74.003 47.3818 72.5826 48.8022 72.5826 50.5487C72.5826 52.2952 74.003 53.7155 75.7495 53.7155Z" fill="black"/>
<path d="M95.5414 42.6318H71.7909C69.6092 42.6318 67.8325 44.4085 67.8325 46.5905V64.0074C67.8325 66.1893 69.6092 67.966 71.7909 67.966H95.5414C97.7234 67.966 99.5001 66.1893 99.5001 64.0074V46.5905C99.5001 44.4085 97.7234 42.6318 95.5414 42.6318ZM71.7909 45.7987H95.5414C95.9786 45.7987 96.3332 46.1533 96.3332 46.5905V57.8308L91.3314 51.9944C90.8009 51.3722 90.0329 51.0396 89.208 51.0208C88.3878 51.0254 87.6184 51.3896 87.0928 52.0199L81.2119 59.0784L79.2961 57.1672C78.2133 56.0843 76.4508 56.0843 75.3694 57.1672L70.9994 61.5358V46.5905C70.9994 46.1533 71.3539 45.7987 71.7909 45.7987Z" fill="black"/>
</g>
<path d="M39.8048 101.974C40.1488 101.974 40.4568 101.916 40.7288 101.8C41.0008 101.684 41.2308 101.522 41.4188 101.314C41.6068 101.102 41.7508 100.852 41.8508 100.564C41.9508 100.272 42.0008 99.95 42.0008 99.598V94.384H43.2728V99.598C43.2728 100.102 43.1928 100.568 43.0328 100.996C42.8728 101.424 42.6428 101.794 42.3428 102.106C42.0428 102.418 41.6788 102.662 41.2508 102.838C40.8228 103.014 40.3408 103.102 39.8048 103.102C39.2688 103.102 38.7868 103.014 38.3588 102.838C37.9308 102.662 37.5668 102.418 37.2668 102.106C36.9668 101.794 36.7368 101.424 36.5768 100.996C36.4168 100.568 36.3368 100.102 36.3368 99.598V94.384H37.6148V99.592C37.6148 99.944 37.6628 100.266 37.7588 100.558C37.8588 100.85 38.0028 101.102 38.1908 101.314C38.3788 101.522 38.6088 101.684 38.8808 101.8C39.1528 101.916 39.4608 101.974 39.8048 101.974ZM46.035 101.5C46.227 101.752 46.433 101.928 46.653 102.028C46.877 102.128 47.127 102.178 47.403 102.178C47.939 102.178 48.353 101.986 48.645 101.602C48.941 101.214 49.089 100.65 49.089 99.91C49.089 99.522 49.055 99.192 48.987 98.92C48.923 98.644 48.827 98.42 48.699 98.248C48.575 98.072 48.421 97.944 48.237 97.864C48.053 97.78 47.845 97.738 47.613 97.738C47.273 97.738 46.977 97.814 46.725 97.966C46.477 98.118 46.247 98.334 46.035 98.614V101.5ZM45.975 97.816C46.103 97.664 46.239 97.526 46.383 97.402C46.531 97.274 46.689 97.166 46.857 97.078C47.025 96.986 47.203 96.916 47.391 96.868C47.583 96.816 47.787 96.79 48.003 96.79C48.351 96.79 48.665 96.858 48.945 96.994C49.229 97.13 49.471 97.33 49.671 97.594C49.871 97.858 50.025 98.184 50.133 98.572C50.245 98.96 50.301 99.406 50.301 99.91C50.301 100.362 50.239 100.782 50.115 101.17C49.995 101.554 49.821 101.888 49.593 102.172C49.369 102.456 49.093 102.68 48.765 102.844C48.441 103.004 48.075 103.084 47.667 103.084C47.303 103.084 46.991 103.024 46.731 102.904C46.471 102.784 46.239 102.616 46.035 102.4V105.046H44.865V96.904H45.567C45.731 96.904 45.833 96.982 45.873 97.138L45.975 97.816ZM52.815 94.144V103H51.639V94.144H52.815ZM57.0841 96.808C57.5321 96.808 57.9361 96.882 58.2961 97.03C58.6601 97.174 58.9681 97.384 59.2201 97.66C59.4761 97.932 59.6721 98.262 59.8081 98.65C59.9441 99.034 60.0121 99.466 60.0121 99.946C60.0121 100.426 59.9441 100.86 59.8081 101.248C59.6721 101.636 59.4761 101.966 59.2201 102.238C58.9681 102.51 58.6601 102.72 58.2961 102.868C57.9361 103.012 57.5321 103.084 57.0841 103.084C56.6321 103.084 56.2241 103.012 55.8601 102.868C55.5001 102.72 55.1921 102.51 54.9361 102.238C54.6801 101.966 54.4821 101.636 54.3421 101.248C54.2061 100.86 54.1381 100.426 54.1381 99.946C54.1381 99.466 54.2061 99.034 54.3421 98.65C54.4821 98.262 54.6801 97.932 54.9361 97.66C55.1921 97.384 55.5001 97.174 55.8601 97.03C56.2241 96.882 56.6321 96.808 57.0841 96.808ZM57.0841 102.172C57.6601 102.172 58.0901 101.978 58.3741 101.59C58.6581 101.202 58.8001 100.656 58.8001 99.952C58.8001 99.248 58.6581 98.702 58.3741 98.314C58.0901 97.922 57.6601 97.726 57.0841 97.726C56.5001 97.726 56.0641 97.922 55.7761 98.314C55.4921 98.702 55.3501 99.248 55.3501 99.952C55.3501 100.656 55.4921 101.202 55.7761 101.59C56.0641 101.978 56.5001 102.172 57.0841 102.172ZM64.5941 100.294C64.1181 100.31 63.7141 100.348 63.3821 100.408C63.0501 100.464 62.7801 100.54 62.5721 100.636C62.3641 100.732 62.2141 100.846 62.1221 100.978C62.0301 101.106 61.9841 101.25 61.9841 101.41C61.9841 101.562 62.0081 101.694 62.0561 101.806C62.1081 101.914 62.1761 102.004 62.2601 102.076C62.3481 102.144 62.4501 102.194 62.5661 102.226C62.6821 102.258 62.8081 102.274 62.9441 102.274C63.1241 102.274 63.2881 102.256 63.4361 102.22C63.5881 102.184 63.7301 102.134 63.8621 102.07C63.9941 102.002 64.1201 101.92 64.2401 101.824C64.3601 101.728 64.4781 101.618 64.5941 101.494V100.294ZM61.1621 97.756C61.5021 97.432 61.8701 97.19 62.2661 97.03C62.6661 96.87 63.1041 96.79 63.5801 96.79C63.9281 96.79 64.2361 96.848 64.5041 96.964C64.7721 97.076 64.9981 97.234 65.1821 97.438C65.3661 97.642 65.5041 97.886 65.5961 98.17C65.6921 98.454 65.7401 98.768 65.7401 99.112V103H65.2181C65.1021 103 65.0141 102.982 64.9541 102.946C64.8941 102.906 64.8461 102.834 64.8101 102.73L64.6841 102.196C64.5281 102.34 64.3741 102.468 64.2221 102.58C64.0701 102.688 63.9101 102.782 63.7421 102.862C63.5781 102.938 63.4021 102.996 63.2141 103.036C63.0261 103.076 62.8181 103.096 62.5901 103.096C62.3501 103.096 62.1241 103.064 61.9121 103C61.7041 102.932 61.5221 102.83 61.3661 102.694C61.2101 102.558 61.0861 102.388 60.9941 102.184C60.9061 101.98 60.8621 101.742 60.8621 101.47C60.8621 101.23 60.9261 101 61.0541 100.78C61.1861 100.556 61.3981 100.356 61.6901 100.18C61.9861 100.004 62.3701 99.86 62.8421 99.748C63.3181 99.636 63.9021 99.572 64.5941 99.556V99.112C64.5941 98.652 64.4961 98.308 64.3001 98.08C64.1041 97.852 63.8161 97.738 63.4361 97.738C63.1801 97.738 62.9641 97.77 62.7881 97.834C62.6161 97.898 62.4661 97.97 62.3381 98.05C62.2141 98.126 62.1041 98.196 62.0081 98.26C61.9161 98.324 61.8201 98.356 61.7201 98.356C61.6401 98.356 61.5701 98.334 61.5101 98.29C61.4541 98.246 61.4081 98.194 61.3721 98.134L61.1621 97.756ZM71.2364 98.38C71.0444 98.128 70.8364 97.952 70.6124 97.852C70.3924 97.752 70.1444 97.702 69.8684 97.702C69.3324 97.702 68.9164 97.896 68.6204 98.284C68.3284 98.668 68.1824 99.23 68.1824 99.97C68.1824 100.358 68.2144 100.69 68.2784 100.966C68.3464 101.238 68.4424 101.462 68.5664 101.638C68.6944 101.81 68.8504 101.938 69.0344 102.022C69.2184 102.102 69.4264 102.142 69.6584 102.142C69.9984 102.142 70.2924 102.066 70.5404 101.914C70.7884 101.762 71.0204 101.548 71.2364 101.272V98.38ZM72.4124 94.144V103H71.7044C71.5404 103 71.4384 102.922 71.3984 102.766L71.2964 102.064C71.0364 102.372 70.7404 102.62 70.4084 102.808C70.0804 102.992 69.7004 103.084 69.2684 103.084C68.9204 103.084 68.6044 103.016 68.3204 102.88C68.0404 102.744 67.8004 102.546 67.6004 102.286C67.4004 102.022 67.2464 101.696 67.1384 101.308C67.0304 100.92 66.9764 100.474 66.9764 99.97C66.9764 99.518 67.0364 99.098 67.1564 98.71C67.2764 98.322 67.4504 97.986 67.6784 97.702C67.9064 97.418 68.1824 97.196 68.5064 97.036C68.8304 96.872 69.1964 96.79 69.6044 96.79C69.9724 96.79 70.2844 96.85 70.5404 96.97C70.8004 97.09 71.0324 97.26 71.2364 97.48V94.144H72.4124ZM79.6778 96.808C80.1258 96.808 80.5298 96.882 80.8898 97.03C81.2538 97.174 81.5618 97.384 81.8138 97.66C82.0698 97.932 82.2658 98.262 82.4018 98.65C82.5378 99.034 82.6058 99.466 82.6058 99.946C82.6058 100.426 82.5378 100.86 82.4018 101.248C82.2658 101.636 82.0698 101.966 81.8138 102.238C81.5618 102.51 81.2538 102.72 80.8898 102.868C80.5298 103.012 80.1258 103.084 79.6778 103.084C79.2258 103.084 78.8178 103.012 78.4538 102.868C78.0938 102.72 77.7858 102.51 77.5298 102.238C77.2738 101.966 77.0758 101.636 76.9358 101.248C76.7998 100.86 76.7318 100.426 76.7318 99.946C76.7318 99.466 76.7998 99.034 76.9358 98.65C77.0758 98.262 77.2738 97.932 77.5298 97.66C77.7858 97.384 78.0938 97.174 78.4538 97.03C78.8178 96.882 79.2258 96.808 79.6778 96.808ZM79.6778 102.172C80.2538 102.172 80.6838 101.978 80.9678 101.59C81.2518 101.202 81.3938 100.656 81.3938 99.952C81.3938 99.248 81.2518 98.702 80.9678 98.314C80.6838 97.922 80.2538 97.726 79.6778 97.726C79.0938 97.726 78.6578 97.922 78.3698 98.314C78.0858 98.702 77.9438 99.248 77.9438 99.952C77.9438 100.656 78.0858 101.202 78.3698 101.59C78.6578 101.978 79.0938 102.172 79.6778 102.172ZM85.0158 98.074C85.2118 97.674 85.4478 97.36 85.7238 97.132C85.9998 96.904 86.3318 96.79 86.7198 96.79C86.8518 96.79 86.9758 96.806 87.0918 96.838C87.2118 96.866 87.3158 96.91 87.4038 96.97L87.3258 97.852C87.2978 97.96 87.2318 98.014 87.1278 98.014C87.0718 98.014 86.9878 98.004 86.8758 97.984C86.7638 97.96 86.6438 97.948 86.5158 97.948C86.3278 97.948 86.1618 97.976 86.0178 98.032C85.8738 98.084 85.7438 98.164 85.6278 98.272C85.5158 98.376 85.4158 98.506 85.3278 98.662C85.2398 98.814 85.1578 98.988 85.0818 99.184V103H83.9118V96.904H84.5838C84.7118 96.904 84.7978 96.928 84.8418 96.976C84.8898 97.02 84.9238 97.1 84.9438 97.216L85.0158 98.074ZM95.0137 98.38C94.8217 98.128 94.6137 97.952 94.3897 97.852C94.1697 97.752 93.9217 97.702 93.6457 97.702C93.1097 97.702 92.6937 97.896 92.3977 98.284C92.1057 98.668 91.9597 99.23 91.9597 99.97C91.9597 100.358 91.9917 100.69 92.0557 100.966C92.1237 101.238 92.2197 101.462 92.3437 101.638C92.4717 101.81 92.6277 101.938 92.8117 102.022C92.9957 102.102 93.2037 102.142 93.4357 102.142C93.7757 102.142 94.0697 102.066 94.3177 101.914C94.5657 101.762 94.7977 101.548 95.0137 101.272V98.38ZM96.1897 94.144V103H95.4817C95.3177 103 95.2157 102.922 95.1757 102.766L95.0737 102.064C94.8137 102.372 94.5177 102.62 94.1857 102.808C93.8577 102.992 93.4777 103.084 93.0457 103.084C92.6977 103.084 92.3817 103.016 92.0977 102.88C91.8177 102.744 91.5777 102.546 91.3777 102.286C91.1777 102.022 91.0237 101.696 90.9157 101.308C90.8077 100.92 90.7537 100.474 90.7537 99.97C90.7537 99.518 90.8137 99.098 90.9337 98.71C91.0537 98.322 91.2277 97.986 91.4557 97.702C91.6837 97.418 91.9597 97.196 92.2837 97.036C92.6077 96.872 92.9737 96.79 93.3817 96.79C93.7497 96.79 94.0617 96.85 94.3177 96.97C94.5777 97.09 94.8097 97.26 95.0137 97.48V94.144H96.1897ZM98.926 98.074C99.122 97.674 99.358 97.36 99.634 97.132C99.91 96.904 100.242 96.79 100.63 96.79C100.762 96.79 100.886 96.806 101.002 96.838C101.122 96.866 101.226 96.91 101.314 96.97L101.236 97.852C101.208 97.96 101.142 98.014 101.038 98.014C100.982 98.014 100.898 98.004 100.786 97.984C100.674 97.96 100.554 97.948 100.426 97.948C100.238 97.948 100.072 97.976 99.928 98.032C99.784 98.084 99.654 98.164 99.538 98.272C99.426 98.376 99.326 98.506 99.238 98.662C99.15 98.814 99.068 98.988 98.992 99.184V103H97.822V96.904H98.494C98.622 96.904 98.708 96.928 98.752 96.976C98.8 97.02 98.834 97.1 98.854 97.216L98.926 98.074ZM105.399 100.294C104.923 100.31 104.519 100.348 104.187 100.408C103.855 100.464 103.585 100.54 103.377 100.636C103.169 100.732 103.019 100.846 102.927 100.978C102.835 101.106 102.789 101.25 102.789 101.41C102.789 101.562 102.813 101.694 102.861 101.806C102.913 101.914 102.981 102.004 103.065 102.076C103.153 102.144 103.255 102.194 103.371 102.226C103.487 102.258 103.613 102.274 103.749 102.274C103.929 102.274 104.093 102.256 104.241 102.22C104.393 102.184 104.535 102.134 104.667 102.07C104.799 102.002 104.925 101.92 105.045 101.824C105.165 101.728 105.283 101.618 105.399 101.494V100.294ZM101.967 97.756C102.307 97.432 102.675 97.19 103.071 97.03C103.471 96.87 103.909 96.79 104.385 96.79C104.733 96.79 105.041 96.848 105.309 96.964C105.577 97.076 105.803 97.234 105.987 97.438C106.171 97.642 106.309 97.886 106.401 98.17C106.497 98.454 106.545 98.768 106.545 99.112V103H106.023C105.907 103 105.819 102.982 105.759 102.946C105.699 102.906 105.651 102.834 105.615 102.73L105.489 102.196C105.333 102.34 105.179 102.468 105.027 102.58C104.875 102.688 104.715 102.782 104.547 102.862C104.383 102.938 104.207 102.996 104.019 103.036C103.831 103.076 103.623 103.096 103.395 103.096C103.155 103.096 102.929 103.064 102.717 103C102.509 102.932 102.327 102.83 102.171 102.694C102.015 102.558 101.891 102.388 101.799 102.184C101.711 101.98 101.667 101.742 101.667 101.47C101.667 101.23 101.731 101 101.859 100.78C101.991 100.556 102.203 100.356 102.495 100.18C102.791 100.004 103.175 99.86 103.647 99.748C104.123 99.636 104.707 99.572 105.399 99.556V99.112C105.399 98.652 105.301 98.308 105.105 98.08C104.909 97.852 104.621 97.738 104.241 97.738C103.985 97.738 103.769 97.77 103.593 97.834C103.421 97.898 103.271 97.97 103.143 98.05C103.019 98.126 102.909 98.196 102.813 98.26C102.721 98.324 102.625 98.356 102.525 98.356C102.445 98.356 102.375 98.334 102.315 98.29C102.259 98.246 102.213 98.194 102.177 98.134L101.967 97.756ZM110.253 99.958C110.461 99.958 110.643 99.93 110.799 99.874C110.959 99.818 111.091 99.74 111.195 99.64C111.303 99.536 111.383 99.412 111.435 99.268C111.491 99.124 111.519 98.966 111.519 98.794C111.519 98.442 111.411 98.162 111.195 97.954C110.983 97.742 110.669 97.636 110.253 97.636C109.841 97.636 109.527 97.742 109.311 97.954C109.099 98.162 108.993 98.442 108.993 98.794C108.993 98.966 109.019 99.124 109.071 99.268C109.127 99.408 109.207 99.53 109.311 99.634C109.419 99.734 109.551 99.814 109.707 99.874C109.867 99.93 110.049 99.958 110.253 99.958ZM112.119 103.318C112.119 103.174 112.079 103.06 111.999 102.976C111.919 102.888 111.809 102.82 111.669 102.772C111.533 102.72 111.373 102.684 111.189 102.664C111.005 102.64 110.811 102.622 110.607 102.61C110.407 102.598 110.201 102.588 109.989 102.58C109.777 102.568 109.573 102.548 109.377 102.52C109.169 102.624 108.997 102.75 108.861 102.898C108.729 103.046 108.663 103.22 108.663 103.42C108.663 103.548 108.695 103.668 108.759 103.78C108.827 103.892 108.929 103.988 109.065 104.068C109.205 104.152 109.379 104.216 109.587 104.26C109.799 104.308 110.051 104.332 110.343 104.332C110.631 104.332 110.885 104.306 111.105 104.254C111.325 104.206 111.509 104.136 111.657 104.044C111.809 103.956 111.923 103.85 111.999 103.726C112.079 103.602 112.119 103.466 112.119 103.318ZM113.307 97.132V97.57C113.307 97.714 113.217 97.804 113.037 97.84L112.383 97.936C112.439 98.06 112.483 98.192 112.515 98.332C112.547 98.468 112.563 98.612 112.563 98.764C112.563 99.064 112.505 99.336 112.389 99.58C112.273 99.82 112.113 100.026 111.909 100.198C111.705 100.37 111.461 100.502 111.177 100.594C110.897 100.686 110.589 100.732 110.253 100.732C109.977 100.732 109.719 100.702 109.479 100.642C109.359 100.714 109.267 100.794 109.203 100.882C109.143 100.966 109.113 101.05 109.113 101.134C109.113 101.274 109.171 101.378 109.287 101.446C109.407 101.514 109.561 101.564 109.749 101.596C109.941 101.624 110.159 101.642 110.403 101.65C110.651 101.658 110.901 101.672 111.153 101.692C111.409 101.708 111.659 101.74 111.903 101.788C112.151 101.832 112.369 101.906 112.557 102.01C112.749 102.11 112.903 102.25 113.019 102.43C113.139 102.606 113.199 102.836 113.199 103.12C113.199 103.384 113.133 103.64 113.001 103.888C112.873 104.136 112.685 104.356 112.437 104.548C112.189 104.74 111.887 104.894 111.531 105.01C111.175 105.126 110.771 105.184 110.319 105.184C109.867 105.184 109.473 105.14 109.137 105.052C108.805 104.964 108.527 104.846 108.303 104.698C108.083 104.55 107.917 104.378 107.805 104.182C107.697 103.986 107.643 103.782 107.643 103.57C107.643 103.274 107.735 103.024 107.919 102.82C108.103 102.612 108.357 102.45 108.681 102.334C108.505 102.254 108.365 102.146 108.261 102.01C108.157 101.87 108.105 101.686 108.105 101.458C108.105 101.37 108.121 101.28 108.153 101.188C108.185 101.092 108.233 100.998 108.297 100.906C108.365 100.81 108.447 100.72 108.543 100.636C108.643 100.552 108.757 100.476 108.885 100.408C108.585 100.24 108.349 100.018 108.177 99.742C108.005 99.462 107.919 99.136 107.919 98.764C107.919 98.464 107.977 98.194 108.093 97.954C108.209 97.714 108.369 97.508 108.573 97.336C108.781 97.164 109.027 97.032 109.311 96.94C109.599 96.848 109.913 96.802 110.253 96.802C110.781 96.802 111.235 96.912 111.615 97.132H113.307ZM120.692 100.294C120.216 100.31 119.812 100.348 119.48 100.408C119.148 100.464 118.878 100.54 118.67 100.636C118.462 100.732 118.312 100.846 118.22 100.978C118.128 101.106 118.082 101.25 118.082 101.41C118.082 101.562 118.106 101.694 118.154 101.806C118.206 101.914 118.274 102.004 118.358 102.076C118.446 102.144 118.548 102.194 118.664 102.226C118.78 102.258 118.906 102.274 119.042 102.274C119.222 102.274 119.386 102.256 119.534 102.22C119.686 102.184 119.828 102.134 119.96 102.07C120.092 102.002 120.218 101.92 120.338 101.824C120.458 101.728 120.576 101.618 120.692 101.494V100.294ZM117.26 97.756C117.6 97.432 117.968 97.19 118.364 97.03C118.764 96.87 119.202 96.79 119.678 96.79C120.026 96.79 120.334 96.848 120.602 96.964C120.87 97.076 121.096 97.234 121.28 97.438C121.464 97.642 121.602 97.886 121.694 98.17C121.79 98.454 121.838 98.768 121.838 99.112V103H121.316C121.2 103 121.112 102.982 121.052 102.946C120.992 102.906 120.944 102.834 120.908 102.73L120.782 102.196C120.626 102.34 120.472 102.468 120.32 102.58C120.168 102.688 120.008 102.782 119.84 102.862C119.676 102.938 119.5 102.996 119.312 103.036C119.124 103.076 118.916 103.096 118.688 103.096C118.448 103.096 118.222 103.064 118.01 103C117.802 102.932 117.62 102.83 117.464 102.694C117.308 102.558 117.184 102.388 117.092 102.184C117.004 101.98 116.96 101.742 116.96 101.47C116.96 101.23 117.024 101 117.152 100.78C117.284 100.556 117.496 100.356 117.788 100.18C118.084 100.004 118.468 99.86 118.94 99.748C119.416 99.636 120 99.572 120.692 99.556V99.112C120.692 98.652 120.594 98.308 120.398 98.08C120.202 97.852 119.914 97.738 119.534 97.738C119.278 97.738 119.062 97.77 118.886 97.834C118.714 97.898 118.564 97.97 118.436 98.05C118.312 98.126 118.202 98.196 118.106 98.26C118.014 98.324 117.918 98.356 117.818 98.356C117.738 98.356 117.668 98.334 117.608 98.29C117.552 98.246 117.506 98.194 117.47 98.134L117.26 97.756ZM53.5174 115.5C53.7094 115.752 53.9154 115.928 54.1354 116.028C54.3594 116.128 54.6094 116.178 54.8854 116.178C55.4214 116.178 55.8354 115.986 56.1274 115.602C56.4234 115.214 56.5714 114.65 56.5714 113.91C56.5714 113.522 56.5374 113.192 56.4694 112.92C56.4054 112.644 56.3094 112.42 56.1814 112.248C56.0574 112.072 55.9034 111.944 55.7194 111.864C55.5354 111.78 55.3274 111.738 55.0954 111.738C54.7554 111.738 54.4594 111.814 54.2074 111.966C53.9594 112.118 53.7294 112.334 53.5174 112.614V115.5ZM53.4574 111.816C53.5854 111.664 53.7214 111.526 53.8654 111.402C54.0134 111.274 54.1714 111.166 54.3394 111.078C54.5074 110.986 54.6854 110.916 54.8734 110.868C55.0654 110.816 55.2694 110.79 55.4854 110.79C55.8334 110.79 56.1474 110.858 56.4274 110.994C56.7114 111.13 56.9534 111.33 57.1534 111.594C57.3534 111.858 57.5074 112.184 57.6154 112.572C57.7274 112.96 57.7834 113.406 57.7834 113.91C57.7834 114.362 57.7214 114.782 57.5974 115.17C57.4774 115.554 57.3034 115.888 57.0754 116.172C56.8514 116.456 56.5754 116.68 56.2474 116.844C55.9234 117.004 55.5574 117.084 55.1494 117.084C54.7854 117.084 54.4734 117.024 54.2134 116.904C53.9534 116.784 53.7214 116.616 53.5174 116.4V119.046H52.3474V110.904H53.0494C53.2134 110.904 53.3154 110.982 53.3554 111.138L53.4574 111.816ZM60.2674 111.678C60.5234 111.418 60.8054 111.208 61.1134 111.048C61.4254 110.888 61.7834 110.808 62.1874 110.808C62.5234 110.808 62.8174 110.864 63.0694 110.976C63.3254 111.088 63.5394 111.246 63.7114 111.45C63.8834 111.65 64.0134 111.892 64.1014 112.176C64.1894 112.46 64.2334 112.774 64.2334 113.118V117H63.0574V113.118C63.0574 112.682 62.9574 112.344 62.7574 112.104C62.5574 111.86 62.2514 111.738 61.8394 111.738C61.5394 111.738 61.2574 111.81 60.9934 111.954C60.7334 112.094 60.4914 112.286 60.2674 112.53V117H59.0974V108.144H60.2674V111.678ZM68.4102 110.808C68.8582 110.808 69.2622 110.882 69.6222 111.03C69.9862 111.174 70.2942 111.384 70.5462 111.66C70.8022 111.932 70.9982 112.262 71.1342 112.65C71.2702 113.034 71.3382 113.466 71.3382 113.946C71.3382 114.426 71.2702 114.86 71.1342 115.248C70.9982 115.636 70.8022 115.966 70.5462 116.238C70.2942 116.51 69.9862 116.72 69.6222 116.868C69.2622 117.012 68.8582 117.084 68.4102 117.084C67.9582 117.084 67.5502 117.012 67.1862 116.868C66.8262 116.72 66.5182 116.51 66.2622 116.238C66.0062 115.966 65.8082 115.636 65.6682 115.248C65.5322 114.86 65.4642 114.426 65.4642 113.946C65.4642 113.466 65.5322 113.034 65.6682 112.65C65.8082 112.262 66.0062 111.932 66.2622 111.66C66.5182 111.384 66.8262 111.174 67.1862 111.03C67.5502 110.882 67.9582 110.808 68.4102 110.808ZM68.4102 116.172C68.9862 116.172 69.4162 115.978 69.7002 115.59C69.9842 115.202 70.1262 114.656 70.1262 113.952C70.1262 113.248 69.9842 112.702 69.7002 112.314C69.4162 111.922 68.9862 111.726 68.4102 111.726C67.8262 111.726 67.3902 111.922 67.1022 112.314C66.8182 112.702 66.6762 113.248 66.6762 113.952C66.6762 114.656 66.8182 115.202 67.1022 115.59C67.3902 115.978 67.8262 116.172 68.4102 116.172ZM74.4351 117.096C73.9431 117.096 73.5631 116.958 73.2951 116.682C73.0311 116.406 72.8991 116.012 72.8991 115.5V111.852H72.1911C72.1231 111.852 72.0651 111.832 72.0171 111.792C71.9731 111.748 71.9511 111.684 71.9511 111.6V111.126L72.9411 110.988L73.2051 109.17C73.2211 109.102 73.2511 109.05 73.2951 109.014C73.3431 108.974 73.4031 108.954 73.4751 108.954H74.0691V111H75.7971V111.852H74.0691V115.422C74.0691 115.662 74.1271 115.842 74.2431 115.962C74.3631 116.078 74.5151 116.136 74.6991 116.136C74.8071 116.136 74.8991 116.122 74.9751 116.094C75.0551 116.066 75.1231 116.036 75.1791 116.004C75.2351 115.968 75.2831 115.936 75.3231 115.908C75.3631 115.88 75.3991 115.866 75.4311 115.866C75.4711 115.866 75.5011 115.876 75.5211 115.896C75.5451 115.912 75.5691 115.94 75.5931 115.98L75.9411 116.544C75.7491 116.72 75.5211 116.856 75.2571 116.952C74.9931 117.048 74.7191 117.096 74.4351 117.096ZM79.4376 110.808C79.8856 110.808 80.2896 110.882 80.6496 111.03C81.0136 111.174 81.3216 111.384 81.5736 111.66C81.8296 111.932 82.0256 112.262 82.1616 112.65C82.2976 113.034 82.3656 113.466 82.3656 113.946C82.3656 114.426 82.2976 114.86 82.1616 115.248C82.0256 115.636 81.8296 115.966 81.5736 116.238C81.3216 116.51 81.0136 116.72 80.6496 116.868C80.2896 117.012 79.8856 117.084 79.4376 117.084C78.9856 117.084 78.5776 117.012 78.2136 116.868C77.8536 116.72 77.5456 116.51 77.2896 116.238C77.0336 115.966 76.8356 115.636 76.6956 115.248C76.5596 114.86 76.4916 114.426 76.4916 113.946C76.4916 113.466 76.5596 113.034 76.6956 112.65C76.8356 112.262 77.0336 111.932 77.2896 111.66C77.5456 111.384 77.8536 111.174 78.2136 111.03C78.5776 110.882 78.9856 110.808 79.4376 110.808ZM79.4376 116.172C80.0136 116.172 80.4436 115.978 80.7276 115.59C81.0116 115.202 81.1536 114.656 81.1536 113.952C81.1536 113.248 81.0116 112.702 80.7276 112.314C80.4436 111.922 80.0136 111.726 79.4376 111.726C78.8536 111.726 78.4176 111.922 78.1296 112.314C77.8456 112.702 77.7036 113.248 77.7036 113.952C77.7036 114.656 77.8456 115.202 78.1296 115.59C78.4176 115.978 78.8536 116.172 79.4376 116.172ZM87.8768 111.678C88.1328 111.418 88.4148 111.208 88.7228 111.048C89.0348 110.888 89.3928 110.808 89.7968 110.808C90.1328 110.808 90.4268 110.864 90.6788 110.976C90.9348 111.088 91.1488 111.246 91.3208 111.45C91.4928 111.65 91.6228 111.892 91.7108 112.176C91.7988 112.46 91.8428 112.774 91.8428 113.118V117H90.6668V113.118C90.6668 112.682 90.5668 112.344 90.3668 112.104C90.1668 111.86 89.8608 111.738 89.4488 111.738C89.1488 111.738 88.8668 111.81 88.6028 111.954C88.3428 112.094 88.1008 112.286 87.8768 112.53V117H86.7068V108.144H87.8768V111.678ZM97.4596 113.274C97.4596 113.042 97.4256 112.828 97.3576 112.632C97.2936 112.436 97.1976 112.266 97.0696 112.122C96.9416 111.978 96.7856 111.866 96.6016 111.786C96.4176 111.706 96.2056 111.666 95.9656 111.666C95.4736 111.666 95.0856 111.808 94.8016 112.092C94.5216 112.376 94.3436 112.77 94.2676 113.274H97.4596ZM98.4256 116.13C98.2816 116.298 98.1156 116.444 97.9276 116.568C97.7396 116.688 97.5396 116.786 97.3276 116.862C97.1156 116.938 96.8956 116.994 96.6676 117.03C96.4436 117.066 96.2216 117.084 96.0016 117.084C95.5816 117.084 95.1916 117.014 94.8316 116.874C94.4756 116.73 94.1656 116.522 93.9016 116.25C93.6416 115.974 93.4376 115.634 93.2896 115.23C93.1456 114.822 93.0736 114.354 93.0736 113.826C93.0736 113.402 93.1396 113.008 93.2716 112.644C93.4036 112.276 93.5916 111.956 93.8356 111.684C94.0836 111.412 94.3856 111.198 94.7416 111.042C95.0976 110.886 95.4976 110.808 95.9416 110.808C96.3136 110.808 96.6556 110.87 96.9676 110.994C97.2836 111.114 97.5556 111.29 97.7836 111.522C98.0116 111.754 98.1896 112.04 98.3176 112.38C98.4496 112.72 98.5156 113.108 98.5156 113.544C98.5156 113.724 98.4956 113.846 98.4556 113.91C98.4156 113.97 98.3416 114 98.2336 114H94.2376C94.2496 114.364 94.3016 114.682 94.3936 114.954C94.4856 115.222 94.6116 115.446 94.7716 115.626C94.9356 115.806 95.1296 115.94 95.3536 116.028C95.5776 116.116 95.8276 116.16 96.1036 116.16C96.3636 116.16 96.5876 116.13 96.7756 116.07C96.9676 116.01 97.1316 115.946 97.2676 115.878C97.4076 115.806 97.5236 115.74 97.6156 115.68C97.7116 115.62 97.7956 115.59 97.8676 115.59C97.9636 115.59 98.0376 115.626 98.0896 115.698L98.4256 116.13ZM100.877 112.074C101.073 111.674 101.309 111.36 101.585 111.132C101.861 110.904 102.193 110.79 102.581 110.79C102.713 110.79 102.837 110.806 102.953 110.838C103.073 110.866 103.177 110.91 103.265 110.97L103.187 111.852C103.159 111.96 103.093 112.014 102.989 112.014C102.933 112.014 102.849 112.004 102.737 111.984C102.625 111.96 102.505 111.948 102.377 111.948C102.189 111.948 102.023 111.976 101.879 112.032C101.735 112.084 101.605 112.164 101.489 112.272C101.377 112.376 101.277 112.506 101.189 112.662C101.101 112.814 101.019 112.988 100.943 113.184V117H99.7732V110.904H100.445C100.573 110.904 100.659 110.928 100.703 110.976C100.751 111.02 100.785 111.1 100.805 111.216L100.877 112.074ZM107.983 113.274C107.983 113.042 107.949 112.828 107.881 112.632C107.817 112.436 107.721 112.266 107.593 112.122C107.465 111.978 107.309 111.866 107.125 111.786C106.941 111.706 106.729 111.666 106.489 111.666C105.997 111.666 105.609 111.808 105.325 112.092C105.045 112.376 104.867 112.77 104.791 113.274H107.983ZM108.949 116.13C108.805 116.298 108.639 116.444 108.451 116.568C108.263 116.688 108.063 116.786 107.851 116.862C107.639 116.938 107.419 116.994 107.191 117.03C106.967 117.066 106.745 117.084 106.525 117.084C106.105 117.084 105.715 117.014 105.355 116.874C104.999 116.73 104.689 116.522 104.425 116.25C104.165 115.974 103.961 115.634 103.813 115.23C103.669 114.822 103.597 114.354 103.597 113.826C103.597 113.402 103.663 113.008 103.795 112.644C103.927 112.276 104.115 111.956 104.359 111.684C104.607 111.412 104.909 111.198 105.265 111.042C105.621 110.886 106.021 110.808 106.465 110.808C106.837 110.808 107.179 110.87 107.491 110.994C107.807 111.114 108.079 111.29 108.307 111.522C108.535 111.754 108.713 112.04 108.841 112.38C108.973 112.72 109.039 113.108 109.039 113.544C109.039 113.724 109.019 113.846 108.979 113.91C108.939 113.97 108.865 114 108.757 114H104.761C104.773 114.364 104.825 114.682 104.917 114.954C105.009 115.222 105.135 115.446 105.295 115.626C105.459 115.806 105.653 115.94 105.877 116.028C106.101 116.116 106.351 116.16 106.627 116.16C106.887 116.16 107.111 116.13 107.299 116.07C107.491 116.01 107.655 115.946 107.791 115.878C107.931 115.806 108.047 115.74 108.139 115.68C108.235 115.62 108.319 115.59 108.391 115.59C108.487 115.59 108.561 115.626 108.613 115.698L108.949 116.13Z" fill="black"/>
</g>
<defs>
<clipPath id="clip0_135_2628">
<rect width="38" height="38" fill="white" transform="translate(61.5 41)"/>
</clipPath>
</defs>
</svg>
