<svg width="20" height="20" viewBox="0 0 20 20" fill="none" xmlns="http://www.w3.org/2000/svg">
<path d="M9.5 1C7.62108 1 5.78435 1.55717 4.22209 2.60104C2.65982 3.64491 1.44218 5.12861 0.723149 6.86451C0.00411631 8.6004 -0.184015 10.5105 0.182544 12.3534C0.549104 14.1962 1.45389 15.8889 2.78249 17.2175C4.11109 18.5461 5.80383 19.4509 7.64664 19.8175C9.48946 20.184 11.3996 19.9959 13.1355 19.2769C14.8714 18.5578 16.3551 17.3402 17.399 15.7779C18.4428 14.2156 19 12.3789 19 10.5C18.997 7.98137 17.9951 5.56676 16.2142 3.78582C14.4332 2.00488 12.0186 1.00302 9.5 1ZM8.86667 5.43333C8.86667 5.26536 8.93339 5.10427 9.05217 4.9855C9.17094 4.86673 9.33203 4.8 9.5 4.8C9.66797 4.8 9.82906 4.86673 9.94784 4.9855C10.0666 5.10427 10.1333 5.26536 10.1333 5.43333V9.86666C10.1333 10.0346 10.0666 10.1957 9.94784 10.3145C9.82906 10.4333 9.66797 10.5 9.5 10.5C9.33203 10.5 9.17094 10.4333 9.05217 10.3145C8.93339 10.1957 8.86667 10.0346 8.86667 9.86666V5.43333ZM9.5 16.2C7.98899 16.1977 6.54053 15.5964 5.47208 14.5279C4.40364 13.4595 3.80235 12.011 3.8 10.5C3.79723 9.64526 3.98845 8.80104 4.35925 8.03092C4.73005 7.2608 5.27076 6.58485 5.94067 6.054C6.00445 5.9938 6.08003 5.9475 6.16263 5.91804C6.24523 5.88857 6.33306 5.87659 6.42053 5.88284C6.50801 5.88908 6.59324 5.91343 6.67081 5.95434C6.74839 5.99525 6.81662 6.05182 6.87119 6.12047C6.92576 6.18913 6.96548 6.26836 6.98783 6.35317C7.01018 6.43797 7.01467 6.5265 7.00102 6.61313C6.98737 6.69976 6.95588 6.78261 6.90854 6.85644C6.8612 6.93026 6.79904 6.99345 6.726 7.042C6.00979 7.61651 5.48962 8.39921 5.23732 9.28203C4.98503 10.1648 5.01306 11.1042 5.31754 11.9704C5.62203 12.8366 6.18794 13.5869 6.93714 14.1177C7.68633 14.6485 8.58184 14.9336 9.5 14.9336C10.4182 14.9336 11.3137 14.6485 12.0629 14.1177C12.8121 13.5869 13.378 12.8366 13.6825 11.9704C13.9869 11.1042 14.015 10.1648 13.7627 9.28203C13.5104 8.39921 12.9902 7.61651 12.274 7.042C12.1586 6.93309 12.0883 6.78483 12.077 6.62657C12.0657 6.4683 12.1142 6.31156 12.2129 6.18735C12.3117 6.06314 12.4534 5.98052 12.6102 5.95582C12.7669 5.93113 12.9272 5.96616 13.0593 6.054C13.7292 6.58485 14.27 7.2608 14.6408 8.03092C15.0116 8.80104 15.2028 9.64526 15.2 10.5C15.1977 12.011 14.5964 13.4595 13.5279 14.5279C12.4595 15.5964 11.011 16.1977 9.5 16.2Z" fill="black"/>
</svg>
