<svg width="200" height="90" viewBox="0 0 200 90" fill="none" xmlns="http://www.w3.org/2000/svg">
<path d="M1.82285 14.0502C2.0856 14.048 2.34834 14.0457 2.61905 14.0434C2.9039 14.0436 3.18875 14.0439 3.48223 14.0441C3.77346 14.0431 4.0647 14.0421 4.36476 14.041C5.13969 14.0393 5.91458 14.04 6.68951 14.0414C7.16518 14.0413 7.64078 14.0389 8.11643 14.0357C9.02735 14.03 9.93814 14.029 10.8491 14.0293C11.2763 14.0261 11.2763 14.0261 11.7123 14.0228C12.1064 14.025 12.1064 14.025 12.5085 14.0272C12.7405 14.0271 12.9726 14.0269 13.2116 14.0268C13.4862 14.0704 13.4862 14.0704 13.7663 14.115C14.3876 15.0469 14.3103 15.8544 14.313 16.9367C14.3153 17.1529 14.3177 17.3691 14.3202 17.5919C14.3274 18.3075 14.3314 19.023 14.3354 19.7386C14.3398 20.2345 14.3444 20.7303 14.3493 21.2261C14.3614 22.5317 14.3707 23.8374 14.3795 25.143C14.3889 26.4751 14.4009 27.8071 14.4128 29.1392C14.4356 31.7533 14.4555 34.3675 14.4736 36.9816C14.5912 36.813 14.5912 36.813 14.7112 36.6409C14.8154 36.4929 14.9196 36.3449 15.027 36.1925C15.1297 36.046 15.2325 35.8995 15.3383 35.7486C15.7804 35.1612 16.3115 34.6722 16.8309 34.1528C17.208 33.6544 17.5728 33.1498 17.9314 32.638C18.035 32.5155 18.1386 32.393 18.2454 32.2669C18.401 32.2669 18.5566 32.2669 18.7169 32.2669C18.7801 32.1319 18.8433 31.997 18.9084 31.858C19.1981 31.3053 19.5243 30.8232 19.8955 30.322C20.0171 30.1555 20.1387 29.989 20.2639 29.8174C20.3757 29.6922 20.4875 29.567 20.6028 29.438C20.7584 29.438 20.9139 29.438 21.0742 29.438C21.1472 29.2921 21.2201 29.1463 21.2952 28.996C21.4573 28.6719 21.6194 28.3477 21.7815 28.0236C21.937 28.0236 22.0926 28.0236 22.2529 28.0236C22.3307 27.7902 22.4085 27.5568 22.4887 27.3164C22.6443 27.3164 22.7998 27.3164 22.9602 27.3164C23.0133 27.1495 23.0665 26.9827 23.1213 26.8108C23.5013 25.9865 24.0015 25.4545 24.6251 24.7969C25.4165 23.9997 25.4165 23.9997 26.0248 23.0731C26.1803 23.0731 26.3359 23.0731 26.4962 23.0731C26.5828 22.8771 26.5828 22.8771 26.6712 22.6771C27.0271 22.0205 27.4608 21.4948 27.9401 20.9219C28.8473 19.833 29.7267 18.7271 30.5913 17.6041C30.7814 17.394 30.7814 17.394 30.9753 17.1796C31.1309 17.1796 31.2864 17.1796 31.4468 17.1796C31.51 16.99 31.5732 16.8003 31.6383 16.605C31.7307 16.4056 31.823 16.2063 31.9182 16.0009C32.1516 15.9231 32.385 15.8453 32.6254 15.7652C32.7908 15.4551 32.9473 15.1402 33.0969 14.8222C33.3696 14.4423 33.3696 14.4423 33.8041 14.115C34.4888 14.0299 34.4888 14.0299 35.3343 14.0347C35.4885 14.0346 35.6426 14.0345 35.8015 14.0344C36.3105 14.0349 36.8193 14.0404 37.3282 14.0459C37.6814 14.0472 38.0345 14.0482 38.3876 14.0489C39.3166 14.0516 40.2455 14.0586 41.1744 14.0664C42.1225 14.0737 43.0706 14.0769 44.0187 14.0804C45.8787 14.088 47.7387 14.1001 49.5986 14.115C49.7398 14.5485 49.7398 14.5485 49.8344 15.0579C49.4614 15.6657 49.4614 15.6657 48.9356 16.2956C48.7639 16.5059 48.5922 16.7161 48.4153 16.9328C48.2613 17.092 48.1072 17.2513 47.9485 17.4153C47.7929 17.4153 47.6373 17.4153 47.477 17.4153C47.3931 17.6081 47.3931 17.6081 47.3076 17.8048C46.9279 18.5005 46.4535 19.0624 45.9447 19.6696C45.3996 20.3218 44.8841 20.9511 44.4124 21.6586C44.2568 21.6586 44.1012 21.6586 43.9409 21.6586C43.8905 21.782 43.84 21.9054 43.788 22.0325C43.3398 22.833 42.7483 23.477 42.1434 24.1633C41.0925 25.3679 40.0829 26.5879 39.1138 27.8597C38.9953 27.9915 38.8768 28.1234 38.7547 28.2593C38.5991 28.2593 38.4435 28.2593 38.2832 28.2593C38.2297 28.4295 38.1762 28.5997 38.1211 28.775C37.7527 29.5645 37.261 30.0209 36.633 30.6167C36.5552 30.7723 36.4774 30.9279 36.3973 31.0882C36.2417 31.0882 36.0861 31.0882 35.9258 31.0882C35.8529 31.234 35.7799 31.3799 35.7048 31.5302C35.5427 31.8543 35.3806 32.1785 35.2186 32.5026C35.063 32.5026 34.9074 32.5026 34.7471 32.5026C34.6839 32.6407 34.6207 32.7788 34.5556 32.921C34.2726 33.4512 33.9656 33.846 33.5675 34.2946C33.364 34.5261 33.364 34.5261 33.1563 34.7624C33.0152 34.921 32.874 35.0796 32.7286 35.2431C32.4479 35.5601 32.1676 35.8774 31.8878 36.1952C31.7637 36.3349 31.6395 36.4746 31.5116 36.6185C31.1901 36.979 31.1901 36.979 30.9753 37.4531C30.8197 37.4531 30.6641 37.4531 30.5038 37.4531C30.4406 37.588 30.3774 37.723 30.3123 37.862C30.0226 38.4147 29.6963 38.8968 29.3251 39.398C29.2035 39.5645 29.082 39.731 28.9568 39.9026C28.8449 40.0278 28.7331 40.153 28.6179 40.282C28.4623 40.282 28.3067 40.282 28.1464 40.282C28.0297 40.6321 28.0297 40.6321 27.9107 40.9892C27.7551 40.9892 27.5995 40.9892 27.4392 40.9892C27.2373 41.6494 27.2373 41.6494 27.2035 42.4036C27.6406 42.9391 27.6406 42.9391 28.1464 43.3466C28.1464 43.5022 28.1464 43.6578 28.1464 43.8181C28.302 43.8181 28.4576 43.8181 28.6179 43.8181C28.9733 44.1625 28.9733 44.1625 29.3546 44.6137C29.4816 44.7614 29.6086 44.9091 29.7395 45.0612C30.0323 45.4682 30.0323 45.4682 30.0323 45.9397C30.1879 45.9397 30.3435 45.9397 30.5038 45.9397C31.6825 47.2307 31.6825 47.2307 31.6825 47.8256C31.8381 47.8256 31.9937 47.8256 32.154 47.8256C32.5094 48.17 32.5094 48.17 32.8907 48.6212C33.0177 48.7689 33.1447 48.9166 33.2756 49.0688C33.5684 49.4758 33.5684 49.4758 33.5684 49.9473C33.724 49.9473 33.8796 49.9473 34.0399 49.9473C34.3953 50.2917 34.3953 50.2917 34.7766 50.7429C34.9036 50.8906 35.0306 51.0383 35.1615 51.1904C35.4543 51.5974 35.4543 51.5974 35.4543 52.0689C35.6099 52.0689 35.7655 52.0689 35.9258 52.0689C37.1045 53.3599 37.1045 53.3599 37.1045 53.9548C37.2601 53.9548 37.4157 53.9548 37.576 53.9548C37.9447 54.3539 38.2957 54.7695 38.6368 55.1925C38.824 55.4222 39.0112 55.6519 39.204 55.8886C39.6976 56.548 39.6976 56.548 39.9554 57.0894C40.1555 57.5766 40.1555 57.5766 40.8763 57.7267C40.8763 57.8822 40.8763 58.0378 40.8763 58.1981C41.0319 58.1981 41.1875 58.1981 41.3478 58.1981C42.5265 59.4891 42.5265 59.4891 42.5265 60.084C42.6821 60.084 42.8377 60.084 42.998 60.084C43.3667 60.4831 43.7177 60.8987 44.0588 61.3217C44.246 61.5514 44.4332 61.7811 44.626 62.0178C45.1196 62.6772 45.1196 62.6772 45.3774 63.2186C45.5775 63.7058 45.5775 63.7058 46.2983 63.8559C46.2983 64.0115 46.2983 64.167 46.2983 64.3273C46.4539 64.3273 46.6095 64.3273 46.7698 64.3273C47.1685 64.7316 47.1685 64.7316 47.6096 65.2556C47.7558 65.4279 47.9019 65.6002 48.0525 65.7777C48.1738 65.9214 48.295 66.0652 48.4199 66.2133C48.4977 66.291 48.5755 66.3688 48.6557 66.449C48.7073 66.2974 48.759 66.1457 48.8122 65.9895C49.2511 64.7388 49.7362 63.5355 50.3059 62.3383C50.8847 61.1137 51.3283 59.8894 51.7369 58.5996C51.985 57.8782 52.3063 57.2329 52.6632 56.5609C53.046 55.7745 53.316 54.9492 53.6062 54.1252C53.8197 53.5438 54.0556 52.9854 54.3134 52.4225C54.758 51.4486 55.1184 50.4554 55.4774 49.4473C55.8237 48.5088 56.2147 47.5911 56.6045 46.67C56.9123 45.9259 57.1981 45.176 57.4812 44.4222C57.9882 43.0871 58.5687 41.7989 59.1857 40.5113C59.4975 39.8153 59.7372 39.1216 59.9711 38.3961C60.6226 36.6359 61.3232 34.8975 62.0504 33.1675C62.5885 31.8811 63.098 30.5834 63.6113 29.287C64.6622 26.6399 64.6622 26.6399 65.1869 25.4894C65.6198 24.5363 65.9694 23.5615 66.3204 22.5758C66.6723 21.622 67.0671 20.6881 67.4623 19.7515C67.7266 19.1224 67.9838 18.4911 68.2367 17.8573C68.3118 17.6698 68.3869 17.4823 68.4642 17.2892C68.6273 16.8759 68.7872 16.4614 68.9449 16.046C69.0272 15.8318 69.1096 15.6175 69.1944 15.3968C69.3047 15.1046 69.3047 15.1046 69.4173 14.8065C69.6364 14.3507 69.6364 14.3507 70.1079 14.115C70.4965 14.0889 70.8861 14.0775 71.2755 14.0733C71.5186 14.0702 71.7617 14.0672 72.0122 14.0641C72.4074 14.0615 72.4074 14.0615 72.8106 14.0588C73.2152 14.056 73.2152 14.056 73.628 14.053C74.1994 14.0498 74.7707 14.0473 75.342 14.0454C76.218 14.0413 77.0938 14.031 77.9697 14.0206C78.5239 14.0182 79.0781 14.0162 79.6323 14.0146C79.8953 14.0105 80.1583 14.0064 80.4293 14.0021C80.6732 14.0028 80.917 14.0035 81.1682 14.0042C81.4904 14.0021 81.4904 14.0021 81.8191 14C82.3663 14.115 82.3663 14.115 82.7802 14.5621C83.0795 15.0679 83.3063 15.5549 83.5156 16.104C83.5955 16.311 83.6754 16.5179 83.7577 16.7311C83.8431 16.9569 83.9285 17.1827 84.0165 17.4153C84.2078 17.9164 84.3993 18.4173 84.5911 18.9182C84.6905 19.1777 84.7899 19.4372 84.8922 19.7046C85.2711 20.6741 85.6741 21.6323 86.0783 22.5914C86.3915 23.3514 86.6861 24.1169 86.978 24.8853C87.3779 25.9351 87.805 26.9631 88.269 27.9858C88.9128 29.4331 89.4645 30.9196 90.0278 32.3995C90.4336 33.4592 90.8657 34.4983 91.3345 35.5313C91.7538 36.4741 92.124 37.4366 92.5031 38.3961C92.7386 38.9855 92.9744 39.5749 93.2103 40.1641C93.3328 40.4705 93.4553 40.7768 93.5777 41.0831C93.7768 41.5806 93.9762 42.0779 94.1763 42.5749C94.612 43.6581 95.0348 44.7453 95.4498 45.8366C95.8556 46.8963 96.2877 47.9354 96.7565 48.9684C97.1757 49.9112 97.546 50.8737 97.9251 51.8332C98.1606 52.4226 98.3964 53.012 98.6323 53.6012C98.7548 53.9076 98.8773 54.2139 98.9997 54.5202C99.1988 55.0177 99.3982 55.515 99.5983 56.012C100.034 57.0952 100.457 58.1824 100.872 59.2737C101.277 60.331 101.707 61.3679 102.176 62.3982C102.514 63.1612 102.818 63.9372 103.123 64.7141C103.323 65.2108 103.538 65.6966 103.76 66.1838C104.054 66.9205 104.054 66.9205 104.054 67.8634C104.21 67.8634 104.365 67.8634 104.526 67.8634C104.525 67.4501 104.525 67.4501 104.525 67.0284C104.52 60.4935 104.516 53.9587 104.514 47.4239C104.513 46.6203 104.513 45.8168 104.513 45.0133C104.513 44.7733 104.513 44.7733 104.513 44.5285C104.512 41.9349 104.51 39.3413 104.508 36.7476C104.505 34.0883 104.504 31.4289 104.504 28.7696C104.503 27.275 104.503 25.7805 104.501 24.286C104.499 22.8811 104.499 21.4761 104.499 20.0712C104.499 19.5539 104.499 19.0367 104.498 18.5194C104.497 17.8165 104.497 17.1135 104.497 16.4106C104.496 16.0993 104.496 16.0993 104.495 15.7817C104.499 14.3776 104.499 14.3776 104.762 14.115C105.489 14.0887 106.212 14.0779 106.939 14.077C107.168 14.0758 107.397 14.0747 107.633 14.0734C108.395 14.07 109.158 14.0684 109.92 14.0671C110.45 14.0657 110.981 14.0644 111.511 14.063C112.627 14.0605 113.743 14.0592 114.858 14.0583C116.28 14.0571 117.702 14.0514 119.123 14.0447C120.221 14.0403 121.319 14.0391 122.417 14.0387C122.94 14.038 123.464 14.0361 123.987 14.033C127.556 14.0133 130.897 14.1094 134.229 15.5294C134.411 15.5941 134.594 15.6589 134.782 15.7256C138.647 17.1291 141.884 20.1898 143.636 23.8852C144.881 26.7922 145.859 31.0866 144.837 34.1528C144.819 34.521 144.805 34.8894 144.793 35.2578C144.621 37.4024 143.716 39.57 142.715 41.4607C142.56 41.4607 142.404 41.4607 142.244 41.4607C142.219 41.5956 142.195 41.7305 142.169 41.8695C141.569 43.8597 139.594 45.2327 138.001 46.4112C137.86 46.5227 137.719 46.6342 137.574 46.7492C136.412 47.6442 135.102 48.1972 133.757 48.7686C133.757 49.5101 134.234 49.8615 134.7 50.4188C135.643 51.5451 135.643 51.5451 135.643 52.0689C135.799 52.0689 135.954 52.0689 136.115 52.0689C136.473 52.4639 136.814 52.8745 137.146 53.2918C137.328 53.5188 137.51 53.7458 137.697 53.9797C137.875 54.2049 138.053 54.4301 138.236 54.6621C138.415 54.8751 138.593 55.0881 138.776 55.3076C139.179 55.8407 139.179 55.8407 139.179 56.3122C139.335 56.3122 139.491 56.3122 139.651 56.3122C140.358 57.1282 140.358 57.1282 140.358 57.7267C140.514 57.7267 140.669 57.7267 140.83 57.7267C141.228 58.1659 141.228 58.1659 141.669 58.7433C141.816 58.932 141.962 59.1207 142.112 59.3151C142.48 59.8483 142.48 59.8483 142.715 60.5555C142.871 60.5555 143.027 60.5555 143.187 60.5555C143.566 60.9643 143.927 61.3896 144.277 61.8226C144.47 62.0578 144.663 62.293 144.861 62.5354C145.309 63.1487 145.309 63.1487 145.309 63.6201C145.464 63.6201 145.62 63.6201 145.78 63.6201C146.232 64.1418 146.657 64.6648 147.077 65.2114C147.194 65.3609 147.312 65.5104 147.433 65.6644C147.986 66.3761 148.459 67.0453 148.845 67.8634C149 67.8634 149.156 67.8634 149.316 67.8634C149.715 68.3193 149.715 68.3193 150.156 68.9095C150.649 69.5907 150.649 69.5907 151.202 70.2208C151.203 69.9345 151.204 69.6482 151.204 69.3533C151.223 62.563 151.244 55.7727 151.268 48.9824C151.271 48.1473 151.274 47.3122 151.277 46.4772C151.277 46.3109 151.278 46.1446 151.279 45.9733C151.288 43.2785 151.296 40.5837 151.303 37.8888C151.31 35.1253 151.319 32.3618 151.33 29.5983C151.336 28.0454 151.341 26.4925 151.344 24.9396C151.347 23.4795 151.352 22.0194 151.359 20.5594C151.362 20.022 151.363 19.4847 151.363 18.9474C151.364 18.2167 151.368 17.486 151.372 16.7553C151.372 16.5402 151.371 16.3251 151.371 16.1034C151.384 14.6403 151.384 14.6403 151.909 14.115C152.333 14.055 152.333 14.055 152.855 14.0535C153.053 14.0519 153.251 14.0502 153.455 14.0485C153.781 14.0493 153.781 14.0493 154.114 14.0502C154.343 14.049 154.572 14.0478 154.808 14.0466C155.569 14.0433 156.33 14.0435 157.091 14.0441C157.621 14.0432 158.151 14.0421 158.681 14.041C159.795 14.0393 160.91 14.0393 162.024 14.0406C163.444 14.0419 164.863 14.038 166.283 14.0325C167.38 14.029 168.477 14.0288 169.574 14.0295C170.096 14.0294 170.619 14.0282 171.142 14.0258C174.905 14.0107 178.382 14.137 181.848 15.7652C182.073 15.867 182.298 15.9688 182.53 16.0736C184.233 16.8796 185.846 17.8205 187.27 19.0655C187.27 19.2211 187.27 19.3767 187.27 19.537C187.503 19.6148 187.737 19.6926 187.977 19.7727C188.685 20.5847 188.685 20.5847 188.685 21.1871C188.84 21.1871 188.996 21.1871 189.156 21.1871C189.418 21.6973 189.678 22.2081 189.937 22.7194C190.046 22.9319 190.046 22.9319 190.157 23.1486C192.231 27.2528 192.492 31.5471 191.749 36.0387C191.708 36.3025 191.666 36.5662 191.624 36.838C191.169 39.0745 189.964 41.6244 188.449 43.3466C188.293 43.3466 188.138 43.3466 187.977 43.3466C187.919 43.4827 187.861 43.6189 187.801 43.7591C187.463 44.3672 187.085 44.7755 186.563 45.2325C186.407 45.2325 186.252 45.2325 186.091 45.2325C186.091 45.3881 186.091 45.5437 186.091 45.704C184.361 47.066 182.42 48.0744 180.434 49.0043C180.589 49.1502 180.745 49.296 180.905 49.4463C181.377 49.9473 181.377 49.9473 181.377 50.4188C181.532 50.4188 181.688 50.4188 181.848 50.4188C182.204 50.8147 182.204 50.8147 182.585 51.3322C182.712 51.5018 182.839 51.6714 182.97 51.8461C183.263 52.3047 183.263 52.3047 183.263 52.7761C183.418 52.7761 183.574 52.7761 183.734 52.7761C184.193 53.2752 184.193 53.2752 184.706 53.9254C184.877 54.1387 185.048 54.352 185.224 54.5718C185.62 55.1335 185.62 55.1335 185.62 55.605C185.853 55.6828 186.087 55.7606 186.327 55.8407C186.607 56.4448 186.607 56.4448 186.799 57.0194C186.954 57.0194 187.11 57.0194 187.27 57.0194C187.599 57.3797 187.91 57.7565 188.213 58.1392C188.4 58.3735 188.587 58.6078 188.779 58.8492C188.878 58.9736 188.977 59.098 189.079 59.2262C189.399 59.6219 189.726 60.0106 190.056 60.3981C190.164 60.5253 190.272 60.6526 190.383 60.7837C190.691 61.1454 190.999 61.5066 191.308 61.8677C191.749 62.4414 191.749 62.4414 191.749 62.9129C191.905 62.9129 192.06 62.9129 192.221 62.9129C192.579 63.3079 192.92 63.7184 193.252 64.1358C193.434 64.3628 193.615 64.5898 193.803 64.8237C193.981 65.0489 194.159 65.274 194.342 65.506C194.52 65.7191 194.698 65.9321 194.882 66.1516C195.285 66.6847 195.285 66.6847 195.285 67.1562C195.441 67.1562 195.596 67.1562 195.757 67.1562C196.464 67.9722 196.464 67.9722 196.464 68.5706C196.62 68.5706 196.775 68.5706 196.935 68.5706C197.394 69.0697 197.394 69.0697 197.908 69.7199C198.079 69.9332 198.249 70.1465 198.425 70.3663C198.821 70.928 198.821 70.928 198.821 71.3995C198.977 71.3995 199.132 71.3995 199.293 71.3995C200 72.2155 200 72.2155 200 72.8139C199.201 73.0803 198.581 73.0861 197.738 73.0951C197.503 73.098 197.503 73.098 197.263 73.101C196.744 73.1068 196.226 73.1107 195.707 73.1141C195.53 73.1154 195.352 73.1166 195.17 73.1179C194.231 73.1242 193.293 73.1288 192.355 73.1322C191.578 73.1354 190.803 73.1419 190.026 73.1516C189.089 73.1632 188.151 73.169 187.213 73.1707C186.856 73.1723 186.499 73.1759 186.142 73.1815C185.642 73.189 185.143 73.189 184.643 73.1872C184.358 73.1891 184.074 73.191 183.781 73.193C182.807 73.0079 182.462 72.6335 181.848 71.871C181.77 71.6376 181.693 71.4042 181.612 71.1638C181.457 71.1638 181.301 71.1638 181.141 71.1638C180.8 70.7546 180.479 70.3293 180.168 69.8967C179.998 69.6615 179.827 69.4263 179.651 69.1839C179.255 68.5706 179.255 68.5706 179.255 68.0992C179.099 68.0992 178.944 68.0992 178.784 68.0992C178.439 67.6843 178.113 67.2539 177.796 66.8173C177.607 66.5578 177.417 66.2984 177.227 66.0392C177.085 65.8447 177.085 65.8447 176.941 65.6464C176.413 64.935 175.854 64.2481 175.298 63.5594C175.012 63.1487 175.012 63.1487 175.012 62.6772C174.856 62.6772 174.701 62.6772 174.54 62.6772C174.199 62.2681 173.878 61.8427 173.568 61.4101C173.397 61.1749 173.226 60.9397 173.05 60.6973C172.654 60.084 172.654 60.084 172.654 59.6126C172.499 59.6126 172.343 59.6126 172.183 59.6126C172.105 59.3014 172.027 58.9902 171.947 58.6696C171.791 58.6696 171.636 58.6696 171.476 58.6696C171.135 58.2605 170.813 57.8352 170.503 57.4025C170.332 57.1673 170.162 56.9321 169.986 56.6898C169.59 56.0765 169.59 56.0765 169.59 55.605C169.434 55.605 169.279 55.605 169.118 55.605C168.778 55.1959 168.456 54.7706 168.146 54.3379C167.975 54.1027 167.804 53.8675 167.628 53.6252C167.232 53.0119 167.232 53.0119 167.232 52.5404C167.077 52.5404 166.921 52.5404 166.761 52.5404C166.054 51.7244 166.054 51.7244 166.054 51.126C165.898 51.126 165.742 51.126 165.582 51.126C165.584 51.3937 165.585 51.6614 165.587 51.9372C165.601 54.4557 165.612 56.9741 165.619 59.4926C165.622 60.7875 165.627 62.0824 165.635 63.3773C165.643 64.626 165.647 65.8748 165.649 67.1236C165.651 67.6009 165.653 68.0782 165.657 68.5555C165.662 69.2222 165.663 69.8887 165.662 70.5554C165.666 70.8538 165.666 70.8538 165.67 71.1582C165.667 71.7071 165.667 71.7071 165.582 72.5782C164.812 73.0918 164.589 73.1097 163.697 73.1143C163.454 73.1167 163.211 73.119 162.96 73.1214C162.693 73.1216 162.426 73.1217 162.152 73.1219C161.871 73.1239 161.59 73.1258 161.3 73.1279C160.529 73.1326 159.758 73.1351 158.987 73.1363C158.505 73.1372 158.023 73.1386 157.541 73.1403C155.86 73.1461 154.179 73.1492 152.498 73.15C150.931 73.1509 149.365 73.1579 147.798 73.1678C146.453 73.176 145.107 73.1796 143.762 73.1798C142.959 73.1799 142.155 73.182 141.352 73.1887C140.456 73.195 139.56 73.1939 138.663 73.191C138.398 73.1945 138.132 73.198 137.858 73.2016C136.055 73.1846 136.055 73.1846 135.142 72.4837C134.996 72.2815 134.851 72.0793 134.7 71.871C134.559 71.7008 134.418 71.5306 134.273 71.3553C133.993 70.928 133.993 70.928 133.993 70.4566C133.838 70.4566 133.682 70.4566 133.522 70.4566C133.146 70.0174 132.802 69.5804 132.461 69.1158C132.366 68.9907 132.271 68.8657 132.173 68.7369C131.628 68.0048 131.223 67.3126 130.929 66.449C130.773 66.449 130.617 66.449 130.457 66.449C130.116 66.0399 129.795 65.6145 129.485 65.1819C129.314 64.9467 129.143 64.7115 128.967 64.4692C128.571 63.8559 128.571 63.8559 128.571 63.3844C128.416 63.3844 128.26 63.3844 128.1 63.3844C127.759 62.9753 127.438 62.5499 127.127 62.1173C126.956 61.8821 126.786 61.6469 126.61 61.4046C126.214 60.7913 126.214 60.7913 126.214 60.3198C125.98 60.242 125.747 60.1642 125.507 60.084C125.18 59.7166 125.18 59.7166 124.873 59.2737C124.718 59.0554 124.718 59.0554 124.561 58.8326C124.328 58.4339 124.328 58.4339 124.328 57.9624C124.172 57.9624 124.017 57.9624 123.856 57.9624C123.516 57.5533 123.194 57.1279 122.884 56.6953C122.713 56.4601 122.542 56.2249 122.366 55.9826C121.97 55.3693 121.97 55.3693 121.97 54.8978C121.815 54.8978 121.659 54.8978 121.499 54.8978C121.158 54.4887 120.837 54.0633 120.527 53.6307C120.356 53.3955 120.185 53.1603 120.009 52.918C119.613 52.3047 119.613 52.3047 119.613 51.8332C119.38 51.7554 119.146 51.6776 118.906 51.5974C118.906 51.4419 118.906 51.2863 118.906 51.126C118.75 51.126 118.595 51.126 118.434 51.126C118.437 51.5275 118.437 51.5275 118.439 51.9372C118.453 54.4557 118.464 56.9741 118.471 59.4926C118.475 60.7875 118.48 62.0824 118.488 63.3773C118.495 64.626 118.5 65.8748 118.501 67.1236C118.503 67.6009 118.505 68.0782 118.509 68.5555C118.514 69.2222 118.515 69.8887 118.515 70.5554C118.518 70.8538 118.518 70.8538 118.522 71.1582C118.519 71.7071 118.519 71.7071 118.434 72.5782C117.689 73.0752 117.514 73.1088 116.662 73.1096C116.444 73.1109 116.226 73.1122 116.001 73.1136C115.763 73.1126 115.524 73.1117 115.278 73.1107C114.9 73.1119 114.9 73.1119 114.514 73.1132C113.68 73.1153 112.845 73.1139 112.01 73.1123C111.432 73.1126 110.853 73.1131 110.274 73.1137C109.061 73.1144 107.847 73.1133 106.634 73.1111C105.076 73.1085 103.518 73.11 101.96 73.1128C100.765 73.1145 99.57 73.114 98.3748 73.1128C97.8004 73.1125 97.2259 73.1128 96.6514 73.1139C95.8494 73.1151 95.0474 73.1133 94.2454 73.1107C93.8871 73.1121 93.8871 73.1121 93.5217 73.1136C93.3035 73.1122 93.0854 73.1109 92.8606 73.1096C92.671 73.1094 92.4813 73.1092 92.2859 73.109C91.7959 73.0497 91.7959 73.0497 91.0887 72.5782C90.8382 71.9714 90.8382 71.9714 90.6172 71.2374C90.3699 70.447 90.1237 69.6989 89.7921 68.939C89.4631 68.1576 89.2212 67.3939 88.9818 66.5816C88.6642 65.5208 88.3137 64.5568 87.7718 63.5916C87.4788 62.9996 87.29 62.3609 87.0811 61.7342C79.8463 61.7342 72.6115 61.7342 65.1574 61.7342C64.6906 63.2512 64.6906 63.2512 64.2144 64.7988C63.743 65.8744 63.743 65.8744 63.5082 66.3744C63.1253 67.2579 62.8467 68.1746 62.5505 69.09C62.3693 69.6284 62.1741 70.1435 61.9455 70.6628C61.6056 71.3988 61.6056 71.3988 61.3708 72.1951C61.1498 72.8139 61.1498 72.8139 60.6784 73.0497C60.3411 73.0743 60.0028 73.0846 59.6646 73.0875C59.3454 73.0911 59.3454 73.0911 59.0197 73.0947C58.6685 73.0968 58.6685 73.0968 58.3102 73.0989C58.064 73.1012 57.8179 73.1035 57.5643 73.1059C56.7471 73.1129 55.9299 73.118 55.1127 73.1224C54.834 73.124 54.5553 73.1255 54.2682 73.1271C52.7931 73.1348 51.318 73.1406 49.8429 73.1452C48.6209 73.1494 47.399 73.1576 46.177 73.1693C44.7029 73.1835 43.229 73.1908 41.7549 73.1931C41.1928 73.1951 40.6308 73.1995 40.0688 73.2064C39.282 73.2156 38.4956 73.2159 37.7088 73.214C37.4766 73.2187 37.2443 73.2234 37.005 73.2283C35.8801 73.2164 35.1887 73.1601 34.3557 72.3617C33.8041 71.6352 33.8041 71.6352 33.8041 71.1638C33.6486 71.1638 33.493 71.1638 33.3327 71.1638C32.9639 70.7647 32.6129 70.3491 32.2718 69.9261C32.0846 69.6964 31.8975 69.4667 31.7046 69.23C31.3083 68.7005 31.0032 68.2296 30.7395 67.6277C30.5839 67.6277 30.4284 67.6277 30.2681 67.6277C29.0894 66.3367 29.0894 66.3367 29.0894 65.7418C28.856 65.664 28.6226 65.5862 28.3821 65.506C28.003 65.0977 27.6415 64.6728 27.2919 64.2389C27.1041 64.0086 26.9163 63.7783 26.7228 63.5409C26.2605 62.9129 26.2605 62.9129 26.0248 62.2057C25.7914 62.1279 25.558 62.0501 25.3175 61.97C24.1388 60.6816 24.1388 60.6816 24.1388 60.084C23.9833 60.084 23.8277 60.084 23.6674 60.084C22.9602 59.268 22.9602 59.268 22.9602 58.6696C22.7268 58.5918 22.4934 58.514 22.2529 58.4339C22.0958 58.041 21.9386 57.6481 21.7815 57.2552C21.5481 57.1774 21.3147 57.0996 21.0742 57.0194C21.0742 56.8639 21.0742 56.7083 21.0742 56.548C20.9187 56.548 20.7631 56.548 20.6028 56.548C20.1442 56.0489 20.1442 56.0489 19.6303 55.3987C19.4596 55.1854 19.2888 54.9721 19.1128 54.7523C18.7169 54.1906 18.7169 54.1906 18.7169 53.7191C18.4835 53.6413 18.2501 53.5635 18.0096 53.4834C18.0096 53.3278 18.0096 53.1722 18.0096 53.0119C17.854 53.0119 17.6985 53.0119 17.5382 53.0119C16.3595 51.7209 16.3595 51.7209 16.3595 51.126C16.2039 51.126 16.0483 51.126 15.888 51.126C14.945 50.0721 14.945 50.0721 14.945 49.4758C14.7894 49.4758 14.6339 49.4758 14.4736 49.4758C14.4722 49.7642 14.4708 50.0526 14.4694 50.3497C14.4559 53.0625 14.4388 55.7752 14.418 58.4879C14.4074 59.8827 14.3982 61.2774 14.3919 62.6722C14.3858 64.0173 14.3763 65.3624 14.3644 66.7075C14.3604 67.2216 14.3577 67.7357 14.3562 68.2499C14.354 68.968 14.3474 69.6859 14.3397 70.404C14.3401 70.6183 14.3404 70.8326 14.3408 71.0534C14.3318 71.6444 14.3318 71.6444 14.2378 72.5782C13.4536 73.101 13.2067 73.1091 12.293 73.1107C11.9142 73.1129 11.9142 73.1129 11.5277 73.1152C11.2552 73.1142 10.9826 73.1133 10.7017 73.1123C10.4219 73.1127 10.142 73.1132 9.85363 73.1137C9.26152 73.114 8.6694 73.1131 8.0773 73.1111C7.1693 73.1086 6.26141 73.1111 5.35341 73.1141C4.7788 73.1138 4.20418 73.1132 3.62957 73.1123C3.35699 73.1133 3.0844 73.1142 2.80356 73.1152C2.55104 73.1137 2.29851 73.1122 2.03833 73.1107C1.81589 73.1103 1.59345 73.1099 1.36427 73.1096C0.800703 73.0497 0.800703 73.0497 0.0934865 72.5782C0.00510881 72.1483 0.00510881 72.1483 0.00514811 71.6158C0.00344925 71.4132 0.00175034 71.2105 0 71.0017C0.00173841 70.7778 0.00347685 70.5538 0.00526794 70.3231C0.00433101 70.0862 0.00339414 69.8493 0.00242882 69.6053C0.000148263 68.8064 0.00295354 68.0076 0.00571757 67.2087C0.0051456 66.6381 0.0042692 66.0674 0.00310968 65.4968C0.00111678 64.1046 0.00243217 62.7126 0.00529334 61.3204C0.00849909 59.7005 0.00811845 58.0806 0.00761931 56.4607C0.00686677 53.571 0.00962101 50.6814 0.0142355 47.7918C0.0187157 44.9855 0.0203854 42.1792 0.01907 39.3729C0.0176431 36.3197 0.0176816 33.2665 0.0203632 30.2133C0.0206478 29.888 0.0209321 29.5626 0.0212161 29.2373C0.0214295 28.9972 0.0214294 28.9972 0.0216472 28.7522C0.0225631 27.622 0.0224684 26.4919 0.0220209 25.3617C0.0214695 23.8417 0.0234779 22.3216 0.0272214 20.8016C0.0282253 20.2422 0.0284197 19.6828 0.0277659 19.1235C0.0270115 18.3628 0.0291345 17.6022 0.0320303 16.8416C0.0311393 16.6176 0.0302484 16.3937 0.0293304 16.1629C0.0307053 15.9603 0.0320802 15.7576 0.0334968 15.5488C0.0337011 15.3731 0.0339054 15.1974 0.0341159 15.0163C0.179911 13.9607 0.948665 14.0543 1.82285 14.0502ZM118.434 25.4304C118.412 25.8861 118.407 26.3427 118.408 26.7989C118.408 27.0915 118.408 27.3841 118.408 27.6856C118.409 28.0073 118.41 28.329 118.411 28.6507C118.412 28.978 118.412 29.3054 118.412 29.6327C118.413 30.4958 118.416 31.3589 118.418 32.222C118.421 33.1021 118.422 33.9822 118.423 34.8623C118.425 36.5903 118.429 38.3183 118.434 40.0462C119.284 40.0671 120.134 40.0795 120.983 40.0904C121.22 40.0964 121.457 40.1023 121.701 40.1084C124.154 40.1321 126.624 39.706 128.527 38.0572C129.003 37.4996 129.199 37.2242 129.278 36.5102C129.434 36.5102 129.59 36.5102 129.75 36.5102C130.583 34.3133 130.897 32.0483 130.045 29.8063C129.875 29.4441 129.699 29.085 129.514 28.7308C129.383 28.478 129.252 28.2251 129.116 27.9646C127.478 26.016 125.395 25.4254 122.913 25.1947C120.53 24.9153 120.53 24.9153 118.434 25.4304ZM165.582 25.4304C165.56 25.8861 165.554 26.3427 165.555 26.7989C165.555 27.0915 165.555 27.3841 165.555 27.6856C165.557 28.0073 165.558 28.329 165.559 28.6507C165.56 28.978 165.56 29.3054 165.56 29.6327C165.561 30.4958 165.563 31.3589 165.566 32.222C165.568 33.1021 165.569 33.9822 165.571 34.8623C165.573 36.5903 165.577 38.3183 165.582 40.0462C166.432 40.0671 167.281 40.0795 168.131 40.0904C168.368 40.0964 168.605 40.1023 168.849 40.1084C171.285 40.1319 173.539 39.7028 175.483 38.1603C176.037 37.6448 176.037 37.6448 176.426 36.9816C176.514 36.8534 176.601 36.7252 176.691 36.593C177.424 35.3054 177.462 34.038 177.472 32.591C177.475 32.3997 177.477 32.2083 177.479 32.0112C177.461 30.7441 177.233 29.8622 176.662 28.7308C176.523 28.4464 176.523 28.4464 176.382 28.1562C176.319 28.0346 176.255 27.9131 176.19 27.7878C176.035 27.7878 175.879 27.7878 175.719 27.7878C175.602 27.4378 175.602 27.4378 175.483 27.0806C173.945 25.8287 167.336 23.6769 165.582 25.4304ZM75.7656 33.6813C75.7085 33.8609 75.6514 34.0405 75.5925 34.2255C74.8685 36.4561 74.8685 36.4561 74.3807 37.4973C73.9058 38.52 73.5404 39.5711 73.1725 40.6356C72.7463 41.8687 72.2958 43.0641 71.7434 44.2472C71.2768 45.332 70.9402 46.4666 70.5794 47.5899C70.4227 48.0615 70.2657 48.5331 70.1079 49.0043C70.6779 49.2893 71.0352 49.2685 71.6716 49.2668C71.8982 49.2668 72.1247 49.2668 72.358 49.2668C72.7256 49.2649 72.7256 49.2649 73.1007 49.2631C73.3512 49.2627 73.6017 49.2624 73.8598 49.2621C74.662 49.2608 75.4643 49.2578 76.2666 49.2548C76.8096 49.2536 77.3526 49.2525 77.8956 49.2516C79.2287 49.249 80.5618 49.245 81.8949 49.2401C82.2037 48.0306 81.891 47.282 81.3939 46.1755C81.2402 45.8183 81.0867 45.461 80.9335 45.1036C80.8568 44.9269 80.78 44.7502 80.701 44.5681C80.3856 43.8326 80.0922 43.0907 79.8027 42.3447C79.665 41.9928 79.665 41.9928 79.5246 41.6338C79.3148 41.0269 79.1744 40.4426 79.066 39.8105C78.9104 39.8105 78.7548 39.8105 78.5945 39.8105C78.558 39.5188 78.558 39.5188 78.5208 39.2212C78.2727 37.9578 77.7888 36.8141 77.2685 35.6409C76.9914 34.9734 76.8163 34.3921 76.7086 33.6813C76.3974 33.6813 76.0863 33.6813 75.7656 33.6813Z" fill="black"/>
</svg>
