<svg width="200" height="90" viewBox="0 0 200 90" fill="none" xmlns="http://www.w3.org/2000/svg">
<path d="M15.5677 19.1217C15.7936 19.1198 16.0196 19.1179 16.2524 19.1159C16.4974 19.1161 16.7423 19.1163 16.9947 19.1164C17.2452 19.1156 17.4956 19.1147 17.7537 19.1138C18.4201 19.1124 19.0865 19.113 19.753 19.1141C20.1621 19.1141 20.5711 19.112 20.9801 19.1093C21.7635 19.1043 22.5468 19.1035 23.3302 19.1038C23.6977 19.101 23.6977 19.101 24.0725 19.0982C24.4115 19.1 24.4115 19.1 24.7573 19.102C24.9568 19.1018 25.1564 19.1017 25.362 19.1016C25.5981 19.1391 25.5981 19.1391 25.8391 19.1773C26.3734 19.9773 26.3068 20.6704 26.3092 21.5995C26.3112 21.7851 26.3132 21.9707 26.3153 22.162C26.3216 22.7762 26.325 23.3905 26.3285 24.0048C26.3323 24.4304 26.3362 24.856 26.3404 25.2816C26.3508 26.4024 26.3588 27.5232 26.3663 28.644C26.3745 29.7875 26.3848 30.9309 26.395 32.0744C26.4146 34.3184 26.4317 36.5625 26.4473 38.8065C26.5484 38.6617 26.5484 38.6617 26.6516 38.514C26.7412 38.387 26.8309 38.26 26.9232 38.1291C27.0116 38.0033 27.0999 37.8776 27.1909 37.748C27.5712 37.2438 28.0279 36.8241 28.4746 36.3782C28.7989 35.9504 29.1126 35.5172 29.421 35.0778C29.5101 34.9727 29.5992 34.8676 29.691 34.7593C29.8248 34.7593 29.9586 34.7593 30.0965 34.7593C30.1509 34.6434 30.2052 34.5276 30.2612 34.4083C30.5103 33.9339 30.7909 33.52 31.1102 33.0898C31.2147 32.9468 31.3192 32.8039 31.4269 32.6566C31.5231 32.5491 31.6193 32.4416 31.7184 32.3309C31.8522 32.3309 31.986 32.3309 32.1238 32.3309C32.1866 32.2057 32.2493 32.0805 32.3139 31.9515C32.4533 31.6732 32.5927 31.395 32.7321 31.1167C32.8659 31.1167 32.9997 31.1167 33.1375 31.1167C33.2044 30.9164 33.2713 30.7161 33.3403 30.5096C33.4741 30.5096 33.6079 30.5096 33.7457 30.5096C33.7915 30.3664 33.8372 30.2232 33.8843 30.0757C34.2111 29.3681 34.6413 28.9114 35.1775 28.3469C35.8581 27.6626 35.8581 27.6626 36.3813 26.8671C36.5151 26.8671 36.6489 26.8671 36.7868 26.8671C36.8612 26.6989 36.8612 26.6989 36.9372 26.5272C37.2433 25.9636 37.6163 25.5123 38.0285 25.0205C38.8087 24.0858 39.565 23.1365 40.3085 22.1724C40.472 21.9921 40.472 21.9921 40.6387 21.808C40.7725 21.808 40.9063 21.808 41.0442 21.808C41.0986 21.6453 41.1529 21.4825 41.2089 21.3148C41.2884 21.1437 41.3678 20.9725 41.4497 20.7962C41.6504 20.7294 41.8511 20.6627 42.0579 20.5939C42.2001 20.3277 42.3347 20.0574 42.4634 19.7844C42.6979 19.4583 42.6979 19.4583 43.0716 19.1773C43.6604 19.1043 43.6604 19.1043 44.3875 19.1084C44.5201 19.1083 44.6527 19.1082 44.7892 19.1081C45.227 19.1085 45.6646 19.1133 46.1023 19.118C46.406 19.1192 46.7096 19.12 47.0133 19.1206C47.8122 19.1229 48.6111 19.1289 49.41 19.1356C50.2254 19.1418 51.0407 19.1446 51.8561 19.1477C53.4557 19.1542 55.0553 19.1645 56.6548 19.1773C56.7762 19.5494 56.7762 19.5494 56.8576 19.9868C56.5368 20.5085 56.5368 20.5085 56.0846 21.0492C55.937 21.2297 55.7893 21.4102 55.6372 21.5962C55.5047 21.7329 55.3722 21.8696 55.2357 22.0104C55.1019 22.0104 54.9681 22.0104 54.8302 22.0104C54.7581 22.1759 54.7581 22.1759 54.6845 22.3448C54.358 22.9419 53.95 23.4243 53.5124 23.9455C53.0436 24.5054 52.6003 25.0456 52.1947 25.6529C52.0608 25.6529 51.927 25.6529 51.7892 25.6529C51.7458 25.7588 51.7024 25.8647 51.6577 25.9739C51.2723 26.6611 50.7635 27.2138 50.2433 27.803C49.3396 28.8371 48.4713 29.8843 47.6379 30.976C47.5359 31.0892 47.434 31.2025 47.329 31.3191C47.1952 31.3191 47.0614 31.3191 46.9235 31.3191C46.8775 31.4652 46.8315 31.6113 46.7842 31.7618C46.4673 32.4395 46.0445 32.8312 45.5044 33.3427C45.4375 33.4763 45.3706 33.6098 45.3016 33.7475C45.1678 33.7475 45.034 33.7475 44.8962 33.7475C44.8335 33.8727 44.7707 33.9979 44.7061 34.1269C44.5667 34.4051 44.4274 34.6834 44.288 34.9616C44.1542 34.9616 44.0204 34.9616 43.8825 34.9616C43.8282 35.0802 43.7738 35.1987 43.7178 35.3208C43.4744 35.776 43.2104 36.1148 42.868 36.4999C42.693 36.6987 42.693 36.6987 42.5144 36.9015C42.393 37.0376 42.2716 37.1738 42.1466 37.3141C41.9052 37.5862 41.6642 37.8587 41.4235 38.1315C41.3168 38.2514 41.21 38.3712 41.1 38.4948C40.8235 38.8043 40.8235 38.8043 40.6387 39.2113C40.5049 39.2113 40.3711 39.2113 40.2333 39.2113C40.1789 39.3271 40.1245 39.4429 40.0685 39.5622C39.8194 40.0367 39.5388 40.4505 39.2196 40.8807C39.1151 41.0237 39.0105 41.1666 38.9028 41.3139C38.8066 41.4214 38.7105 41.5289 38.6114 41.6396C38.4776 41.6396 38.3438 41.6396 38.2059 41.6396C38.1056 41.9401 38.1056 41.9401 38.0032 42.2467C37.8694 42.2467 37.7356 42.2467 37.5977 42.2467C37.4241 42.8134 37.4241 42.8134 37.395 43.4609C37.7709 43.9205 37.7709 43.9205 38.2059 44.2703C38.2059 44.4039 38.2059 44.5374 38.2059 44.6751C38.3397 44.6751 38.4735 44.6751 38.6114 44.6751C38.9171 44.9707 38.9171 44.9707 39.2449 45.358C39.3542 45.4848 39.4634 45.6116 39.576 45.7422C39.8278 46.0916 39.8278 46.0916 39.8278 46.4963C39.9616 46.4963 40.0954 46.4963 40.2333 46.4963C41.2469 47.6045 41.2469 47.6045 41.2469 48.1152C41.3807 48.1152 41.5146 48.1152 41.6524 48.1152C41.9581 48.4109 41.9581 48.4109 42.286 48.7982C42.3952 48.925 42.5044 49.0518 42.617 49.1824C42.8688 49.5318 42.8688 49.5318 42.8688 49.9365C43.0026 49.9365 43.1364 49.9365 43.2743 49.9365C43.58 50.2321 43.58 50.2321 43.9078 50.6195C44.0171 50.7462 44.1263 50.873 44.2389 51.0036C44.4907 51.353 44.4907 51.353 44.4907 51.7578C44.6245 51.7578 44.7583 51.7578 44.8962 51.7578C45.9099 52.8659 45.9099 52.8659 45.9099 53.3767C46.0437 53.3767 46.1775 53.3767 46.3153 53.3767C46.6325 53.7192 46.9343 54.076 47.2276 54.4391C47.3886 54.6363 47.5496 54.8335 47.7155 55.0367C48.1399 55.6027 48.1399 55.6027 48.3617 56.0675C48.5338 56.4857 48.5338 56.4857 49.1536 56.6145C49.1536 56.748 49.1536 56.8816 49.1536 57.0192C49.2874 57.0192 49.4212 57.0192 49.5591 57.0192C50.5728 58.1274 50.5728 58.1274 50.5728 58.6381C50.7066 58.6381 50.8404 58.6381 50.9782 58.6381C51.2954 58.9806 51.5972 59.3374 51.8905 59.7005C52.0515 59.8977 52.2125 60.0949 52.3784 60.2981C52.8029 60.8641 52.8029 60.8641 53.0246 61.3289C53.1967 61.7471 53.1967 61.7471 53.8165 61.8759C53.8165 62.0095 53.8165 62.143 53.8165 62.2806C53.9503 62.2806 54.0841 62.2806 54.222 62.2806C54.5649 62.6277 54.5649 62.6277 54.9442 63.0774C55.07 63.2253 55.1957 63.3732 55.3252 63.5256C55.4294 63.649 55.5337 63.7724 55.6412 63.8995C55.7081 63.9663 55.775 64.0331 55.8439 64.1019C55.8883 63.9717 55.9327 63.8416 55.9785 63.7074C56.356 62.6338 56.7731 61.6009 57.263 60.5732C57.7608 59.522 58.1424 58.471 58.4937 57.3638C58.7071 56.7445 58.9834 56.1907 59.2904 55.6137C59.6195 54.9387 59.8518 54.2303 60.1013 53.5229C60.285 53.0238 60.4878 52.5445 60.7095 52.0613C61.0919 51.2253 61.4019 50.3726 61.7105 49.5073C62.0084 48.7016 62.3446 47.9139 62.6799 47.1232C62.9446 46.4844 63.1904 45.8407 63.4338 45.1936C63.8699 44.0475 64.3691 42.9418 64.8997 41.8364C65.1679 41.2389 65.374 40.6435 65.5752 40.0207C66.1355 38.5097 66.7379 37.0175 67.3634 35.5324C67.8261 34.4281 68.2643 33.3141 68.7057 32.2013C69.6095 29.929 69.6095 29.929 70.0607 28.9413C70.433 28.1232 70.7337 27.2864 71.0356 26.4402C71.3382 25.6215 71.6777 24.8198 72.0176 24.0158C72.2449 23.4758 72.4661 22.9339 72.6836 22.3898C72.7481 22.2289 72.8127 22.0679 72.8792 21.9021C73.0195 21.5473 73.157 21.1915 73.2926 20.835C73.3634 20.651 73.4342 20.4671 73.5072 20.2777C73.6021 20.0268 73.6021 20.0268 73.6989 19.771C73.8873 19.3797 73.8873 19.3797 74.2928 19.1773C74.627 19.1549 74.962 19.1451 75.2969 19.1415C75.506 19.1389 75.7151 19.1363 75.9305 19.1336C76.2704 19.1314 76.2704 19.1314 76.6171 19.1291C76.9651 19.1266 76.9651 19.1266 77.3201 19.1241C77.8114 19.1213 78.3028 19.1192 78.7941 19.1176C79.5475 19.1141 80.3006 19.1052 81.054 19.0963C81.5306 19.0942 82.0072 19.0925 82.4838 19.0912C82.71 19.0876 82.9362 19.0841 83.1692 19.0804C83.3789 19.081 83.5886 19.0816 83.8047 19.0822C84.0818 19.0804 84.0818 19.0804 84.3644 19.0786C84.8351 19.1773 84.835 19.1773 85.191 19.5612C85.4483 19.9954 85.6434 20.4134 85.8234 20.8848C85.8921 21.0624 85.9608 21.24 86.0317 21.4231C86.1051 21.6169 86.1785 21.8107 86.2542 22.0104C86.4187 22.4405 86.5834 22.8705 86.7484 23.3005C86.8338 23.5232 86.9193 23.746 87.0073 23.9755C87.3331 24.8078 87.6797 25.6303 88.0273 26.4537C88.2967 27.1061 88.5501 27.7632 88.8011 28.4228C89.145 29.3239 89.5123 30.2064 89.9114 31.0843C90.465 32.3267 90.9395 33.6027 91.4239 34.8731C91.7729 35.7828 92.1445 36.6747 92.5477 37.5615C92.9082 38.3708 93.2267 39.1971 93.5527 40.0207C93.7552 40.5267 93.958 41.0326 94.1609 41.5384C94.2662 41.8014 94.3715 42.0644 94.4769 42.3273C94.6481 42.7543 94.8195 43.1812 94.9916 43.6079C95.3664 44.5377 95.7299 45.471 96.0869 46.4078C96.4358 47.3175 96.8074 48.2094 97.2106 49.0962C97.5711 49.9055 97.8896 50.7318 98.2156 51.5554C98.4181 52.0614 98.6209 52.5673 98.8238 53.0731C98.9291 53.3361 99.0344 53.599 99.1398 53.862C99.311 54.289 99.4824 54.7159 99.6545 55.1426C100.029 56.0724 100.393 57.0057 100.75 57.9425C101.098 58.8501 101.468 59.7402 101.871 60.6246C102.162 61.2796 102.424 61.9457 102.686 62.6126C102.858 63.039 103.043 63.4561 103.233 63.8742C103.487 64.5066 103.487 64.5066 103.487 65.3161C103.621 65.3161 103.754 65.3161 103.892 65.3161C103.892 64.9612 103.892 64.9612 103.892 64.5992C103.887 58.9896 103.884 53.38 103.882 47.7703C103.882 47.0806 103.881 46.3908 103.881 45.701C103.881 45.4951 103.881 45.4951 103.881 45.2849C103.88 43.0585 103.878 40.8321 103.877 38.6056C103.875 36.3228 103.874 34.04 103.873 31.7571C103.873 30.4742 103.872 29.1912 103.871 27.9083C103.869 26.7023 103.869 25.4963 103.869 24.2903C103.869 23.8462 103.869 23.4022 103.868 22.9581C103.867 22.3547 103.867 21.7513 103.868 21.1479C103.867 20.8807 103.867 20.8807 103.866 20.6081C103.869 19.4028 103.869 19.4028 104.095 19.1773C104.721 19.1548 105.342 19.1455 105.968 19.1447C106.165 19.1437 106.362 19.1427 106.564 19.1417C107.22 19.1387 107.876 19.1373 108.531 19.1362C108.987 19.135 109.443 19.1339 109.899 19.1327C110.859 19.1306 111.819 19.1294 112.778 19.1287C114.001 19.1276 115.223 19.1228 116.446 19.117C117.39 19.1132 118.334 19.1121 119.278 19.1118C119.729 19.1112 120.179 19.1096 120.629 19.1069C123.698 19.09 126.571 19.1725 129.437 20.3915C129.594 20.4471 129.751 20.5026 129.913 20.5599C133.236 21.7647 136.02 24.3921 137.527 27.5643C138.598 30.0597 139.439 33.7461 138.56 36.3782C138.544 36.6942 138.532 37.0105 138.522 37.3267C138.374 39.1677 137.596 41.0284 136.735 42.6514C136.601 42.6514 136.468 42.6514 136.33 42.6514C136.309 42.7672 136.287 42.8831 136.266 43.0024C135.749 44.7108 134.05 45.8894 132.681 46.901C132.56 46.9968 132.439 47.0925 132.314 47.1912C131.314 47.9594 130.188 48.4342 129.031 48.9247C129.031 49.5612 129.441 49.8628 129.842 50.3412C130.653 51.3081 130.653 51.3081 130.653 51.7578C130.787 51.7578 130.921 51.7578 131.059 51.7578C131.367 52.0968 131.66 52.4492 131.946 52.8075C132.102 53.0024 132.258 53.1972 132.419 53.398C132.572 53.5913 132.726 53.7846 132.883 53.9837C133.036 54.1666 133.19 54.3495 133.347 54.5379C133.694 54.9956 133.694 54.9956 133.694 55.4003C133.828 55.4003 133.962 55.4003 134.1 55.4003C134.708 56.1008 134.708 56.1008 134.708 56.6145C134.842 56.6145 134.976 56.6145 135.113 56.6145C135.456 56.9915 135.456 56.9915 135.836 57.4872C135.961 57.6492 136.087 57.8111 136.217 57.978C136.533 58.4357 136.533 58.4357 136.735 59.0428C136.869 59.0428 137.003 59.0428 137.141 59.0428C137.466 59.3937 137.777 59.7588 138.078 60.1305C138.244 60.3324 138.41 60.5343 138.581 60.7424C138.965 61.2688 138.965 61.2688 138.965 61.6735C139.099 61.6735 139.233 61.6735 139.371 61.6735C139.759 62.1213 140.125 62.5703 140.486 63.0395C140.587 63.1678 140.688 63.2962 140.792 63.4284C141.268 64.0393 141.674 64.6137 142.006 65.3161C142.14 65.3161 142.274 65.3161 142.412 65.3161C142.755 65.7074 142.755 65.7074 143.134 66.2141C143.558 66.7988 143.558 66.7988 144.034 67.3397C144.034 67.0939 144.035 66.8482 144.036 66.595C144.052 60.7661 144.07 54.9372 144.091 49.1082C144.093 48.3914 144.096 47.6745 144.098 46.9577C144.099 46.8149 144.099 46.6722 144.1 46.5252C144.108 44.2119 144.114 41.8986 144.12 39.5853C144.127 37.213 144.135 34.8408 144.144 32.4685C144.149 31.1355 144.153 29.8024 144.156 28.4694C144.159 27.216 144.163 25.9627 144.169 24.7093C144.171 24.2481 144.172 23.7868 144.172 23.3256C144.173 22.6983 144.176 22.071 144.18 21.4438C144.18 21.2591 144.179 21.0745 144.179 20.8843C144.19 19.6282 144.19 19.6282 144.642 19.1773C145.006 19.1258 145.006 19.1258 145.455 19.1246C145.625 19.1231 145.796 19.1217 145.971 19.1202C146.252 19.121 146.252 19.121 146.538 19.1217C146.735 19.1207 146.932 19.1197 147.135 19.1186C147.789 19.1158 148.444 19.116 149.098 19.1164C149.554 19.1157 150.01 19.1148 150.465 19.1138C151.424 19.1123 152.382 19.1124 153.341 19.1134C154.562 19.1146 155.783 19.1112 157.004 19.1065C157.947 19.1035 158.89 19.1033 159.833 19.104C160.283 19.1039 160.733 19.1028 161.182 19.1008C164.418 19.0878 167.409 19.1962 170.389 20.5939C170.583 20.6812 170.776 20.7686 170.975 20.8587C172.441 21.5505 173.827 22.3582 175.052 23.4269C175.052 23.5605 175.052 23.6941 175.052 23.8317C175.253 23.8984 175.454 23.9652 175.66 24.034C176.269 24.7311 176.269 24.7311 176.269 25.2482C176.403 25.2482 176.536 25.2482 176.674 25.2482C176.899 25.6861 177.123 26.1247 177.346 26.5636C177.44 26.7459 177.44 26.7459 177.535 26.9319C179.319 30.4551 179.543 34.1414 178.904 37.9971C178.869 38.2235 178.833 38.4499 178.797 38.6832C178.406 40.6031 177.369 42.792 176.066 44.2703C175.932 44.2703 175.798 44.2703 175.66 44.2703C175.61 44.3872 175.56 44.5041 175.508 44.6245C175.218 45.1464 174.893 45.4969 174.444 45.8892C174.31 45.8892 174.176 45.8892 174.039 45.8892C174.039 46.0228 174.039 46.1563 174.039 46.294C172.551 47.4631 170.881 48.3288 169.173 49.127C169.307 49.2522 169.441 49.3775 169.578 49.5065C169.984 49.9365 169.984 49.9365 169.984 50.3412C170.118 50.3412 170.252 50.3412 170.389 50.3412C170.695 50.6811 170.695 50.6811 171.023 51.1254C171.132 51.2709 171.241 51.4165 171.354 51.5665C171.606 51.9601 171.606 51.9601 171.606 52.3648C171.74 52.3648 171.873 52.3648 172.011 52.3648C172.406 52.7933 172.406 52.7933 172.848 53.3514C172.994 53.5345 173.141 53.7176 173.293 53.9063C173.633 54.3885 173.633 54.3885 173.633 54.7932C173.834 54.86 174.035 54.9268 174.241 54.9956C174.482 55.5141 174.482 55.5141 174.647 56.0074C174.781 56.0074 174.914 56.0074 175.052 56.0074C175.335 56.3167 175.603 56.6401 175.863 56.9686C176.024 57.1697 176.185 57.3708 176.35 57.5781C176.435 57.6849 176.521 57.7916 176.608 57.9017C176.883 58.2413 177.164 58.5751 177.448 58.9077C177.541 59.0169 177.634 59.1261 177.729 59.2387C177.994 59.5492 178.26 59.8592 178.525 60.1693C178.904 60.6617 178.904 60.6617 178.904 61.0665C179.038 61.0665 179.172 61.0665 179.31 61.0665C179.618 61.4055 179.911 61.7579 180.197 62.1162C180.353 62.3111 180.509 62.5059 180.67 62.7067C180.823 62.9 180.977 63.0933 181.134 63.2924C181.287 63.4753 181.441 63.6582 181.598 63.8466C181.945 64.3043 181.945 64.3043 181.945 64.709C182.079 64.709 182.213 64.709 182.351 64.709C182.959 65.4095 182.959 65.4095 182.959 65.9232C183.093 65.9232 183.227 65.9232 183.364 65.9232C183.759 66.3516 183.759 66.3516 184.201 66.9097C184.348 67.0928 184.494 67.2759 184.646 67.4646C184.986 67.9468 184.986 67.9468 184.986 68.3515C185.12 68.3515 185.254 68.3515 185.392 68.3515C186 69.052 186 69.052 186 69.5657C185.313 69.7943 184.779 69.7994 184.055 69.8071C183.852 69.8096 183.852 69.8096 183.646 69.8121C183.2 69.8171 182.754 69.8205 182.308 69.8234C182.155 69.8245 182.003 69.8255 181.846 69.8267C181.039 69.8321 180.232 69.836 179.425 69.8389C178.757 69.8416 178.09 69.8473 177.423 69.8555C176.616 69.8655 175.81 69.8705 175.003 69.8719C174.696 69.8733 174.389 69.8764 174.082 69.8812C173.652 69.8876 173.223 69.8876 172.793 69.8861C172.548 69.8878 172.304 69.8894 172.052 69.8911C171.214 69.7322 170.917 69.4108 170.389 68.7562C170.322 68.5559 170.256 68.3556 170.187 68.1492C170.053 68.1492 169.919 68.1492 169.781 68.1492C169.488 67.798 169.212 67.4328 168.945 67.0615C168.798 66.8596 168.651 66.6576 168.5 66.4496C168.159 65.9232 168.159 65.9232 168.159 65.5184C168.025 65.5184 167.892 65.5184 167.754 65.5184C167.457 65.1624 167.177 64.7928 166.905 64.4181C166.742 64.1953 166.579 63.9727 166.415 63.7501C166.293 63.5832 166.293 63.5832 166.169 63.4129C165.715 62.8022 165.235 62.2126 164.756 61.6214C164.51 61.2688 164.51 61.2688 164.51 60.8641C164.376 60.8641 164.242 60.8641 164.105 60.8641C163.812 60.5129 163.535 60.1478 163.268 59.7764C163.121 59.5745 162.975 59.3726 162.823 59.1646C162.483 58.6381 162.483 58.6381 162.483 58.2334C162.349 58.2334 162.215 58.2334 162.077 58.2334C162.01 57.9663 161.943 57.6991 161.874 57.4239C161.741 57.4239 161.607 57.4239 161.469 57.4239C161.176 57.0727 160.9 56.7076 160.633 56.3362C160.486 56.1343 160.339 55.9324 160.188 55.7244C159.847 55.1979 159.847 55.1979 159.847 54.7932C159.713 54.7932 159.58 54.7932 159.442 54.7932C159.149 54.442 158.872 54.0769 158.605 53.7055C158.459 53.5036 158.312 53.3017 158.16 53.0937C157.82 52.5672 157.82 52.5672 157.82 52.1625C157.686 52.1625 157.552 52.1625 157.414 52.1625C156.806 51.462 156.806 51.462 156.806 50.9483C156.672 50.9483 156.538 50.9483 156.401 50.9483C156.402 51.1781 156.403 51.4079 156.405 51.6447C156.417 53.8066 156.426 55.9685 156.432 58.1304C156.435 59.242 156.44 60.3535 156.447 61.4651C156.453 62.537 156.457 63.609 156.458 64.681C156.459 65.0907 156.462 65.5004 156.465 65.9102C156.469 66.4825 156.47 67.0546 156.47 67.6269C156.473 67.8831 156.473 67.8831 156.476 68.1443C156.474 68.6156 156.474 68.6156 156.401 69.3633C155.738 69.8042 155.547 69.8196 154.779 69.8235C154.57 69.8256 154.361 69.8276 154.146 69.8297C153.916 69.8298 153.687 69.8299 153.45 69.8301C153.209 69.8317 152.967 69.8334 152.718 69.8352C152.055 69.8392 151.392 69.8414 150.729 69.8424C150.314 69.8432 149.9 69.8444 149.486 69.8459C148.04 69.8508 146.594 69.8535 145.148 69.8542C143.801 69.8549 142.454 69.861 141.106 69.8694C139.949 69.8765 138.792 69.8796 137.635 69.8797C136.944 69.8799 136.254 69.8817 135.563 69.8874C134.792 69.8928 134.021 69.8919 133.25 69.8894C133.022 69.8924 132.793 69.8954 132.558 69.8984C131.007 69.8839 131.007 69.8839 130.222 69.2822C130.097 69.1087 129.972 68.9351 129.842 68.7562C129.721 68.6102 129.6 68.4641 129.475 68.3136C129.234 67.9468 129.234 67.9468 129.234 67.5421C129.1 67.5421 128.966 67.5421 128.829 67.5421C128.506 67.1651 128.21 66.79 127.916 66.3911C127.835 66.2838 127.753 66.1764 127.668 66.0658C127.2 65.4375 126.852 64.8432 126.599 64.1019C126.465 64.1019 126.331 64.1019 126.193 64.1019C125.9 63.7507 125.624 63.3856 125.357 63.0142C125.21 62.8123 125.063 62.6104 124.912 62.4024C124.571 61.8759 124.571 61.8759 124.571 61.4712C124.437 61.4712 124.304 61.4712 124.166 61.4712C123.873 61.12 123.596 60.7549 123.329 60.3835C123.183 60.1816 123.036 59.9797 122.884 59.7716C122.544 59.2452 122.544 59.2452 122.544 58.8405C122.343 58.7737 122.142 58.7069 121.936 58.6381C121.654 58.3227 121.654 58.3227 121.391 57.9425C121.258 57.755 121.258 57.755 121.122 57.5638C120.922 57.2216 120.922 57.2216 120.922 56.8168C120.788 56.8168 120.654 56.8168 120.516 56.8168C120.223 56.4656 119.947 56.1005 119.68 55.7291C119.533 55.5272 119.386 55.3253 119.235 55.1173C118.895 54.5908 118.895 54.5908 118.895 54.1861C118.761 54.1861 118.627 54.1861 118.489 54.1861C118.196 53.8349 117.92 53.4698 117.653 53.0984C117.506 52.8965 117.359 52.6946 117.208 52.4866C116.867 51.9601 116.867 51.9601 116.867 51.5554C116.667 51.4886 116.466 51.4218 116.259 51.353C116.259 51.2195 116.259 51.0859 116.259 50.9483C116.125 50.9483 115.991 50.9483 115.854 50.9483C115.856 51.293 115.856 51.293 115.858 51.6447C115.87 53.8066 115.879 55.9685 115.885 58.1304C115.888 59.242 115.893 60.3535 115.899 61.4651C115.906 62.537 115.91 63.609 115.911 64.681C115.912 65.0907 115.915 65.5004 115.918 65.9102C115.922 66.4825 115.923 67.0546 115.923 67.6269C115.926 67.8831 115.926 67.8831 115.929 68.1443C115.927 68.6156 115.927 68.6156 115.854 69.3633C115.212 69.79 115.062 69.8188 114.33 69.8195C114.142 69.8206 113.954 69.8217 113.761 69.8229C113.556 69.8221 113.35 69.8213 113.139 69.8204C112.814 69.8215 112.814 69.8215 112.482 69.8226C111.765 69.8244 111.047 69.8232 110.329 69.8218C109.831 69.8221 109.334 69.8225 108.836 69.823C107.792 69.8236 106.749 69.8227 105.705 69.8208C104.365 69.8185 103.026 69.8198 101.686 69.8223C100.658 69.8237 99.6302 69.8233 98.6024 69.8222C98.1083 69.8219 97.6143 69.8223 97.1202 69.8232C96.4305 69.8242 95.7408 69.8227 95.051 69.8204C94.7429 69.8217 94.7429 69.8217 94.4286 69.8229C94.241 69.8218 94.0534 69.8206 93.8601 69.8195C93.697 69.8193 93.5339 69.8191 93.3659 69.819C92.9445 69.7681 92.9445 69.7681 92.3363 69.3633C92.1209 68.8424 92.1209 68.8424 91.9308 68.2124C91.7181 67.5338 91.5064 66.8917 91.2212 66.2394C90.9383 65.5686 90.7302 64.9131 90.5243 64.2157C90.2512 63.3051 89.9498 62.4776 89.4837 61.649C89.2318 61.1408 89.0694 60.5926 88.8898 60.0546C82.6678 60.0546 76.4459 60.0546 70.0354 60.0546C69.6339 61.3568 69.6339 61.3568 69.2244 62.6854C68.819 63.6086 68.819 63.6086 68.617 64.0379C68.2877 64.7963 68.0482 65.5832 67.7934 66.369C67.6376 66.8311 67.4697 67.2734 67.2731 67.7191C66.9808 68.3509 66.9808 68.3509 66.7789 69.0345C66.5889 69.5657 66.5889 69.5657 66.1834 69.7681C65.8934 69.7892 65.6024 69.798 65.3116 69.8006C65.037 69.8036 65.037 69.8036 64.7569 69.8067C64.4549 69.8085 64.4549 69.8085 64.1467 69.8103C63.9351 69.8123 63.7234 69.8143 63.5053 69.8163C62.8025 69.8224 62.0997 69.8267 61.3969 69.8305C61.1573 69.8318 60.9176 69.8332 60.6707 69.8345C59.4021 69.8411 58.1335 69.8461 56.8649 69.85C55.8139 69.8536 54.7631 69.8607 53.7122 69.8708C52.4445 69.8829 51.1769 69.8892 49.9092 69.8911C49.4258 69.8929 48.9425 69.8967 48.4591 69.9026C47.7825 69.9105 47.1062 69.9107 46.4296 69.9091C46.2298 69.9132 46.0301 69.9172 45.8243 69.9214C44.8569 69.9111 44.2623 69.8629 43.5459 69.1775C43.0716 68.5539 43.0716 68.5539 43.0716 68.1492C42.9378 68.1492 42.8039 68.1492 42.6661 68.1492C42.3489 67.8066 42.0471 67.4499 41.7538 67.0868C41.5928 66.8895 41.4318 66.6923 41.2659 66.4891C40.9251 66.0347 40.6628 65.6304 40.436 65.1137C40.3022 65.1137 40.1684 65.1137 40.0305 65.1137C39.0169 64.0055 39.0169 64.0055 39.0169 63.4948C38.8161 63.428 38.6154 63.3612 38.4086 63.2924C38.0826 62.9419 37.7717 62.5772 37.471 62.2047C37.3095 62.007 37.148 61.8093 36.9816 61.6056C36.584 61.0665 36.584 61.0665 36.3813 60.4594C36.1806 60.3926 35.9799 60.3258 35.7731 60.257C34.7594 59.1511 34.7594 59.1511 34.7594 58.6381C34.6256 58.6381 34.4918 58.6381 34.3539 58.6381C33.7457 57.9376 33.7457 57.9376 33.7457 57.4239C33.545 57.3571 33.3443 57.2904 33.1375 57.2216C33.0024 56.8843 32.8672 56.547 32.7321 56.2097C32.5313 56.143 32.3306 56.0762 32.1238 56.0074C32.1238 55.8738 32.1238 55.7403 32.1238 55.6027C31.99 55.6027 31.8562 55.6027 31.7184 55.6027C31.324 55.1742 31.324 55.1742 30.8821 54.6161C30.7352 54.433 30.5883 54.2499 30.437 54.0612C30.0965 53.579 30.0965 53.579 30.0965 53.1743C29.8958 53.1075 29.6951 53.0407 29.4883 52.9719C29.4883 52.8384 29.4883 52.7048 29.4883 52.5672C29.3545 52.5672 29.2207 52.5672 29.0828 52.5672C28.0691 51.459 28.0691 51.459 28.0691 50.9483C27.9353 50.9483 27.8015 50.9483 27.6637 50.9483C26.8527 50.0436 26.8527 50.0436 26.8527 49.5318C26.7189 49.5318 26.5851 49.5318 26.4473 49.5318C26.4461 49.7793 26.4449 50.0269 26.4437 50.2819C26.4321 52.6106 26.4173 54.9393 26.3995 57.2679C26.3904 58.4652 26.3824 59.6625 26.377 60.8598C26.3718 62.0145 26.3636 63.1691 26.3534 64.3238C26.35 64.7651 26.3476 65.2065 26.3464 65.6478C26.3444 66.2642 26.3388 66.8805 26.3322 67.4969C26.3325 67.6809 26.3328 67.8649 26.3331 68.0544C26.3254 68.5618 26.3254 68.5618 26.2445 69.3633C25.5701 69.8121 25.3577 69.8191 24.572 69.8204C24.2462 69.8223 24.2462 69.8223 23.9139 69.8243C23.6794 69.8235 23.445 69.8227 23.2035 69.8218C22.9628 69.8222 22.7221 69.8226 22.4741 69.823C21.9649 69.8233 21.4557 69.8225 20.9465 69.8208C20.1656 69.8187 19.3848 69.8208 18.6039 69.8234C18.1098 69.8231 17.6156 69.8226 17.1214 69.8218C16.887 69.8226 16.6526 69.8235 16.4111 69.8243C16.1939 69.823 15.9767 69.8217 15.753 69.8204C15.5617 69.8201 15.3704 69.8198 15.1733 69.8195C14.6886 69.7681 14.6886 69.7681 14.0804 69.3633C14.0044 68.9943 14.0044 68.9943 14.0044 68.5372C14.003 68.3632 14.0015 68.1893 14 68.01C14.0015 67.8178 14.003 67.6256 14.0045 67.4275C14.0037 67.2242 14.0029 67.0208 14.0021 66.8113C14.0001 66.1255 14.0025 65.4398 14.0049 64.754C14.0044 64.2642 14.0037 63.7743 14.0027 63.2845C14.001 62.0895 14.0021 60.8945 14.0046 59.6994C14.0073 58.3089 14.007 56.9183 14.0066 55.5277C14.0059 53.0472 14.0083 50.5667 14.0122 48.0862C14.0161 45.6772 14.0175 43.2682 14.0164 40.8592C14.0152 38.2383 14.0152 35.6174 14.0175 32.9965C14.0178 32.7172 14.018 32.4379 14.0182 32.1586C14.0184 31.9525 14.0184 31.9525 14.0186 31.7422C14.0194 30.772 14.0193 29.8019 14.0189 28.8318C14.0185 27.5269 14.0202 26.2221 14.0234 24.9172C14.0243 24.437 14.0244 23.9569 14.0239 23.4767C14.0232 22.8237 14.0251 22.1708 14.0275 21.5179C14.0268 21.3256 14.026 21.1334 14.0252 20.9353C14.0264 20.7614 14.0276 20.5874 14.0288 20.4082C14.029 20.2573 14.0292 20.1065 14.0293 19.951C14.1547 19.0449 14.8159 19.1252 15.5677 19.1217ZM115.854 28.8907C115.835 29.2819 115.83 29.6738 115.831 30.0654C115.831 30.3166 115.831 30.5678 115.831 30.8266C115.832 31.1027 115.833 31.3789 115.834 31.655C115.834 31.9361 115.834 32.2171 115.835 32.4981C115.835 33.239 115.837 33.9798 115.84 34.7207C115.842 35.4762 115.843 36.2317 115.844 36.9872C115.846 38.4706 115.849 39.9539 115.854 41.4372C116.584 41.4552 117.315 41.4658 118.046 41.4752C118.249 41.4803 118.453 41.4854 118.663 41.4906C120.773 41.5109 122.897 41.1452 124.533 39.7298C124.943 39.2511 125.111 39.0148 125.179 38.4018C125.313 38.4018 125.447 38.4018 125.585 38.4018C126.301 36.5159 126.572 34.5717 125.838 32.6471C125.693 32.3362 125.541 32.0279 125.382 31.7238C125.269 31.5068 125.156 31.2898 125.04 31.0661C123.631 29.3934 121.84 28.8864 119.706 28.6884C117.656 28.4485 117.656 28.4485 115.854 28.8907ZM156.401 28.8907C156.382 29.2819 156.377 29.6738 156.378 30.0654C156.378 30.3166 156.378 30.5678 156.378 30.8266C156.379 31.1027 156.38 31.3789 156.381 31.655C156.381 31.9361 156.381 32.2171 156.382 32.4981C156.382 33.239 156.384 33.9798 156.387 34.7207C156.389 35.4762 156.39 36.2317 156.391 36.9872C156.393 38.4706 156.396 39.9539 156.401 41.4372C157.131 41.4552 157.862 41.4658 158.593 41.4752C158.796 41.4803 159 41.4854 159.21 41.4906C161.305 41.5108 163.243 41.1425 164.916 39.8183C165.392 39.3758 165.392 39.3758 165.726 38.8065C165.802 38.6964 165.877 38.5864 165.955 38.4729C166.585 37.3676 166.617 36.2797 166.626 35.0375C166.628 34.8733 166.63 34.709 166.632 34.5398C166.617 33.4521 166.42 32.6951 165.929 31.7238C165.81 31.4797 165.81 31.4797 165.688 31.2306C165.634 31.1262 165.58 31.0219 165.524 30.9144C165.39 30.9144 165.256 30.9144 165.118 30.9144C165.018 30.6139 165.018 30.6139 164.916 30.3073C163.593 29.2326 157.909 27.3854 156.401 28.8907ZM79.1585 35.9734C79.1093 36.1276 79.0602 36.2818 79.0096 36.4406C78.3869 38.3554 78.3869 38.3554 77.9674 39.2492C77.559 40.1271 77.2447 41.0294 76.9284 41.9432C76.5619 43.0017 76.1743 44.0279 75.6993 45.0434C75.298 45.9746 75.0086 46.9486 74.6983 47.9129C74.5635 48.3177 74.4285 48.7225 74.2928 49.127C74.783 49.3717 75.0902 49.3538 75.6376 49.3524C75.8324 49.3524 76.0272 49.3523 76.2279 49.3523C76.5441 49.3508 76.5441 49.3508 76.8666 49.3492C77.082 49.3489 77.2974 49.3486 77.5194 49.3483C78.2094 49.3472 78.8993 49.3446 79.5893 49.342C80.0562 49.341 80.5232 49.3401 80.9902 49.3393C82.1367 49.337 83.2831 49.3337 84.4296 49.3294C84.6952 48.2912 84.4263 47.6486 83.9988 46.6987C83.8665 46.3921 83.7346 46.0854 83.6028 45.7786C83.5368 45.6269 83.4708 45.4752 83.4028 45.3189C83.1316 44.6876 82.8793 44.0507 82.6303 43.4103C82.5119 43.1082 82.5119 43.1082 82.3911 42.8C82.2107 42.279 82.09 41.7775 81.9968 41.2349C81.8629 41.2349 81.7291 41.2349 81.5913 41.2349C81.5599 40.9845 81.5599 40.9845 81.5279 40.729C81.3145 39.6445 80.8984 38.6627 80.4509 37.6556C80.2126 37.0826 80.062 36.5836 79.9694 35.9734C79.7018 35.9734 79.4342 35.9734 79.1585 35.9734Z" fill="black"/>
</svg>
