<svg width="24" height="27" viewBox="0 0 24 27" fill="none" xmlns="http://www.w3.org/2000/svg">
<g opacity="0.4">
<path d="M11.6788 0C9.23052 0 6.88249 0.972583 5.15128 2.70379C3.42007 4.435 2.44749 6.78303 2.44749 9.23133V16.4318L0.40429 19.5089C0.15939 19.8865 0.0204801 20.3229 0.0020961 20.7726C-0.0162879 21.2223 0.0865298 21.6687 0.29979 22.065C0.51305 22.4613 0.828913 22.793 1.21432 23.0254C1.59974 23.2578 2.04053 23.3824 2.49057 23.386H20.8671C21.32 23.3845 21.7641 23.2605 22.1523 23.0272C22.5405 22.7938 22.8584 22.4598 23.0722 22.0605C23.2861 21.6613 23.3879 21.2116 23.367 20.7591C23.3461 20.3066 23.2031 19.8683 22.9533 19.4904L20.9101 16.4318V9.23133C20.9101 6.78303 19.9376 4.435 18.2064 2.70379C16.4751 0.972583 14.1271 0 11.6788 0Z" fill="black"/>
<path d="M11.6788 27C12.4417 26.9991 13.1856 26.762 13.8082 26.3212C14.4308 25.8804 14.9017 25.2575 15.156 24.5383H8.20169C8.45598 25.2575 8.9268 25.8804 9.54944 26.3212C10.1721 26.762 10.9159 26.9991 11.6788 27Z" fill="black"/>
</g>
</svg>
