<svg width="20" height="20" viewBox="0 0 20 20" fill="none" xmlns="http://www.w3.org/2000/svg">
<g clip-path="url(#clip0_880_2243)">
<path d="M15.3125 10C12.7279 10 10.625 12.1029 10.625 14.6875C10.625 17.2721 12.7279 19.375 15.3125 19.375C17.8971 19.375 20 17.2721 20 14.6875C20 12.1029 17.8971 10 15.3125 10ZM18.0705 13.9299L15.1408 16.8596C15.0264 16.974 14.8764 17.0312 14.7266 17.0312C14.5767 17.0312 14.4267 16.974 14.3123 16.8596L12.5545 15.1018C12.3256 14.8729 12.3256 14.5021 12.5545 14.2732C12.7834 14.0443 13.1542 14.0443 13.383 14.2732L14.7266 15.6168L17.242 13.1013C17.4709 12.8725 17.8417 12.8725 18.0705 13.1013C18.2994 13.3302 18.2994 13.701 18.0705 13.9299Z" fill="black"/>
<path d="M15.8984 0.625H1.75781C0.788516 0.625 0 1.41352 0 2.38281V2.96875H17.6562V2.38281C17.6562 1.41352 16.8677 0.625 15.8984 0.625Z" fill="black"/>
<path d="M17.6562 4.14062H0V5.3125H17.6562V4.14062Z" fill="black"/>
<path d="M0 6.48438V12.9297C0 13.899 0.788516 14.6875 1.75781 14.6875H9.45312C9.45312 11.4568 12.0818 8.82812 15.3125 8.82812C16.1466 8.82812 16.9372 9.00914 17.6562 9.3248V6.48438H0ZM6.52344 12.3438H2.92969C2.60582 12.3438 2.34375 12.0817 2.34375 11.7578C2.34375 11.4339 2.60582 11.1719 2.92969 11.1719H6.52344C6.8473 11.1719 7.10938 11.4339 7.10938 11.7578C7.10938 12.0817 6.8473 12.3438 6.52344 12.3438ZM6.52344 10H2.92969C2.60582 10 2.34375 9.73793 2.34375 9.41406C2.34375 9.0902 2.60582 8.82812 2.92969 8.82812H6.52344C6.8473 8.82812 7.10938 9.0902 7.10938 9.41406C7.10938 9.73793 6.8473 10 6.52344 10Z" fill="black"/>
</g>
<defs>
<clipPath id="clip0_880_2243">
<rect width="20" height="20" fill="white"/>
</clipPath>
</defs>
</svg>
