<svg width="20" height="20" viewBox="0 0 20 20" fill="none" xmlns="http://www.w3.org/2000/svg">
<path d="M19.2526 5.2728L19.0559 4.15694C18.8969 3.25786 17.9347 2.67591 16.906 2.85717L3.52246 5.21726H18.6828C18.8784 5.21726 19.0688 5.23697 19.2526 5.2728Z" fill="black"/>
<path d="M18.6827 6.61108H1.31747C0.591022 6.61108 0 7.0885 0 7.67509V16.1117C0 16.6983 0.591022 17.1757 1.31747 17.1757H18.6827C19.409 17.1757 20 16.6983 20 16.1117V7.67509C19.9999 7.08829 19.409 6.61108 18.6827 6.61108ZM6.19403 16.0922H4.80016V14.8926H6.19403V16.0922ZM6.19403 13.6928H4.80016V12.4932H6.19403V13.6928ZM6.19403 11.2935H4.80016V10.0938H6.19403V11.2935ZM6.19403 8.89413H4.80016V7.69438H6.19403V8.89413ZM16.4355 10.3384L9.14286 11.6355L16.3293 14.5699L16.5714 14C16.7834 12.8889 15.7737 13.7735 15.7143 13.7143L14.1324 12.493L11.7143 13.4286L12.2857 14.5715L12.6813 15.167C12.6365 15.2118 12.6158 11.4732 12.5714 11.4286L10.6109 13.2587C10.5661 13.2139 11.9142 13.4732 11.959 13.4286L11.7143 13.1429L11.959 12.9655L13.2667 11.6355L12.8571 10.8572C12.7977 10.7982 14.406 10.9166 14.465 10.8572L11.2082 9.44847L14.1324 14.8296L15.4255 9.32812C15.7208 9.03282 13.2499 12.4803 13.5288 12.7593C13.8072 13.038 16.7303 10.0432 16.4355 10.3384Z" fill="black"/>
</svg>
