<svg width="245" height="141" viewBox="0 0 245 141" fill="none" xmlns="http://www.w3.org/2000/svg">
<rect x="0.5" y="0.5" width="244" height="140" rx="10.5" fill="#2D927E" fill-opacity="0.05" stroke="#2D927E" stroke-dasharray="4 4"/>
<g opacity="0.5">
<g clip-path="url(#clip0_6_306)">
<path d="M112.895 66.341C110.36 66.341 108.106 64.718 107.287 62.3018L107.231 62.1197C107.038 61.4798 106.957 60.9417 106.957 60.4033V49.6077L103.116 62.4299C102.622 64.3159 103.748 66.2711 105.637 66.7921L130.121 73.349C130.426 73.4282 130.732 73.4662 131.033 73.4662C132.61 73.4662 134.051 72.4195 134.454 70.8771L135.881 66.341H112.895Z" fill="black"/>
<path d="M117.249 49.7156C118.996 49.7156 120.416 48.2952 120.416 46.5487C120.416 44.8022 118.996 43.3819 117.249 43.3819C115.503 43.3819 114.083 44.8022 114.083 46.5487C114.083 48.2952 115.503 49.7156 117.249 49.7156Z" fill="black"/>
<path d="M137.041 38.6318H113.291C111.109 38.6318 109.333 40.4085 109.333 42.5905V60.0074C109.333 62.1893 111.109 63.966 113.291 63.966H137.041C139.223 63.966 141 62.1893 141 60.0074V42.5905C141 40.4085 139.223 38.6318 137.041 38.6318ZM113.291 41.7987H137.041C137.479 41.7987 137.833 42.1533 137.833 42.5905V53.8308L132.831 47.9944C132.301 47.3722 131.533 47.0396 130.708 47.0208C129.888 47.0254 129.118 47.3896 128.593 48.0199L122.712 55.0784L120.796 53.1672C119.713 52.0843 117.951 52.0843 116.869 53.1672L112.499 57.5358V42.5905C112.499 42.1533 112.854 41.7987 113.291 41.7987Z" fill="black"/>
</g>
<path d="M52.8302 100.974C53.1742 100.974 53.4822 100.916 53.7542 100.8C54.0262 100.684 54.2562 100.522 54.4442 100.314C54.6322 100.102 54.7762 99.852 54.8762 99.564C54.9762 99.272 55.0262 98.95 55.0262 98.598V93.384H56.2982V98.598C56.2982 99.102 56.2182 99.568 56.0582 99.996C55.8982 100.424 55.6682 100.794 55.3682 101.106C55.0682 101.418 54.7042 101.662 54.2762 101.838C53.8482 102.014 53.3662 102.102 52.8302 102.102C52.2942 102.102 51.8122 102.014 51.3842 101.838C50.9562 101.662 50.5922 101.418 50.2922 101.106C49.9922 100.794 49.7622 100.424 49.6022 99.996C49.4422 99.568 49.3622 99.102 49.3622 98.598V93.384H50.6402V98.592C50.6402 98.944 50.6882 99.266 50.7842 99.558C50.8842 99.85 51.0282 100.102 51.2162 100.314C51.4042 100.522 51.6342 100.684 51.9062 100.8C52.1782 100.916 52.4862 100.974 52.8302 100.974ZM59.0604 100.5C59.2524 100.752 59.4584 100.928 59.6784 101.028C59.9024 101.128 60.1524 101.178 60.4284 101.178C60.9644 101.178 61.3784 100.986 61.6704 100.602C61.9664 100.214 62.1144 99.65 62.1144 98.91C62.1144 98.522 62.0804 98.192 62.0124 97.92C61.9484 97.644 61.8524 97.42 61.7244 97.248C61.6004 97.072 61.4464 96.944 61.2624 96.864C61.0784 96.78 60.8704 96.738 60.6384 96.738C60.2984 96.738 60.0024 96.814 59.7504 96.966C59.5024 97.118 59.2724 97.334 59.0604 97.614V100.5ZM59.0004 96.816C59.1284 96.664 59.2644 96.526 59.4084 96.402C59.5564 96.274 59.7144 96.166 59.8824 96.078C60.0504 95.986 60.2284 95.916 60.4164 95.868C60.6084 95.816 60.8124 95.79 61.0284 95.79C61.3764 95.79 61.6904 95.858 61.9704 95.994C62.2544 96.13 62.4964 96.33 62.6964 96.594C62.8964 96.858 63.0504 97.184 63.1584 97.572C63.2704 97.96 63.3264 98.406 63.3264 98.91C63.3264 99.362 63.2644 99.782 63.1404 100.17C63.0204 100.554 62.8464 100.888 62.6184 101.172C62.3944 101.456 62.1184 101.68 61.7904 101.844C61.4664 102.004 61.1004 102.084 60.6924 102.084C60.3284 102.084 60.0164 102.024 59.7564 101.904C59.4964 101.784 59.2644 101.616 59.0604 101.4V104.046H57.8904V95.904H58.5924C58.7564 95.904 58.8584 95.982 58.8984 96.138L59.0004 96.816ZM65.8404 93.144V102H64.6644V93.144H65.8404ZM70.1095 95.808C70.5575 95.808 70.9615 95.882 71.3215 96.03C71.6855 96.174 71.9935 96.384 72.2455 96.66C72.5015 96.932 72.6975 97.262 72.8335 97.65C72.9695 98.034 73.0375 98.466 73.0375 98.946C73.0375 99.426 72.9695 99.86 72.8335 100.248C72.6975 100.636 72.5015 100.966 72.2455 101.238C71.9935 101.51 71.6855 101.72 71.3215 101.868C70.9615 102.012 70.5575 102.084 70.1095 102.084C69.6575 102.084 69.2495 102.012 68.8855 101.868C68.5255 101.72 68.2175 101.51 67.9615 101.238C67.7055 100.966 67.5075 100.636 67.3675 100.248C67.2315 99.86 67.1635 99.426 67.1635 98.946C67.1635 98.466 67.2315 98.034 67.3675 97.65C67.5075 97.262 67.7055 96.932 67.9615 96.66C68.2175 96.384 68.5255 96.174 68.8855 96.03C69.2495 95.882 69.6575 95.808 70.1095 95.808ZM70.1095 101.172C70.6855 101.172 71.1155 100.978 71.3995 100.59C71.6835 100.202 71.8255 99.656 71.8255 98.952C71.8255 98.248 71.6835 97.702 71.3995 97.314C71.1155 96.922 70.6855 96.726 70.1095 96.726C69.5255 96.726 69.0895 96.922 68.8015 97.314C68.5175 97.702 68.3755 98.248 68.3755 98.952C68.3755 99.656 68.5175 100.202 68.8015 100.59C69.0895 100.978 69.5255 101.172 70.1095 101.172ZM77.6195 99.294C77.1435 99.31 76.7395 99.348 76.4075 99.408C76.0755 99.464 75.8055 99.54 75.5975 99.636C75.3895 99.732 75.2395 99.846 75.1475 99.978C75.0555 100.106 75.0095 100.25 75.0095 100.41C75.0095 100.562 75.0335 100.694 75.0815 100.806C75.1335 100.914 75.2015 101.004 75.2855 101.076C75.3735 101.144 75.4755 101.194 75.5915 101.226C75.7075 101.258 75.8335 101.274 75.9695 101.274C76.1495 101.274 76.3135 101.256 76.4615 101.22C76.6135 101.184 76.7555 101.134 76.8875 101.07C77.0195 101.002 77.1455 100.92 77.2655 100.824C77.3855 100.728 77.5035 100.618 77.6195 100.494V99.294ZM74.1875 96.756C74.5275 96.432 74.8955 96.19 75.2915 96.03C75.6915 95.87 76.1295 95.79 76.6055 95.79C76.9535 95.79 77.2615 95.848 77.5295 95.964C77.7975 96.076 78.0235 96.234 78.2075 96.438C78.3915 96.642 78.5295 96.886 78.6215 97.17C78.7175 97.454 78.7655 97.768 78.7655 98.112V102H78.2435C78.1275 102 78.0395 101.982 77.9795 101.946C77.9195 101.906 77.8715 101.834 77.8355 101.73L77.7095 101.196C77.5535 101.34 77.3995 101.468 77.2475 101.58C77.0955 101.688 76.9355 101.782 76.7675 101.862C76.6035 101.938 76.4275 101.996 76.2395 102.036C76.0515 102.076 75.8435 102.096 75.6155 102.096C75.3755 102.096 75.1495 102.064 74.9375 102C74.7295 101.932 74.5475 101.83 74.3915 101.694C74.2355 101.558 74.1115 101.388 74.0195 101.184C73.9315 100.98 73.8875 100.742 73.8875 100.47C73.8875 100.23 73.9515 100 74.0795 99.78C74.2115 99.556 74.4235 99.356 74.7155 99.18C75.0115 99.004 75.3955 98.86 75.8675 98.748C76.3435 98.636 76.9275 98.572 77.6195 98.556V98.112C77.6195 97.652 77.5215 97.308 77.3255 97.08C77.1295 96.852 76.8415 96.738 76.4615 96.738C76.2055 96.738 75.9895 96.77 75.8135 96.834C75.6415 96.898 75.4915 96.97 75.3635 97.05C75.2395 97.126 75.1295 97.196 75.0335 97.26C74.9415 97.324 74.8455 97.356 74.7455 97.356C74.6655 97.356 74.5955 97.334 74.5355 97.29C74.4795 97.246 74.4335 97.194 74.3975 97.134L74.1875 96.756ZM84.2618 97.38C84.0698 97.128 83.8618 96.952 83.6378 96.852C83.4178 96.752 83.1698 96.702 82.8938 96.702C82.3578 96.702 81.9418 96.896 81.6458 97.284C81.3538 97.668 81.2078 98.23 81.2078 98.97C81.2078 99.358 81.2398 99.69 81.3038 99.966C81.3718 100.238 81.4678 100.462 81.5918 100.638C81.7198 100.81 81.8758 100.938 82.0598 101.022C82.2438 101.102 82.4518 101.142 82.6838 101.142C83.0238 101.142 83.3178 101.066 83.5658 100.914C83.8138 100.762 84.0458 100.548 84.2618 100.272V97.38ZM85.4378 93.144V102H84.7298C84.5658 102 84.4638 101.922 84.4238 101.766L84.3218 101.064C84.0618 101.372 83.7658 101.62 83.4338 101.808C83.1058 101.992 82.7258 102.084 82.2938 102.084C81.9458 102.084 81.6298 102.016 81.3458 101.88C81.0658 101.744 80.8258 101.546 80.6258 101.286C80.4258 101.022 80.2718 100.696 80.1638 100.308C80.0558 99.92 80.0018 99.474 80.0018 98.97C80.0018 98.518 80.0618 98.098 80.1818 97.71C80.3018 97.322 80.4758 96.986 80.7038 96.702C80.9318 96.418 81.2078 96.196 81.5318 96.036C81.8558 95.872 82.2218 95.79 82.6298 95.79C82.9978 95.79 83.3098 95.85 83.5658 95.97C83.8258 96.09 84.0578 96.26 84.2618 96.48V93.144H85.4378ZM92.7032 95.808C93.1512 95.808 93.5552 95.882 93.9152 96.03C94.2792 96.174 94.5872 96.384 94.8392 96.66C95.0952 96.932 95.2912 97.262 95.4272 97.65C95.5632 98.034 95.6312 98.466 95.6312 98.946C95.6312 99.426 95.5632 99.86 95.4272 100.248C95.2912 100.636 95.0952 100.966 94.8392 101.238C94.5872 101.51 94.2792 101.72 93.9152 101.868C93.5552 102.012 93.1512 102.084 92.7032 102.084C92.2512 102.084 91.8432 102.012 91.4792 101.868C91.1192 101.72 90.8112 101.51 90.5552 101.238C90.2992 100.966 90.1012 100.636 89.9612 100.248C89.8252 99.86 89.7572 99.426 89.7572 98.946C89.7572 98.466 89.8252 98.034 89.9612 97.65C90.1012 97.262 90.2992 96.932 90.5552 96.66C90.8112 96.384 91.1192 96.174 91.4792 96.03C91.8432 95.882 92.2512 95.808 92.7032 95.808ZM92.7032 101.172C93.2792 101.172 93.7092 100.978 93.9932 100.59C94.2772 100.202 94.4192 99.656 94.4192 98.952C94.4192 98.248 94.2772 97.702 93.9932 97.314C93.7092 96.922 93.2792 96.726 92.7032 96.726C92.1192 96.726 91.6832 96.922 91.3952 97.314C91.1112 97.702 90.9692 98.248 90.9692 98.952C90.9692 99.656 91.1112 100.202 91.3952 100.59C91.6832 100.978 92.1192 101.172 92.7032 101.172ZM98.0412 97.074C98.2372 96.674 98.4732 96.36 98.7492 96.132C99.0252 95.904 99.3572 95.79 99.7452 95.79C99.8772 95.79 100.001 95.806 100.117 95.838C100.237 95.866 100.341 95.91 100.429 95.97L100.351 96.852C100.323 96.96 100.257 97.014 100.153 97.014C100.097 97.014 100.013 97.004 99.9012 96.984C99.7892 96.96 99.6692 96.948 99.5412 96.948C99.3532 96.948 99.1872 96.976 99.0432 97.032C98.8992 97.084 98.7692 97.164 98.6532 97.272C98.5412 97.376 98.4412 97.506 98.3532 97.662C98.2652 97.814 98.1832 97.988 98.1072 98.184V102H96.9372V95.904H97.6092C97.7372 95.904 97.8232 95.928 97.8672 95.976C97.9152 96.02 97.9492 96.1 97.9692 96.216L98.0412 97.074ZM108.039 97.38C107.847 97.128 107.639 96.952 107.415 96.852C107.195 96.752 106.947 96.702 106.671 96.702C106.135 96.702 105.719 96.896 105.423 97.284C105.131 97.668 104.985 98.23 104.985 98.97C104.985 99.358 105.017 99.69 105.081 99.966C105.149 100.238 105.245 100.462 105.369 100.638C105.497 100.81 105.653 100.938 105.837 101.022C106.021 101.102 106.229 101.142 106.461 101.142C106.801 101.142 107.095 101.066 107.343 100.914C107.591 100.762 107.823 100.548 108.039 100.272V97.38ZM109.215 93.144V102H108.507C108.343 102 108.241 101.922 108.201 101.766L108.099 101.064C107.839 101.372 107.543 101.62 107.211 101.808C106.883 101.992 106.503 102.084 106.071 102.084C105.723 102.084 105.407 102.016 105.123 101.88C104.843 101.744 104.603 101.546 104.403 101.286C104.203 101.022 104.049 100.696 103.941 100.308C103.833 99.92 103.779 99.474 103.779 98.97C103.779 98.518 103.839 98.098 103.959 97.71C104.079 97.322 104.253 96.986 104.481 96.702C104.709 96.418 104.985 96.196 105.309 96.036C105.633 95.872 105.999 95.79 106.407 95.79C106.775 95.79 107.087 95.85 107.343 95.97C107.603 96.09 107.835 96.26 108.039 96.48V93.144H109.215ZM111.951 97.074C112.147 96.674 112.383 96.36 112.659 96.132C112.935 95.904 113.267 95.79 113.655 95.79C113.787 95.79 113.911 95.806 114.027 95.838C114.147 95.866 114.251 95.91 114.339 95.97L114.261 96.852C114.233 96.96 114.167 97.014 114.063 97.014C114.007 97.014 113.923 97.004 113.811 96.984C113.699 96.96 113.579 96.948 113.451 96.948C113.263 96.948 113.097 96.976 112.953 97.032C112.809 97.084 112.679 97.164 112.563 97.272C112.451 97.376 112.351 97.506 112.263 97.662C112.175 97.814 112.093 97.988 112.017 98.184V102H110.847V95.904H111.519C111.647 95.904 111.733 95.928 111.777 95.976C111.825 96.02 111.859 96.1 111.879 96.216L111.951 97.074ZM118.424 99.294C117.948 99.31 117.544 99.348 117.212 99.408C116.88 99.464 116.61 99.54 116.402 99.636C116.194 99.732 116.044 99.846 115.952 99.978C115.86 100.106 115.814 100.25 115.814 100.41C115.814 100.562 115.838 100.694 115.886 100.806C115.938 100.914 116.006 101.004 116.09 101.076C116.178 101.144 116.28 101.194 116.396 101.226C116.512 101.258 116.638 101.274 116.774 101.274C116.954 101.274 117.118 101.256 117.266 101.22C117.418 101.184 117.56 101.134 117.692 101.07C117.824 101.002 117.95 100.92 118.07 100.824C118.19 100.728 118.308 100.618 118.424 100.494V99.294ZM114.992 96.756C115.332 96.432 115.7 96.19 116.096 96.03C116.496 95.87 116.934 95.79 117.41 95.79C117.758 95.79 118.066 95.848 118.334 95.964C118.602 96.076 118.828 96.234 119.012 96.438C119.196 96.642 119.334 96.886 119.426 97.17C119.522 97.454 119.57 97.768 119.57 98.112V102H119.048C118.932 102 118.844 101.982 118.784 101.946C118.724 101.906 118.676 101.834 118.64 101.73L118.514 101.196C118.358 101.34 118.204 101.468 118.052 101.58C117.9 101.688 117.74 101.782 117.572 101.862C117.408 101.938 117.232 101.996 117.044 102.036C116.856 102.076 116.648 102.096 116.42 102.096C116.18 102.096 115.954 102.064 115.742 102C115.534 101.932 115.352 101.83 115.196 101.694C115.04 101.558 114.916 101.388 114.824 101.184C114.736 100.98 114.692 100.742 114.692 100.47C114.692 100.23 114.756 100 114.884 99.78C115.016 99.556 115.228 99.356 115.52 99.18C115.816 99.004 116.2 98.86 116.672 98.748C117.148 98.636 117.732 98.572 118.424 98.556V98.112C118.424 97.652 118.326 97.308 118.13 97.08C117.934 96.852 117.646 96.738 117.266 96.738C117.01 96.738 116.794 96.77 116.618 96.834C116.446 96.898 116.296 96.97 116.168 97.05C116.044 97.126 115.934 97.196 115.838 97.26C115.746 97.324 115.65 97.356 115.55 97.356C115.47 97.356 115.4 97.334 115.34 97.29C115.284 97.246 115.238 97.194 115.202 97.134L114.992 96.756ZM123.278 98.958C123.486 98.958 123.668 98.93 123.824 98.874C123.984 98.818 124.116 98.74 124.22 98.64C124.328 98.536 124.408 98.412 124.46 98.268C124.516 98.124 124.544 97.966 124.544 97.794C124.544 97.442 124.436 97.162 124.22 96.954C124.008 96.742 123.694 96.636 123.278 96.636C122.866 96.636 122.552 96.742 122.336 96.954C122.124 97.162 122.018 97.442 122.018 97.794C122.018 97.966 122.044 98.124 122.096 98.268C122.152 98.408 122.232 98.53 122.336 98.634C122.444 98.734 122.576 98.814 122.732 98.874C122.892 98.93 123.074 98.958 123.278 98.958ZM125.144 102.318C125.144 102.174 125.104 102.06 125.024 101.976C124.944 101.888 124.834 101.82 124.694 101.772C124.558 101.72 124.398 101.684 124.214 101.664C124.03 101.64 123.836 101.622 123.632 101.61C123.432 101.598 123.226 101.588 123.014 101.58C122.802 101.568 122.598 101.548 122.402 101.52C122.194 101.624 122.022 101.75 121.886 101.898C121.754 102.046 121.688 102.22 121.688 102.42C121.688 102.548 121.72 102.668 121.784 102.78C121.852 102.892 121.954 102.988 122.09 103.068C122.23 103.152 122.404 103.216 122.612 103.26C122.824 103.308 123.076 103.332 123.368 103.332C123.656 103.332 123.91 103.306 124.13 103.254C124.35 103.206 124.534 103.136 124.682 103.044C124.834 102.956 124.948 102.85 125.024 102.726C125.104 102.602 125.144 102.466 125.144 102.318ZM126.332 96.132V96.57C126.332 96.714 126.242 96.804 126.062 96.84L125.408 96.936C125.464 97.06 125.508 97.192 125.54 97.332C125.572 97.468 125.588 97.612 125.588 97.764C125.588 98.064 125.53 98.336 125.414 98.58C125.298 98.82 125.138 99.026 124.934 99.198C124.73 99.37 124.486 99.502 124.202 99.594C123.922 99.686 123.614 99.732 123.278 99.732C123.002 99.732 122.744 99.702 122.504 99.642C122.384 99.714 122.292 99.794 122.228 99.882C122.168 99.966 122.138 100.05 122.138 100.134C122.138 100.274 122.196 100.378 122.312 100.446C122.432 100.514 122.586 100.564 122.774 100.596C122.966 100.624 123.184 100.642 123.428 100.65C123.676 100.658 123.926 100.672 124.178 100.692C124.434 100.708 124.684 100.74 124.928 100.788C125.176 100.832 125.394 100.906 125.582 101.01C125.774 101.11 125.928 101.25 126.044 101.43C126.164 101.606 126.224 101.836 126.224 102.12C126.224 102.384 126.158 102.64 126.026 102.888C125.898 103.136 125.71 103.356 125.462 103.548C125.214 103.74 124.912 103.894 124.556 104.01C124.2 104.126 123.796 104.184 123.344 104.184C122.892 104.184 122.498 104.14 122.162 104.052C121.83 103.964 121.552 103.846 121.328 103.698C121.108 103.55 120.942 103.378 120.83 103.182C120.722 102.986 120.668 102.782 120.668 102.57C120.668 102.274 120.76 102.024 120.944 101.82C121.128 101.612 121.382 101.45 121.706 101.334C121.53 101.254 121.39 101.146 121.286 101.01C121.182 100.87 121.13 100.686 121.13 100.458C121.13 100.37 121.146 100.28 121.178 100.188C121.21 100.092 121.258 99.998 121.322 99.906C121.39 99.81 121.472 99.72 121.568 99.636C121.668 99.552 121.782 99.476 121.91 99.408C121.61 99.24 121.374 99.018 121.202 98.742C121.03 98.462 120.944 98.136 120.944 97.764C120.944 97.464 121.002 97.194 121.118 96.954C121.234 96.714 121.394 96.508 121.598 96.336C121.806 96.164 122.052 96.032 122.336 95.94C122.624 95.848 122.938 95.802 123.278 95.802C123.806 95.802 124.26 95.912 124.64 96.132H126.332ZM133.717 99.294C133.241 99.31 132.837 99.348 132.505 99.408C132.173 99.464 131.903 99.54 131.695 99.636C131.487 99.732 131.337 99.846 131.245 99.978C131.153 100.106 131.107 100.25 131.107 100.41C131.107 100.562 131.131 100.694 131.179 100.806C131.231 100.914 131.299 101.004 131.383 101.076C131.471 101.144 131.573 101.194 131.689 101.226C131.805 101.258 131.931 101.274 132.067 101.274C132.247 101.274 132.411 101.256 132.559 101.22C132.711 101.184 132.853 101.134 132.985 101.07C133.117 101.002 133.243 100.92 133.363 100.824C133.483 100.728 133.601 100.618 133.717 100.494V99.294ZM130.285 96.756C130.625 96.432 130.993 96.19 131.389 96.03C131.789 95.87 132.227 95.79 132.703 95.79C133.051 95.79 133.359 95.848 133.627 95.964C133.895 96.076 134.121 96.234 134.305 96.438C134.489 96.642 134.627 96.886 134.719 97.17C134.815 97.454 134.863 97.768 134.863 98.112V102H134.341C134.225 102 134.137 101.982 134.077 101.946C134.017 101.906 133.969 101.834 133.933 101.73L133.807 101.196C133.651 101.34 133.497 101.468 133.345 101.58C133.193 101.688 133.033 101.782 132.865 101.862C132.701 101.938 132.525 101.996 132.337 102.036C132.149 102.076 131.941 102.096 131.713 102.096C131.473 102.096 131.247 102.064 131.035 102C130.827 101.932 130.645 101.83 130.489 101.694C130.333 101.558 130.209 101.388 130.117 101.184C130.029 100.98 129.985 100.742 129.985 100.47C129.985 100.23 130.049 100 130.177 99.78C130.309 99.556 130.521 99.356 130.813 99.18C131.109 99.004 131.493 98.86 131.965 98.748C132.441 98.636 133.025 98.572 133.717 98.556V98.112C133.717 97.652 133.619 97.308 133.423 97.08C133.227 96.852 132.939 96.738 132.559 96.738C132.303 96.738 132.087 96.77 131.911 96.834C131.739 96.898 131.589 96.97 131.461 97.05C131.337 97.126 131.227 97.196 131.131 97.26C131.039 97.324 130.943 97.356 130.843 97.356C130.763 97.356 130.693 97.334 130.633 97.29C130.577 97.246 130.531 97.194 130.495 97.134L130.285 96.756ZM140.635 100.5C140.827 100.752 141.033 100.928 141.253 101.028C141.477 101.128 141.727 101.178 142.003 101.178C142.539 101.178 142.953 100.986 143.245 100.602C143.541 100.214 143.689 99.65 143.689 98.91C143.689 98.522 143.655 98.192 143.587 97.92C143.523 97.644 143.427 97.42 143.299 97.248C143.175 97.072 143.021 96.944 142.837 96.864C142.653 96.78 142.445 96.738 142.213 96.738C141.873 96.738 141.577 96.814 141.325 96.966C141.077 97.118 140.847 97.334 140.635 97.614V100.5ZM140.575 96.816C140.703 96.664 140.839 96.526 140.983 96.402C141.131 96.274 141.289 96.166 141.457 96.078C141.625 95.986 141.803 95.916 141.991 95.868C142.183 95.816 142.387 95.79 142.603 95.79C142.951 95.79 143.265 95.858 143.545 95.994C143.829 96.13 144.071 96.33 144.271 96.594C144.471 96.858 144.625 97.184 144.733 97.572C144.845 97.96 144.901 98.406 144.901 98.91C144.901 99.362 144.839 99.782 144.715 100.17C144.595 100.554 144.421 100.888 144.193 101.172C143.969 101.456 143.693 101.68 143.365 101.844C143.041 102.004 142.675 102.084 142.267 102.084C141.903 102.084 141.591 102.024 141.331 101.904C141.071 101.784 140.839 101.616 140.635 101.4V104.046H139.465V95.904H140.167C140.331 95.904 140.433 95.982 140.473 96.138L140.575 96.816ZM147.385 96.678C147.641 96.418 147.923 96.208 148.231 96.048C148.543 95.888 148.901 95.808 149.305 95.808C149.641 95.808 149.935 95.864 150.187 95.976C150.443 96.088 150.657 96.246 150.829 96.45C151.001 96.65 151.131 96.892 151.219 97.176C151.307 97.46 151.351 97.774 151.351 98.118V102H150.175V98.118C150.175 97.682 150.075 97.344 149.875 97.104C149.675 96.86 149.369 96.738 148.957 96.738C148.657 96.738 148.375 96.81 148.111 96.954C147.851 97.094 147.609 97.286 147.385 97.53V102H146.215V93.144H147.385V96.678ZM155.527 95.808C155.975 95.808 156.379 95.882 156.739 96.03C157.103 96.174 157.411 96.384 157.663 96.66C157.919 96.932 158.115 97.262 158.251 97.65C158.387 98.034 158.455 98.466 158.455 98.946C158.455 99.426 158.387 99.86 158.251 100.248C158.115 100.636 157.919 100.966 157.663 101.238C157.411 101.51 157.103 101.72 156.739 101.868C156.379 102.012 155.975 102.084 155.527 102.084C155.075 102.084 154.667 102.012 154.303 101.868C153.943 101.72 153.635 101.51 153.379 101.238C153.123 100.966 152.925 100.636 152.785 100.248C152.649 99.86 152.581 99.426 152.581 98.946C152.581 98.466 152.649 98.034 152.785 97.65C152.925 97.262 153.123 96.932 153.379 96.66C153.635 96.384 153.943 96.174 154.303 96.03C154.667 95.882 155.075 95.808 155.527 95.808ZM155.527 101.172C156.103 101.172 156.533 100.978 156.817 100.59C157.101 100.202 157.243 99.656 157.243 98.952C157.243 98.248 157.101 97.702 156.817 97.314C156.533 96.922 156.103 96.726 155.527 96.726C154.943 96.726 154.507 96.922 154.219 97.314C153.935 97.702 153.793 98.248 153.793 98.952C153.793 99.656 153.935 100.202 154.219 100.59C154.507 100.978 154.943 101.172 155.527 101.172ZM161.552 102.096C161.06 102.096 160.68 101.958 160.412 101.682C160.148 101.406 160.016 101.012 160.016 100.5V96.852H159.308C159.24 96.852 159.182 96.832 159.134 96.792C159.09 96.748 159.068 96.684 159.068 96.6V96.126L160.058 95.988L160.322 94.17C160.338 94.102 160.368 94.05 160.412 94.014C160.46 93.974 160.52 93.954 160.592 93.954H161.186V96H162.914V96.852H161.186V100.422C161.186 100.662 161.244 100.842 161.36 100.962C161.48 101.078 161.632 101.136 161.816 101.136C161.924 101.136 162.016 101.122 162.092 101.094C162.172 101.066 162.24 101.036 162.296 101.004C162.352 100.968 162.4 100.936 162.44 100.908C162.48 100.88 162.516 100.866 162.548 100.866C162.588 100.866 162.618 100.876 162.638 100.896C162.662 100.912 162.686 100.94 162.71 100.98L163.058 101.544C162.866 101.72 162.638 101.856 162.374 101.952C162.11 102.048 161.836 102.096 161.552 102.096ZM166.555 95.808C167.003 95.808 167.407 95.882 167.767 96.03C168.131 96.174 168.439 96.384 168.691 96.66C168.947 96.932 169.143 97.262 169.279 97.65C169.415 98.034 169.483 98.466 169.483 98.946C169.483 99.426 169.415 99.86 169.279 100.248C169.143 100.636 168.947 100.966 168.691 101.238C168.439 101.51 168.131 101.72 167.767 101.868C167.407 102.012 167.003 102.084 166.555 102.084C166.103 102.084 165.695 102.012 165.331 101.868C164.971 101.72 164.663 101.51 164.407 101.238C164.151 100.966 163.953 100.636 163.813 100.248C163.677 99.86 163.609 99.426 163.609 98.946C163.609 98.466 163.677 98.034 163.813 97.65C163.953 97.262 164.151 96.932 164.407 96.66C164.663 96.384 164.971 96.174 165.331 96.03C165.695 95.882 166.103 95.808 166.555 95.808ZM166.555 101.172C167.131 101.172 167.561 100.978 167.845 100.59C168.129 100.202 168.271 99.656 168.271 98.952C168.271 98.248 168.129 97.702 167.845 97.314C167.561 96.922 167.131 96.726 166.555 96.726C165.971 96.726 165.535 96.922 165.247 97.314C164.963 97.702 164.821 98.248 164.821 98.952C164.821 99.656 164.963 100.202 165.247 100.59C165.535 100.978 165.971 101.172 166.555 101.172ZM174.994 96.678C175.25 96.418 175.532 96.208 175.84 96.048C176.152 95.888 176.51 95.808 176.914 95.808C177.25 95.808 177.544 95.864 177.796 95.976C178.052 96.088 178.266 96.246 178.438 96.45C178.61 96.65 178.74 96.892 178.828 97.176C178.916 97.46 178.96 97.774 178.96 98.118V102H177.784V98.118C177.784 97.682 177.684 97.344 177.484 97.104C177.284 96.86 176.978 96.738 176.566 96.738C176.266 96.738 175.984 96.81 175.72 96.954C175.46 97.094 175.218 97.286 174.994 97.53V102H173.824V93.144H174.994V96.678ZM184.577 98.274C184.577 98.042 184.543 97.828 184.475 97.632C184.411 97.436 184.315 97.266 184.187 97.122C184.059 96.978 183.903 96.866 183.719 96.786C183.535 96.706 183.323 96.666 183.083 96.666C182.591 96.666 182.203 96.808 181.919 97.092C181.639 97.376 181.461 97.77 181.385 98.274H184.577ZM185.543 101.13C185.399 101.298 185.233 101.444 185.045 101.568C184.857 101.688 184.657 101.786 184.445 101.862C184.233 101.938 184.013 101.994 183.785 102.03C183.561 102.066 183.339 102.084 183.119 102.084C182.699 102.084 182.309 102.014 181.949 101.874C181.593 101.73 181.283 101.522 181.019 101.25C180.759 100.974 180.555 100.634 180.407 100.23C180.263 99.822 180.191 99.354 180.191 98.826C180.191 98.402 180.257 98.008 180.389 97.644C180.521 97.276 180.709 96.956 180.953 96.684C181.201 96.412 181.503 96.198 181.859 96.042C182.215 95.886 182.615 95.808 183.059 95.808C183.431 95.808 183.773 95.87 184.085 95.994C184.401 96.114 184.673 96.29 184.901 96.522C185.129 96.754 185.307 97.04 185.435 97.38C185.567 97.72 185.633 98.108 185.633 98.544C185.633 98.724 185.613 98.846 185.573 98.91C185.533 98.97 185.459 99 185.351 99H181.355C181.367 99.364 181.419 99.682 181.511 99.954C181.603 100.222 181.729 100.446 181.889 100.626C182.053 100.806 182.247 100.94 182.471 101.028C182.695 101.116 182.945 101.16 183.221 101.16C183.481 101.16 183.705 101.13 183.893 101.07C184.085 101.01 184.249 100.946 184.385 100.878C184.525 100.806 184.641 100.74 184.733 100.68C184.829 100.62 184.913 100.59 184.985 100.59C185.081 100.59 185.155 100.626 185.207 100.698L185.543 101.13ZM187.994 97.074C188.19 96.674 188.426 96.36 188.702 96.132C188.978 95.904 189.31 95.79 189.698 95.79C189.83 95.79 189.954 95.806 190.07 95.838C190.19 95.866 190.294 95.91 190.382 95.97L190.304 96.852C190.276 96.96 190.21 97.014 190.106 97.014C190.05 97.014 189.966 97.004 189.854 96.984C189.742 96.96 189.622 96.948 189.494 96.948C189.306 96.948 189.14 96.976 188.996 97.032C188.852 97.084 188.722 97.164 188.606 97.272C188.494 97.376 188.394 97.506 188.306 97.662C188.218 97.814 188.136 97.988 188.06 98.184V102H186.89V95.904H187.562C187.69 95.904 187.776 95.928 187.82 95.976C187.868 96.02 187.902 96.1 187.922 96.216L187.994 97.074ZM195.1 98.274C195.1 98.042 195.066 97.828 194.998 97.632C194.934 97.436 194.838 97.266 194.71 97.122C194.582 96.978 194.426 96.866 194.242 96.786C194.058 96.706 193.846 96.666 193.606 96.666C193.114 96.666 192.726 96.808 192.442 97.092C192.162 97.376 191.984 97.77 191.908 98.274H195.1ZM196.066 101.13C195.922 101.298 195.756 101.444 195.568 101.568C195.38 101.688 195.18 101.786 194.968 101.862C194.756 101.938 194.536 101.994 194.308 102.03C194.084 102.066 193.862 102.084 193.642 102.084C193.222 102.084 192.832 102.014 192.472 101.874C192.116 101.73 191.806 101.522 191.542 101.25C191.282 100.974 191.078 100.634 190.93 100.23C190.786 99.822 190.714 99.354 190.714 98.826C190.714 98.402 190.78 98.008 190.912 97.644C191.044 97.276 191.232 96.956 191.476 96.684C191.724 96.412 192.026 96.198 192.382 96.042C192.738 95.886 193.138 95.808 193.582 95.808C193.954 95.808 194.296 95.87 194.608 95.994C194.924 96.114 195.196 96.29 195.424 96.522C195.652 96.754 195.83 97.04 195.958 97.38C196.09 97.72 196.156 98.108 196.156 98.544C196.156 98.724 196.136 98.846 196.096 98.91C196.056 98.97 195.982 99 195.874 99H191.878C191.89 99.364 191.942 99.682 192.034 99.954C192.126 100.222 192.252 100.446 192.412 100.626C192.576 100.806 192.77 100.94 192.994 101.028C193.218 101.116 193.468 101.16 193.744 101.16C194.004 101.16 194.228 101.13 194.416 101.07C194.608 101.01 194.772 100.946 194.908 100.878C195.048 100.806 195.164 100.74 195.256 100.68C195.352 100.62 195.436 100.59 195.508 100.59C195.604 100.59 195.678 100.626 195.73 100.698L196.066 101.13Z" fill="black"/>
</g>
<defs>
<clipPath id="clip0_6_306">
<rect width="38" height="38" fill="white" transform="translate(103 37)"/>
</clipPath>
</defs>
</svg>
