<svg width="160" height="183" viewBox="0 0 160 183" fill="none" xmlns="http://www.w3.org/2000/svg">
<rect x="0.5" y="0.5" width="159" height="182" rx="10.5" fill="#2D927E" fill-opacity="0.05" stroke="#2D927E" stroke-dasharray="4 4"/>
<g opacity="0.5">
<g clip-path="url(#clip0_67_2295)">
<path d="M70.8535 80.2525C68.5855 80.2525 66.5681 78.8003 65.8356 76.6385L65.786 76.4756C65.6133 75.903 65.5409 75.4216 65.5409 74.9399V65.2806L62.104 76.7531C61.662 78.4406 62.6693 80.19 64.3593 80.6561L86.2658 86.5229C86.5393 86.5937 86.8127 86.6277 87.0819 86.6277C88.4928 86.6277 89.7821 85.6912 90.1434 84.3112L91.4197 80.2525H70.8535Z" fill="black"/>
<path d="M74.7495 65.3771C76.3122 65.3771 77.5827 64.1062 77.5827 62.5436C77.5827 60.9809 76.3122 59.7101 74.7495 59.7101C73.1868 59.7101 71.916 60.9809 71.916 62.5436C71.916 64.1062 73.1868 65.3771 74.7495 65.3771Z" fill="black"/>
<path d="M92.4581 55.4601H71.2076C69.2555 55.4601 67.6659 57.0497 67.6659 59.002V74.5856C67.6659 76.5378 69.2555 78.1275 71.2076 78.1275H92.4581C94.4104 78.1275 96 76.5378 96 74.5856V59.002C96 57.0497 94.4104 55.4601 92.4581 55.4601ZM71.2076 58.2936H92.4581C92.8493 58.2936 93.1665 58.6108 93.1665 59.002V69.0592L88.6913 63.8371C88.2165 63.2804 87.5294 62.9829 86.7914 62.966C86.0575 62.9701 85.369 63.296 84.8987 63.8599L79.637 70.1754L77.9228 68.4654C76.9539 67.4965 75.377 67.4965 74.4094 68.4654L70.4994 72.3741V59.002C70.4994 58.6108 70.8166 58.2936 71.2076 58.2936Z" fill="black"/>
</g>
<path d="M38.8048 112.974C39.1488 112.974 39.4568 112.916 39.7288 112.8C40.0008 112.684 40.2308 112.522 40.4188 112.314C40.6068 112.102 40.7508 111.852 40.8508 111.564C40.9508 111.272 41.0008 110.95 41.0008 110.598V105.384H42.2728V110.598C42.2728 111.102 42.1928 111.568 42.0328 111.996C41.8728 112.424 41.6428 112.794 41.3428 113.106C41.0428 113.418 40.6788 113.662 40.2508 113.838C39.8228 114.014 39.3408 114.102 38.8048 114.102C38.2688 114.102 37.7868 114.014 37.3588 113.838C36.9308 113.662 36.5668 113.418 36.2668 113.106C35.9668 112.794 35.7368 112.424 35.5768 111.996C35.4168 111.568 35.3368 111.102 35.3368 110.598V105.384H36.6148V110.592C36.6148 110.944 36.6628 111.266 36.7588 111.558C36.8588 111.85 37.0028 112.102 37.1908 112.314C37.3788 112.522 37.6088 112.684 37.8808 112.8C38.1528 112.916 38.4608 112.974 38.8048 112.974ZM45.035 112.5C45.227 112.752 45.433 112.928 45.653 113.028C45.877 113.128 46.127 113.178 46.403 113.178C46.939 113.178 47.353 112.986 47.645 112.602C47.941 112.214 48.089 111.65 48.089 110.91C48.089 110.522 48.055 110.192 47.987 109.92C47.923 109.644 47.827 109.42 47.699 109.248C47.575 109.072 47.421 108.944 47.237 108.864C47.053 108.78 46.845 108.738 46.613 108.738C46.273 108.738 45.977 108.814 45.725 108.966C45.477 109.118 45.247 109.334 45.035 109.614V112.5ZM44.975 108.816C45.103 108.664 45.239 108.526 45.383 108.402C45.531 108.274 45.689 108.166 45.857 108.078C46.025 107.986 46.203 107.916 46.391 107.868C46.583 107.816 46.787 107.79 47.003 107.79C47.351 107.79 47.665 107.858 47.945 107.994C48.229 108.13 48.471 108.33 48.671 108.594C48.871 108.858 49.025 109.184 49.133 109.572C49.245 109.96 49.301 110.406 49.301 110.91C49.301 111.362 49.239 111.782 49.115 112.17C48.995 112.554 48.821 112.888 48.593 113.172C48.369 113.456 48.093 113.68 47.765 113.844C47.441 114.004 47.075 114.084 46.667 114.084C46.303 114.084 45.991 114.024 45.731 113.904C45.471 113.784 45.239 113.616 45.035 113.4V116.046H43.865V107.904H44.567C44.731 107.904 44.833 107.982 44.873 108.138L44.975 108.816ZM51.815 105.144V114H50.639V105.144H51.815ZM56.0841 107.808C56.5321 107.808 56.9361 107.882 57.2961 108.03C57.6601 108.174 57.9681 108.384 58.2201 108.66C58.4761 108.932 58.6721 109.262 58.8081 109.65C58.9441 110.034 59.0121 110.466 59.0121 110.946C59.0121 111.426 58.9441 111.86 58.8081 112.248C58.6721 112.636 58.4761 112.966 58.2201 113.238C57.9681 113.51 57.6601 113.72 57.2961 113.868C56.9361 114.012 56.5321 114.084 56.0841 114.084C55.6321 114.084 55.2241 114.012 54.8601 113.868C54.5001 113.72 54.1921 113.51 53.9361 113.238C53.6801 112.966 53.4821 112.636 53.3421 112.248C53.2061 111.86 53.1381 111.426 53.1381 110.946C53.1381 110.466 53.2061 110.034 53.3421 109.65C53.4821 109.262 53.6801 108.932 53.9361 108.66C54.1921 108.384 54.5001 108.174 54.8601 108.03C55.2241 107.882 55.6321 107.808 56.0841 107.808ZM56.0841 113.172C56.6601 113.172 57.0901 112.978 57.3741 112.59C57.6581 112.202 57.8001 111.656 57.8001 110.952C57.8001 110.248 57.6581 109.702 57.3741 109.314C57.0901 108.922 56.6601 108.726 56.0841 108.726C55.5001 108.726 55.0641 108.922 54.7761 109.314C54.4921 109.702 54.3501 110.248 54.3501 110.952C54.3501 111.656 54.4921 112.202 54.7761 112.59C55.0641 112.978 55.5001 113.172 56.0841 113.172ZM63.5941 111.294C63.1181 111.31 62.7141 111.348 62.3821 111.408C62.0501 111.464 61.7801 111.54 61.5721 111.636C61.3641 111.732 61.2141 111.846 61.1221 111.978C61.0301 112.106 60.9841 112.25 60.9841 112.41C60.9841 112.562 61.0081 112.694 61.0561 112.806C61.1081 112.914 61.1761 113.004 61.2601 113.076C61.3481 113.144 61.4501 113.194 61.5661 113.226C61.6821 113.258 61.8081 113.274 61.9441 113.274C62.1241 113.274 62.2881 113.256 62.4361 113.22C62.5881 113.184 62.7301 113.134 62.8621 113.07C62.9941 113.002 63.1201 112.92 63.2401 112.824C63.3601 112.728 63.4781 112.618 63.5941 112.494V111.294ZM60.1621 108.756C60.5021 108.432 60.8701 108.19 61.2661 108.03C61.6661 107.87 62.1041 107.79 62.5801 107.79C62.9281 107.79 63.2361 107.848 63.5041 107.964C63.7721 108.076 63.9981 108.234 64.1821 108.438C64.3661 108.642 64.5041 108.886 64.5961 109.17C64.6921 109.454 64.7401 109.768 64.7401 110.112V114H64.2181C64.1021 114 64.0141 113.982 63.9541 113.946C63.8941 113.906 63.8461 113.834 63.8101 113.73L63.6841 113.196C63.5281 113.34 63.3741 113.468 63.2221 113.58C63.0701 113.688 62.9101 113.782 62.7421 113.862C62.5781 113.938 62.4021 113.996 62.2141 114.036C62.0261 114.076 61.8181 114.096 61.5901 114.096C61.3501 114.096 61.1241 114.064 60.9121 114C60.7041 113.932 60.5221 113.83 60.3661 113.694C60.2101 113.558 60.0861 113.388 59.9941 113.184C59.9061 112.98 59.8621 112.742 59.8621 112.47C59.8621 112.23 59.9261 112 60.0541 111.78C60.1861 111.556 60.3981 111.356 60.6901 111.18C60.9861 111.004 61.3701 110.86 61.8421 110.748C62.3181 110.636 62.9021 110.572 63.5941 110.556V110.112C63.5941 109.652 63.4961 109.308 63.3001 109.08C63.1041 108.852 62.8161 108.738 62.4361 108.738C62.1801 108.738 61.9641 108.77 61.7881 108.834C61.6161 108.898 61.4661 108.97 61.3381 109.05C61.2141 109.126 61.1041 109.196 61.0081 109.26C60.9161 109.324 60.8201 109.356 60.7201 109.356C60.6401 109.356 60.5701 109.334 60.5101 109.29C60.4541 109.246 60.4081 109.194 60.3721 109.134L60.1621 108.756ZM70.2364 109.38C70.0444 109.128 69.8364 108.952 69.6124 108.852C69.3924 108.752 69.1444 108.702 68.8684 108.702C68.3324 108.702 67.9164 108.896 67.6204 109.284C67.3284 109.668 67.1824 110.23 67.1824 110.97C67.1824 111.358 67.2144 111.69 67.2784 111.966C67.3464 112.238 67.4424 112.462 67.5664 112.638C67.6944 112.81 67.8504 112.938 68.0344 113.022C68.2184 113.102 68.4264 113.142 68.6584 113.142C68.9984 113.142 69.2924 113.066 69.5404 112.914C69.7884 112.762 70.0204 112.548 70.2364 112.272V109.38ZM71.4124 105.144V114H70.7044C70.5404 114 70.4384 113.922 70.3984 113.766L70.2964 113.064C70.0364 113.372 69.7404 113.62 69.4084 113.808C69.0804 113.992 68.7004 114.084 68.2684 114.084C67.9204 114.084 67.6044 114.016 67.3204 113.88C67.0404 113.744 66.8004 113.546 66.6004 113.286C66.4004 113.022 66.2464 112.696 66.1384 112.308C66.0304 111.92 65.9764 111.474 65.9764 110.97C65.9764 110.518 66.0364 110.098 66.1564 109.71C66.2764 109.322 66.4504 108.986 66.6784 108.702C66.9064 108.418 67.1824 108.196 67.5064 108.036C67.8304 107.872 68.1964 107.79 68.6044 107.79C68.9724 107.79 69.2844 107.85 69.5404 107.97C69.8004 108.09 70.0324 108.26 70.2364 108.48V105.144H71.4124ZM78.6778 107.808C79.1258 107.808 79.5298 107.882 79.8898 108.03C80.2538 108.174 80.5618 108.384 80.8138 108.66C81.0698 108.932 81.2658 109.262 81.4018 109.65C81.5378 110.034 81.6058 110.466 81.6058 110.946C81.6058 111.426 81.5378 111.86 81.4018 112.248C81.2658 112.636 81.0698 112.966 80.8138 113.238C80.5618 113.51 80.2538 113.72 79.8898 113.868C79.5298 114.012 79.1258 114.084 78.6778 114.084C78.2258 114.084 77.8178 114.012 77.4538 113.868C77.0938 113.72 76.7858 113.51 76.5298 113.238C76.2738 112.966 76.0758 112.636 75.9358 112.248C75.7998 111.86 75.7318 111.426 75.7318 110.946C75.7318 110.466 75.7998 110.034 75.9358 109.65C76.0758 109.262 76.2738 108.932 76.5298 108.66C76.7858 108.384 77.0938 108.174 77.4538 108.03C77.8178 107.882 78.2258 107.808 78.6778 107.808ZM78.6778 113.172C79.2538 113.172 79.6838 112.978 79.9678 112.59C80.2518 112.202 80.3938 111.656 80.3938 110.952C80.3938 110.248 80.2518 109.702 79.9678 109.314C79.6838 108.922 79.2538 108.726 78.6778 108.726C78.0938 108.726 77.6578 108.922 77.3698 109.314C77.0858 109.702 76.9438 110.248 76.9438 110.952C76.9438 111.656 77.0858 112.202 77.3698 112.59C77.6578 112.978 78.0938 113.172 78.6778 113.172ZM84.0158 109.074C84.2118 108.674 84.4478 108.36 84.7238 108.132C84.9998 107.904 85.3318 107.79 85.7198 107.79C85.8518 107.79 85.9758 107.806 86.0918 107.838C86.2118 107.866 86.3158 107.91 86.4038 107.97L86.3258 108.852C86.2978 108.96 86.2318 109.014 86.1278 109.014C86.0718 109.014 85.9878 109.004 85.8758 108.984C85.7638 108.96 85.6438 108.948 85.5158 108.948C85.3278 108.948 85.1618 108.976 85.0178 109.032C84.8738 109.084 84.7438 109.164 84.6278 109.272C84.5158 109.376 84.4158 109.506 84.3278 109.662C84.2398 109.814 84.1578 109.988 84.0818 110.184V114H82.9118V107.904H83.5838C83.7118 107.904 83.7978 107.928 83.8418 107.976C83.8898 108.02 83.9238 108.1 83.9438 108.216L84.0158 109.074ZM94.0137 109.38C93.8217 109.128 93.6137 108.952 93.3897 108.852C93.1697 108.752 92.9217 108.702 92.6457 108.702C92.1097 108.702 91.6937 108.896 91.3977 109.284C91.1057 109.668 90.9597 110.23 90.9597 110.97C90.9597 111.358 90.9917 111.69 91.0557 111.966C91.1237 112.238 91.2197 112.462 91.3437 112.638C91.4717 112.81 91.6277 112.938 91.8117 113.022C91.9957 113.102 92.2037 113.142 92.4357 113.142C92.7757 113.142 93.0697 113.066 93.3177 112.914C93.5657 112.762 93.7977 112.548 94.0137 112.272V109.38ZM95.1897 105.144V114H94.4817C94.3177 114 94.2157 113.922 94.1757 113.766L94.0737 113.064C93.8137 113.372 93.5177 113.62 93.1857 113.808C92.8577 113.992 92.4777 114.084 92.0457 114.084C91.6977 114.084 91.3817 114.016 91.0977 113.88C90.8177 113.744 90.5777 113.546 90.3777 113.286C90.1777 113.022 90.0237 112.696 89.9157 112.308C89.8077 111.92 89.7537 111.474 89.7537 110.97C89.7537 110.518 89.8137 110.098 89.9337 109.71C90.0537 109.322 90.2277 108.986 90.4557 108.702C90.6837 108.418 90.9597 108.196 91.2837 108.036C91.6077 107.872 91.9737 107.79 92.3817 107.79C92.7497 107.79 93.0617 107.85 93.3177 107.97C93.5777 108.09 93.8097 108.26 94.0137 108.48V105.144H95.1897ZM97.926 109.074C98.122 108.674 98.358 108.36 98.634 108.132C98.91 107.904 99.242 107.79 99.63 107.79C99.762 107.79 99.886 107.806 100.002 107.838C100.122 107.866 100.226 107.91 100.314 107.97L100.236 108.852C100.208 108.96 100.142 109.014 100.038 109.014C99.982 109.014 99.898 109.004 99.786 108.984C99.674 108.96 99.554 108.948 99.426 108.948C99.238 108.948 99.072 108.976 98.928 109.032C98.784 109.084 98.654 109.164 98.538 109.272C98.426 109.376 98.326 109.506 98.238 109.662C98.15 109.814 98.068 109.988 97.992 110.184V114H96.822V107.904H97.494C97.622 107.904 97.708 107.928 97.752 107.976C97.8 108.02 97.834 108.1 97.854 108.216L97.926 109.074ZM104.399 111.294C103.923 111.31 103.519 111.348 103.187 111.408C102.855 111.464 102.585 111.54 102.377 111.636C102.169 111.732 102.019 111.846 101.927 111.978C101.835 112.106 101.789 112.25 101.789 112.41C101.789 112.562 101.813 112.694 101.861 112.806C101.913 112.914 101.981 113.004 102.065 113.076C102.153 113.144 102.255 113.194 102.371 113.226C102.487 113.258 102.613 113.274 102.749 113.274C102.929 113.274 103.093 113.256 103.241 113.22C103.393 113.184 103.535 113.134 103.667 113.07C103.799 113.002 103.925 112.92 104.045 112.824C104.165 112.728 104.283 112.618 104.399 112.494V111.294ZM100.967 108.756C101.307 108.432 101.675 108.19 102.071 108.03C102.471 107.87 102.909 107.79 103.385 107.79C103.733 107.79 104.041 107.848 104.309 107.964C104.577 108.076 104.803 108.234 104.987 108.438C105.171 108.642 105.309 108.886 105.401 109.17C105.497 109.454 105.545 109.768 105.545 110.112V114H105.023C104.907 114 104.819 113.982 104.759 113.946C104.699 113.906 104.651 113.834 104.615 113.73L104.489 113.196C104.333 113.34 104.179 113.468 104.027 113.58C103.875 113.688 103.715 113.782 103.547 113.862C103.383 113.938 103.207 113.996 103.019 114.036C102.831 114.076 102.623 114.096 102.395 114.096C102.155 114.096 101.929 114.064 101.717 114C101.509 113.932 101.327 113.83 101.171 113.694C101.015 113.558 100.891 113.388 100.799 113.184C100.711 112.98 100.667 112.742 100.667 112.47C100.667 112.23 100.731 112 100.859 111.78C100.991 111.556 101.203 111.356 101.495 111.18C101.791 111.004 102.175 110.86 102.647 110.748C103.123 110.636 103.707 110.572 104.399 110.556V110.112C104.399 109.652 104.301 109.308 104.105 109.08C103.909 108.852 103.621 108.738 103.241 108.738C102.985 108.738 102.769 108.77 102.593 108.834C102.421 108.898 102.271 108.97 102.143 109.05C102.019 109.126 101.909 109.196 101.813 109.26C101.721 109.324 101.625 109.356 101.525 109.356C101.445 109.356 101.375 109.334 101.315 109.29C101.259 109.246 101.213 109.194 101.177 109.134L100.967 108.756ZM109.253 110.958C109.461 110.958 109.643 110.93 109.799 110.874C109.959 110.818 110.091 110.74 110.195 110.64C110.303 110.536 110.383 110.412 110.435 110.268C110.491 110.124 110.519 109.966 110.519 109.794C110.519 109.442 110.411 109.162 110.195 108.954C109.983 108.742 109.669 108.636 109.253 108.636C108.841 108.636 108.527 108.742 108.311 108.954C108.099 109.162 107.993 109.442 107.993 109.794C107.993 109.966 108.019 110.124 108.071 110.268C108.127 110.408 108.207 110.53 108.311 110.634C108.419 110.734 108.551 110.814 108.707 110.874C108.867 110.93 109.049 110.958 109.253 110.958ZM111.119 114.318C111.119 114.174 111.079 114.06 110.999 113.976C110.919 113.888 110.809 113.82 110.669 113.772C110.533 113.72 110.373 113.684 110.189 113.664C110.005 113.64 109.811 113.622 109.607 113.61C109.407 113.598 109.201 113.588 108.989 113.58C108.777 113.568 108.573 113.548 108.377 113.52C108.169 113.624 107.997 113.75 107.861 113.898C107.729 114.046 107.663 114.22 107.663 114.42C107.663 114.548 107.695 114.668 107.759 114.78C107.827 114.892 107.929 114.988 108.065 115.068C108.205 115.152 108.379 115.216 108.587 115.26C108.799 115.308 109.051 115.332 109.343 115.332C109.631 115.332 109.885 115.306 110.105 115.254C110.325 115.206 110.509 115.136 110.657 115.044C110.809 114.956 110.923 114.85 110.999 114.726C111.079 114.602 111.119 114.466 111.119 114.318ZM112.307 108.132V108.57C112.307 108.714 112.217 108.804 112.037 108.84L111.383 108.936C111.439 109.06 111.483 109.192 111.515 109.332C111.547 109.468 111.563 109.612 111.563 109.764C111.563 110.064 111.505 110.336 111.389 110.58C111.273 110.82 111.113 111.026 110.909 111.198C110.705 111.37 110.461 111.502 110.177 111.594C109.897 111.686 109.589 111.732 109.253 111.732C108.977 111.732 108.719 111.702 108.479 111.642C108.359 111.714 108.267 111.794 108.203 111.882C108.143 111.966 108.113 112.05 108.113 112.134C108.113 112.274 108.171 112.378 108.287 112.446C108.407 112.514 108.561 112.564 108.749 112.596C108.941 112.624 109.159 112.642 109.403 112.65C109.651 112.658 109.901 112.672 110.153 112.692C110.409 112.708 110.659 112.74 110.903 112.788C111.151 112.832 111.369 112.906 111.557 113.01C111.749 113.11 111.903 113.25 112.019 113.43C112.139 113.606 112.199 113.836 112.199 114.12C112.199 114.384 112.133 114.64 112.001 114.888C111.873 115.136 111.685 115.356 111.437 115.548C111.189 115.74 110.887 115.894 110.531 116.01C110.175 116.126 109.771 116.184 109.319 116.184C108.867 116.184 108.473 116.14 108.137 116.052C107.805 115.964 107.527 115.846 107.303 115.698C107.083 115.55 106.917 115.378 106.805 115.182C106.697 114.986 106.643 114.782 106.643 114.57C106.643 114.274 106.735 114.024 106.919 113.82C107.103 113.612 107.357 113.45 107.681 113.334C107.505 113.254 107.365 113.146 107.261 113.01C107.157 112.87 107.105 112.686 107.105 112.458C107.105 112.37 107.121 112.28 107.153 112.188C107.185 112.092 107.233 111.998 107.297 111.906C107.365 111.81 107.447 111.72 107.543 111.636C107.643 111.552 107.757 111.476 107.885 111.408C107.585 111.24 107.349 111.018 107.177 110.742C107.005 110.462 106.919 110.136 106.919 109.764C106.919 109.464 106.977 109.194 107.093 108.954C107.209 108.714 107.369 108.508 107.573 108.336C107.781 108.164 108.027 108.032 108.311 107.94C108.599 107.848 108.913 107.802 109.253 107.802C109.781 107.802 110.235 107.912 110.615 108.132H112.307ZM119.692 111.294C119.216 111.31 118.812 111.348 118.48 111.408C118.148 111.464 117.878 111.54 117.67 111.636C117.462 111.732 117.312 111.846 117.22 111.978C117.128 112.106 117.082 112.25 117.082 112.41C117.082 112.562 117.106 112.694 117.154 112.806C117.206 112.914 117.274 113.004 117.358 113.076C117.446 113.144 117.548 113.194 117.664 113.226C117.78 113.258 117.906 113.274 118.042 113.274C118.222 113.274 118.386 113.256 118.534 113.22C118.686 113.184 118.828 113.134 118.96 113.07C119.092 113.002 119.218 112.92 119.338 112.824C119.458 112.728 119.576 112.618 119.692 112.494V111.294ZM116.26 108.756C116.6 108.432 116.968 108.19 117.364 108.03C117.764 107.87 118.202 107.79 118.678 107.79C119.026 107.79 119.334 107.848 119.602 107.964C119.87 108.076 120.096 108.234 120.28 108.438C120.464 108.642 120.602 108.886 120.694 109.17C120.79 109.454 120.838 109.768 120.838 110.112V114H120.316C120.2 114 120.112 113.982 120.052 113.946C119.992 113.906 119.944 113.834 119.908 113.73L119.782 113.196C119.626 113.34 119.472 113.468 119.32 113.58C119.168 113.688 119.008 113.782 118.84 113.862C118.676 113.938 118.5 113.996 118.312 114.036C118.124 114.076 117.916 114.096 117.688 114.096C117.448 114.096 117.222 114.064 117.01 114C116.802 113.932 116.62 113.83 116.464 113.694C116.308 113.558 116.184 113.388 116.092 113.184C116.004 112.98 115.96 112.742 115.96 112.47C115.96 112.23 116.024 112 116.152 111.78C116.284 111.556 116.496 111.356 116.788 111.18C117.084 111.004 117.468 110.86 117.94 110.748C118.416 110.636 119 110.572 119.692 110.556V110.112C119.692 109.652 119.594 109.308 119.398 109.08C119.202 108.852 118.914 108.738 118.534 108.738C118.278 108.738 118.062 108.77 117.886 108.834C117.714 108.898 117.564 108.97 117.436 109.05C117.312 109.126 117.202 109.196 117.106 109.26C117.014 109.324 116.918 109.356 116.818 109.356C116.738 109.356 116.668 109.334 116.608 109.29C116.552 109.246 116.506 109.194 116.47 109.134L116.26 108.756ZM52.5174 126.5C52.7094 126.752 52.9154 126.928 53.1354 127.028C53.3594 127.128 53.6094 127.178 53.8854 127.178C54.4214 127.178 54.8354 126.986 55.1274 126.602C55.4234 126.214 55.5714 125.65 55.5714 124.91C55.5714 124.522 55.5374 124.192 55.4694 123.92C55.4054 123.644 55.3094 123.42 55.1814 123.248C55.0574 123.072 54.9034 122.944 54.7194 122.864C54.5354 122.78 54.3274 122.738 54.0954 122.738C53.7554 122.738 53.4594 122.814 53.2074 122.966C52.9594 123.118 52.7294 123.334 52.5174 123.614V126.5ZM52.4574 122.816C52.5854 122.664 52.7214 122.526 52.8654 122.402C53.0134 122.274 53.1714 122.166 53.3394 122.078C53.5074 121.986 53.6854 121.916 53.8734 121.868C54.0654 121.816 54.2694 121.79 54.4854 121.79C54.8334 121.79 55.1474 121.858 55.4274 121.994C55.7114 122.13 55.9534 122.33 56.1534 122.594C56.3534 122.858 56.5074 123.184 56.6154 123.572C56.7274 123.96 56.7834 124.406 56.7834 124.91C56.7834 125.362 56.7214 125.782 56.5974 126.17C56.4774 126.554 56.3034 126.888 56.0754 127.172C55.8514 127.456 55.5754 127.68 55.2474 127.844C54.9234 128.004 54.5574 128.084 54.1494 128.084C53.7854 128.084 53.4734 128.024 53.2134 127.904C52.9534 127.784 52.7214 127.616 52.5174 127.4V130.046H51.3474V121.904H52.0494C52.2134 121.904 52.3154 121.982 52.3554 122.138L52.4574 122.816ZM59.2674 122.678C59.5234 122.418 59.8054 122.208 60.1134 122.048C60.4254 121.888 60.7834 121.808 61.1874 121.808C61.5234 121.808 61.8174 121.864 62.0694 121.976C62.3254 122.088 62.5394 122.246 62.7114 122.45C62.8834 122.65 63.0134 122.892 63.1014 123.176C63.1894 123.46 63.2334 123.774 63.2334 124.118V128H62.0574V124.118C62.0574 123.682 61.9574 123.344 61.7574 123.104C61.5574 122.86 61.2514 122.738 60.8394 122.738C60.5394 122.738 60.2574 122.81 59.9934 122.954C59.7334 123.094 59.4914 123.286 59.2674 123.53V128H58.0974V119.144H59.2674V122.678ZM67.4102 121.808C67.8582 121.808 68.2622 121.882 68.6222 122.03C68.9862 122.174 69.2942 122.384 69.5462 122.66C69.8022 122.932 69.9982 123.262 70.1342 123.65C70.2702 124.034 70.3382 124.466 70.3382 124.946C70.3382 125.426 70.2702 125.86 70.1342 126.248C69.9982 126.636 69.8022 126.966 69.5462 127.238C69.2942 127.51 68.9862 127.72 68.6222 127.868C68.2622 128.012 67.8582 128.084 67.4102 128.084C66.9582 128.084 66.5502 128.012 66.1862 127.868C65.8262 127.72 65.5182 127.51 65.2622 127.238C65.0062 126.966 64.8082 126.636 64.6682 126.248C64.5322 125.86 64.4642 125.426 64.4642 124.946C64.4642 124.466 64.5322 124.034 64.6682 123.65C64.8082 123.262 65.0062 122.932 65.2622 122.66C65.5182 122.384 65.8262 122.174 66.1862 122.03C66.5502 121.882 66.9582 121.808 67.4102 121.808ZM67.4102 127.172C67.9862 127.172 68.4162 126.978 68.7002 126.59C68.9842 126.202 69.1262 125.656 69.1262 124.952C69.1262 124.248 68.9842 123.702 68.7002 123.314C68.4162 122.922 67.9862 122.726 67.4102 122.726C66.8262 122.726 66.3902 122.922 66.1022 123.314C65.8182 123.702 65.6762 124.248 65.6762 124.952C65.6762 125.656 65.8182 126.202 66.1022 126.59C66.3902 126.978 66.8262 127.172 67.4102 127.172ZM73.4351 128.096C72.9431 128.096 72.5631 127.958 72.2951 127.682C72.0311 127.406 71.8991 127.012 71.8991 126.5V122.852H71.1911C71.1231 122.852 71.0651 122.832 71.0171 122.792C70.9731 122.748 70.9511 122.684 70.9511 122.6V122.126L71.9411 121.988L72.2051 120.17C72.2211 120.102 72.2511 120.05 72.2951 120.014C72.3431 119.974 72.4031 119.954 72.4751 119.954H73.0691V122H74.7971V122.852H73.0691V126.422C73.0691 126.662 73.1271 126.842 73.2431 126.962C73.3631 127.078 73.5151 127.136 73.6991 127.136C73.8071 127.136 73.8991 127.122 73.9751 127.094C74.0551 127.066 74.1231 127.036 74.1791 127.004C74.2351 126.968 74.2831 126.936 74.3231 126.908C74.3631 126.88 74.3991 126.866 74.4311 126.866C74.4711 126.866 74.5011 126.876 74.5211 126.896C74.5451 126.912 74.5691 126.94 74.5931 126.98L74.9411 127.544C74.7491 127.72 74.5211 127.856 74.2571 127.952C73.9931 128.048 73.7191 128.096 73.4351 128.096ZM78.4376 121.808C78.8856 121.808 79.2896 121.882 79.6496 122.03C80.0136 122.174 80.3216 122.384 80.5736 122.66C80.8296 122.932 81.0256 123.262 81.1616 123.65C81.2976 124.034 81.3656 124.466 81.3656 124.946C81.3656 125.426 81.2976 125.86 81.1616 126.248C81.0256 126.636 80.8296 126.966 80.5736 127.238C80.3216 127.51 80.0136 127.72 79.6496 127.868C79.2896 128.012 78.8856 128.084 78.4376 128.084C77.9856 128.084 77.5776 128.012 77.2136 127.868C76.8536 127.72 76.5456 127.51 76.2896 127.238C76.0336 126.966 75.8356 126.636 75.6956 126.248C75.5596 125.86 75.4916 125.426 75.4916 124.946C75.4916 124.466 75.5596 124.034 75.6956 123.65C75.8356 123.262 76.0336 122.932 76.2896 122.66C76.5456 122.384 76.8536 122.174 77.2136 122.03C77.5776 121.882 77.9856 121.808 78.4376 121.808ZM78.4376 127.172C79.0136 127.172 79.4436 126.978 79.7276 126.59C80.0116 126.202 80.1536 125.656 80.1536 124.952C80.1536 124.248 80.0116 123.702 79.7276 123.314C79.4436 122.922 79.0136 122.726 78.4376 122.726C77.8536 122.726 77.4176 122.922 77.1296 123.314C76.8456 123.702 76.7036 124.248 76.7036 124.952C76.7036 125.656 76.8456 126.202 77.1296 126.59C77.4176 126.978 77.8536 127.172 78.4376 127.172ZM86.8768 122.678C87.1328 122.418 87.4148 122.208 87.7228 122.048C88.0348 121.888 88.3928 121.808 88.7968 121.808C89.1328 121.808 89.4268 121.864 89.6788 121.976C89.9348 122.088 90.1488 122.246 90.3208 122.45C90.4928 122.65 90.6228 122.892 90.7108 123.176C90.7988 123.46 90.8428 123.774 90.8428 124.118V128H89.6668V124.118C89.6668 123.682 89.5668 123.344 89.3668 123.104C89.1668 122.86 88.8608 122.738 88.4488 122.738C88.1488 122.738 87.8668 122.81 87.6028 122.954C87.3428 123.094 87.1008 123.286 86.8768 123.53V128H85.7068V119.144H86.8768V122.678ZM96.4596 124.274C96.4596 124.042 96.4256 123.828 96.3576 123.632C96.2936 123.436 96.1976 123.266 96.0696 123.122C95.9416 122.978 95.7856 122.866 95.6016 122.786C95.4176 122.706 95.2056 122.666 94.9656 122.666C94.4736 122.666 94.0856 122.808 93.8016 123.092C93.5216 123.376 93.3436 123.77 93.2676 124.274H96.4596ZM97.4256 127.13C97.2816 127.298 97.1156 127.444 96.9276 127.568C96.7396 127.688 96.5396 127.786 96.3276 127.862C96.1156 127.938 95.8956 127.994 95.6676 128.03C95.4436 128.066 95.2216 128.084 95.0016 128.084C94.5816 128.084 94.1916 128.014 93.8316 127.874C93.4756 127.73 93.1656 127.522 92.9016 127.25C92.6416 126.974 92.4376 126.634 92.2896 126.23C92.1456 125.822 92.0736 125.354 92.0736 124.826C92.0736 124.402 92.1396 124.008 92.2716 123.644C92.4036 123.276 92.5916 122.956 92.8356 122.684C93.0836 122.412 93.3856 122.198 93.7416 122.042C94.0976 121.886 94.4976 121.808 94.9416 121.808C95.3136 121.808 95.6556 121.87 95.9676 121.994C96.2836 122.114 96.5556 122.29 96.7836 122.522C97.0116 122.754 97.1896 123.04 97.3176 123.38C97.4496 123.72 97.5156 124.108 97.5156 124.544C97.5156 124.724 97.4956 124.846 97.4556 124.91C97.4156 124.97 97.3416 125 97.2336 125H93.2376C93.2496 125.364 93.3016 125.682 93.3936 125.954C93.4856 126.222 93.6116 126.446 93.7716 126.626C93.9356 126.806 94.1296 126.94 94.3536 127.028C94.5776 127.116 94.8276 127.16 95.1036 127.16C95.3636 127.16 95.5876 127.13 95.7756 127.07C95.9676 127.01 96.1316 126.946 96.2676 126.878C96.4076 126.806 96.5236 126.74 96.6156 126.68C96.7116 126.62 96.7956 126.59 96.8676 126.59C96.9636 126.59 97.0376 126.626 97.0896 126.698L97.4256 127.13ZM99.8772 123.074C100.073 122.674 100.309 122.36 100.585 122.132C100.861 121.904 101.193 121.79 101.581 121.79C101.713 121.79 101.837 121.806 101.953 121.838C102.073 121.866 102.177 121.91 102.265 121.97L102.187 122.852C102.159 122.96 102.093 123.014 101.989 123.014C101.933 123.014 101.849 123.004 101.737 122.984C101.625 122.96 101.505 122.948 101.377 122.948C101.189 122.948 101.023 122.976 100.879 123.032C100.735 123.084 100.605 123.164 100.489 123.272C100.377 123.376 100.277 123.506 100.189 123.662C100.101 123.814 100.019 123.988 99.9432 124.184V128H98.7732V121.904H99.4452C99.5732 121.904 99.6592 121.928 99.7032 121.976C99.7512 122.02 99.7852 122.1 99.8052 122.216L99.8772 123.074ZM106.983 124.274C106.983 124.042 106.949 123.828 106.881 123.632C106.817 123.436 106.721 123.266 106.593 123.122C106.465 122.978 106.309 122.866 106.125 122.786C105.941 122.706 105.729 122.666 105.489 122.666C104.997 122.666 104.609 122.808 104.325 123.092C104.045 123.376 103.867 123.77 103.791 124.274H106.983ZM107.949 127.13C107.805 127.298 107.639 127.444 107.451 127.568C107.263 127.688 107.063 127.786 106.851 127.862C106.639 127.938 106.419 127.994 106.191 128.03C105.967 128.066 105.745 128.084 105.525 128.084C105.105 128.084 104.715 128.014 104.355 127.874C103.999 127.73 103.689 127.522 103.425 127.25C103.165 126.974 102.961 126.634 102.813 126.23C102.669 125.822 102.597 125.354 102.597 124.826C102.597 124.402 102.663 124.008 102.795 123.644C102.927 123.276 103.115 122.956 103.359 122.684C103.607 122.412 103.909 122.198 104.265 122.042C104.621 121.886 105.021 121.808 105.465 121.808C105.837 121.808 106.179 121.87 106.491 121.994C106.807 122.114 107.079 122.29 107.307 122.522C107.535 122.754 107.713 123.04 107.841 123.38C107.973 123.72 108.039 124.108 108.039 124.544C108.039 124.724 108.019 124.846 107.979 124.91C107.939 124.97 107.865 125 107.757 125H103.761C103.773 125.364 103.825 125.682 103.917 125.954C104.009 126.222 104.135 126.446 104.295 126.626C104.459 126.806 104.653 126.94 104.877 127.028C105.101 127.116 105.351 127.16 105.627 127.16C105.887 127.16 106.111 127.13 106.299 127.07C106.491 127.01 106.655 126.946 106.791 126.878C106.931 126.806 107.047 126.74 107.139 126.68C107.235 126.62 107.319 126.59 107.391 126.59C107.487 126.59 107.561 126.626 107.613 126.698L107.949 127.13Z" fill="black"/>
</g>
<defs>
<clipPath id="clip0_67_2295">
<rect width="34" height="34" fill="white" transform="translate(62 54)"/>
</clipPath>
</defs>
</svg>
